<svg width="960" height="938" viewBox="0 0 960 938" fill="none" xmlns="http://www.w3.org/2000/svg">
<path d="M460 938C703.005 938 900 894.124 900 840C900 785.876 703.005 742 460 742C216.995 742 20 785.876 20 840C20 894.124 216.995 938 460 938Z" fill="#F2F2F2"/>
<g clip-path="url(#clip0_15_1745)">
<path d="M340.953 627.075C322.247 626.196 303.66 624.395 285.627 619.026C281.056 617.666 276.631 615.683 272.326 613.599C267.287 611.16 264.074 605.743 265.111 601.661C266.437 596.436 270.735 595.197 276.07 594.306C292.204 594.146 307.778 593.151 323.066 594.802C341.55 596.798 359.737 601.397 378.153 604.212C401.508 607.78 423.984 604.645 444.875 593.076C449.165 590.701 454.491 588.025 453.088 581.936C451.733 576.052 445.902 575.56 440.993 574.945C421.61 572.519 402.45 575.706 383.253 577.619C363.208 579.616 343.207 582.095 323.137 583.775C305.634 585.241 288.252 583.131 270.977 580.27C267.719 578.772 264.387 577.414 261.215 575.751C252.54 571.202 247.819 563.688 245.282 554.449C238.91 531.248 232.913 507.926 225.802 484.951C220.7 468.467 213.865 452.526 208.139 436.225C203.926 424.235 200.514 411.895 205.073 399.275C207.601 392.276 210.681 385.283 214.703 379.057C223.83 364.928 228.172 349.183 232.001 333.148C233.118 328.47 234.445 323.835 235.853 319.235C239.82 306.274 246.161 301.901 260.124 301.243C268.415 300.853 276.825 302.996 285.769 304.274C292.32 307.658 296.75 312.176 299.335 318.462C300.722 321.834 302.274 325.138 303.827 328.719C304.319 329.5 304.735 330.036 305.1 330.987C307.529 338.598 309.779 345.885 312.6 352.945C313.778 355.893 316.168 358.356 318.01 361.419C318.824 363.513 319.218 365.692 320.52 366.861C326.278 372.031 332.08 377.202 338.274 381.827C347.273 388.547 356.08 395.834 365.947 401.015C382.291 409.596 385.415 423.447 381.957 439.254C380.091 447.782 374.479 455.613 369.938 463.397C365.811 470.471 362.754 477.641 364.105 485.92C364.501 488.347 365.596 491.148 367.315 492.784C373.58 498.744 380.345 504.174 386.734 510.009C395.613 518.117 405.002 524.589 417.964 523.073C422.932 522.492 428.443 524.321 432.016 519.378C433.076 520.627 434.117 522.276 435.129 522.259C450.51 521.991 465.886 521.45 481.266 521.093C488.798 520.919 496.336 521.019 503.871 520.934C506.262 520.906 508.651 520.682 511.3 520.668C512.073 520.999 512.587 521.21 513.27 521.825C514.034 522.476 514.629 522.934 515.226 522.938C524.881 522.992 534.537 523.03 544.191 522.935C545.127 522.925 546.054 522.016 547.38 521.357C549.768 521.082 551.76 520.974 554.159 520.938C555.38 520.971 556.194 520.933 557.347 520.96C558.141 520.979 558.596 520.932 559.275 520.928C559.499 520.971 559.947 520.884 560.216 520.937C560.665 520.956 560.844 520.923 561.487 520.954C575.944 520.981 589.939 520.942 604.37 520.978C607.004 520.362 609.203 519.673 611.401 518.983C611.637 519.404 611.874 519.825 612.128 520.898C616.032 522.034 619.915 522.918 623.802 522.935C650.51 523.058 677.219 523.02 703.928 522.953C705.634 522.949 707.339 522.275 709.045 521.913C710.159 522.166 711.274 522.42 712.729 523.194C716.93 528.852 719.044 534.489 719.04 541.057C718.972 642.363 718.983 743.669 718.604 844.977C716.787 844.666 715.342 844.353 713.896 844.04C713.655 841.964 713.415 839.887 713.6 837.282C714.352 835.037 714.961 833.32 714.961 831.603C715.007 735.782 715.008 639.961 714.959 544.14C714.958 542.419 714.306 540.698 713.957 538.977C713.945 538.541 713.932 538.104 714.173 537.196C714.262 536.159 714.097 535.593 713.932 535.027C713.932 535.027 713.996 535.049 713.934 534.69C712.021 533.674 710.21 532.675 708.31 532.457C706.392 532.236 704.385 532.975 702.417 532.976C620.431 533.007 538.444 533.002 456.458 533C455.292 533 453.986 533.318 452.982 532.908C447.354 530.608 442.495 533.313 437.178 534.725C440.603 538.467 442.254 538.99 449.984 539.007C450.318 539.062 450.593 539.22 451.028 539.945C451.559 540.576 451.871 540.742 452.183 540.908C458.238 544.071 461.293 549.651 464.33 556.156C466.797 565.093 469.203 573.348 470.934 581.743C473.521 594.296 468.301 602.769 456.568 607.648C448.939 610.82 441.467 614.367 433.435 617.815C431.956 617.989 430.954 618.025 429.981 618.21C417.513 620.576 405.05 622.964 392.219 625.461C384.932 626.072 378.012 626.568 370.63 627.046C365.115 627.355 360.062 627.681 354.743 627.985C354.299 627.955 354.121 627.947 353.576 627.779C349.123 627.437 345.038 627.256 340.953 627.075ZM258.848 502.035C260.535 502.339 262.222 502.643 264.733 503.078C282.161 506.528 299.663 505.033 317.139 503.685C319.342 503.515 321.5 502.155 323.58 501.145C326.772 499.596 326.779 497.041 324.914 494.59C323.862 493.208 322.231 491.899 320.6 491.387C312.615 488.882 304.676 485.679 296.47 484.569C285.217 483.046 273.706 482.888 262.301 488.09C260.895 488.743 259.489 489.397 257.433 490.299C256.007 492.869 254.085 495.323 253.445 498.075C253.242 498.948 256.46 500.616 258.848 502.035ZM258.91 405.675C259.053 407.281 259.197 408.888 259.35 410.614C271.246 411.863 282.725 411.803 294.017 408.995C295.886 408.531 298.692 406.33 298.656 404.995C298.603 402.994 296.59 400.902 295.07 399.142C294.271 398.217 292.786 397.812 291.546 397.349C282.276 393.884 272.743 392.12 261.929 393.01C255.161 392.456 248.507 393.172 242.694 396.76C239.822 398.532 236.091 401.363 235.695 404.136C235.07 408.519 240.258 408.626 243.387 409.48C253.548 412.253 255.155 411.627 258.91 405.675Z" fill="#47465A" fill-opacity="0.93"/>
<path d="M545.438 460.546C543.648 460.354 541.858 459.997 540.067 459.995C507.932 459.96 475.796 459.975 443.661 459.96C435.66 459.957 433.933 458.252 433.93 450.399C433.922 426.589 433.933 402.779 434.438 378.48C478.601 377.977 522.264 377.968 565.927 377.947C572.875 377.944 573.039 377.757 573.049 371.045C573.085 346.715 573.121 322.384 573.553 297.977C588.258 296.913 602.584 295.238 616.843 299.451C616.933 312.201 616.872 324.488 617.064 336.772C617.089 338.417 618.386 340.043 619.248 342.001C619.999 342.544 620.596 342.957 621.195 342.958C636.484 342.999 651.773 343.02 667.061 342.943C668.017 342.938 668.967 342.099 670.336 341.454C671.243 339.831 672.086 338.42 672.16 336.969C672.361 333.013 672.237 329.04 672.695 325.077C676.298 325.077 679.478 324.805 682.594 325.138C686.942 325.602 688.349 324.141 688.216 319.657C688.012 312.774 688.628 305.867 689.25 298.844C694.361 297.812 695.998 299.53 695.999 305.633C696.004 333.084 695.979 360.534 695.5 387.99C666.254 387.996 637.472 388.079 608.691 387.975C585.261 387.89 561.832 387.573 538.402 387.444C537.937 387.441 537.465 388.481 536.819 389.161C536.368 389.47 536.254 389.723 536.201 390.268C536.072 390.869 536.239 391.111 536.605 391.248C536.605 391.282 536.61 391.351 536.473 391.569C536.4 392.114 536.464 392.442 536.418 393.04C536.32 393.506 536.332 393.7 536.219 394.291C536.136 406.135 536.177 417.581 536.151 429.489C536.126 434.977 536.169 440.004 536.139 445.351C536.168 446.086 536.27 446.502 536.398 447.121C536.581 447.551 536.764 447.754 537.261 448.244C538.19 448.699 538.83 448.972 539.47 448.973C557.464 448.998 575.458 449.017 593.451 448.949C594.659 448.944 595.864 448.244 597.528 447.782C628.301 447.753 658.616 447.811 689.183 448.175C691.292 448.666 693.149 448.849 695.004 449.474C694.994 457.518 694.638 457.874 686.843 458.005C685.846 458.022 684.848 458.008 683.85 458.008C653.42 458.006 622.989 457.973 592.559 458.078C590.702 458.084 588.85 459.177 586.996 459.764C586.813 459.817 586.631 459.87 585.914 459.955C585.214 460.008 585.048 460.03 584.66 460.033C584.438 460.014 583.994 459.993 583.62 459.992C582.496 459.995 581.747 459.999 580.529 460.004C568.633 460.115 557.205 460.226 545.677 460.363C545.576 460.389 545.438 460.546 545.438 460.546ZM460.399 446.208C460.399 446.208 460.763 446.288 461.076 446.964C461.805 447.278 462.533 447.861 463.263 447.864C476.864 447.923 490.467 448.031 504.064 447.789C506.09 447.753 508.086 446.006 510.545 444.994C510.545 444.994 510.988 444.902 511.638 444.637C516.086 440.951 515.771 436.016 514.428 431.336C513.173 426.962 509.286 424.35 504.993 424.243C491.006 423.892 477.002 423.914 463.013 424.203C457.155 424.324 453.113 428.282 452.102 433.504C451.07 438.831 453.143 443.193 458.686 446.082C459.134 446.108 459.582 446.135 460.399 446.208ZM482.5 412.698C489.153 412.695 495.811 412.865 502.456 412.644C510.624 412.373 515.367 407.644 515.16 400.416C514.962 393.506 510.065 389.243 502.004 389.197C489.697 389.126 477.389 389.129 465.083 389.2C457.436 389.244 452.178 393.931 451.999 400.635C451.816 407.517 457.089 412.47 465.036 412.666C470.521 412.802 476.012 412.694 482.5 412.698ZM602.507 349.076C598.435 349.076 594.364 349.076 590.331 349.076C590.331 359.132 590.331 368.224 590.331 377.932C598.423 377.932 606.21 377.781 613.986 378.001C617.42 378.098 618.188 376.741 618.156 373.607C618.084 366.375 618.461 359.138 618.343 351.908C618.328 350.952 616.548 349.304 615.484 349.216C611.513 348.89 607.499 349.08 602.507 349.076Z" fill="#2E5DAA"/>
<path d="M573.157 298.054C573.121 322.384 573.085 346.715 573.049 371.045C573.039 377.757 572.875 377.944 565.927 377.947C522.264 377.968 478.601 377.977 434.472 378.014C424.701 378.039 415.397 378.039 405.31 378.039C405.31 351.662 405.31 325.78 405.778 299.288C406.498 290.924 406.82 283.173 406.977 275.418C407.107 269.028 407.02 269.007 413.402 269.006C464.208 269.001 515.013 269.087 565.817 268.878C570.986 268.856 572.357 270.275 572.139 275.287C571.884 281.155 572.653 287.067 572.978 292.96C573.055 293.352 573.133 293.745 573.113 294.851C573.063 296.394 573.11 297.224 573.157 298.054ZM457 294C457 294 456.983 293.982 456.07 293.987C446.043 294.019 445.037 295.423 447.862 305.839C451.509 306.198 455.264 306.567 459.771 306.96C460.523 306.97 461.276 306.98 462.014 307.795C462.033 308.87 462.053 309.944 462.049 311.812C462.034 314.211 462.018 316.61 461.124 319.004C457.872 319.332 454.578 319.45 451.385 320.081C449.837 320.387 447.432 321.457 447.232 322.523C446.623 325.762 449.214 326.031 451.716 326.011C457.482 325.964 463.247 325.974 469.948 325.976C479.637 325.965 489.325 325.954 499.949 325.971C510.485 325.971 521.021 325.971 531.437 325.971C532.312 320.097 531.023 318.804 525.844 319.546C516.355 320.906 513.965 319.583 514.928 312.994C519.623 312.968 524.319 312.942 529.674 312.953C530.114 312.945 530.554 312.937 531.923 312.99C536.283 312.976 540.644 312.962 545.937 312.986C550.093 312.99 554.278 313.265 558.387 312.83C559.575 312.704 561.354 310.604 561.46 309.295C561.738 305.866 560.9 302.349 561.145 298.912C561.433 294.868 559.932 293.73 556.044 293.886C549.24 294.159 542.406 294.146 535.607 293.802C534.089 293.726 532.665 291.788 531.199 290.707C532.502 289.792 533.754 288.178 535.117 288.078C542.539 287.532 549.99 287.371 557.429 287.05C559.458 286.962 562.502 287.658 561.72 284.212C561.418 282.88 558.915 281.216 557.348 281.144C550.215 280.817 543.057 280.971 535.909 281.022C533.729 281.038 531.802 280.954 532.002 277.156C530.63 276.418 529.276 275.086 527.882 275.043C520.931 274.829 513.97 274.954 506.399 274.397C498.276 274.304 490.154 274.211 481.099 274.045C473.386 274.36 465.67 274.987 457.964 274.874C453.256 274.805 451.698 276.717 451.141 280.993C448.876 280.91 446.328 280.97 447.181 284.145C447.506 285.357 449.589 286.434 451.082 286.903C452.581 287.375 454.342 287.014 456.276 287.653C456.516 288.769 456.756 289.886 456.988 291.748C456.986 292.493 456.984 293.238 457 294ZM522.137 355.67C523.432 356.427 524.727 357.183 526.956 357.969C534.421 357.977 541.889 358.077 549.349 357.897C550.518 357.868 552.124 356.803 552.652 355.77C553.035 355.02 552.023 352.549 551.547 352.525C546.879 352.286 546.861 348.755 546.5 345.111C535.52 345.111 524.78 345.111 513.1 345.047C500.742 345.059 488.384 345.072 475.091 345.032C472.432 345.024 469.765 345.141 467.116 344.975C464.247 344.795 462.775 345.618 462.944 348.831C463.153 352.809 462.841 356.816 463.103 360.787C463.175 361.887 464.447 363.784 465.237 363.82C470.983 364.081 476.746 363.96 482.544 363.96C482.893 361.72 483.141 360.129 483.427 358.288C485.094 358.176 486.55 358.079 488.804 358.021C489.546 359.066 490.669 360.017 490.956 361.175C491.78 364.501 494.926 366.48 497.328 364.462C498.714 363.297 498.99 360.813 499.981 358.398C500.79 358.203 502.181 357.868 503.628 357.519C503.924 355.704 504.182 354.117 504.554 351.834C508.483 351.834 512.268 351.834 516.879 351.909C519.044 352.218 522.164 350.867 522.137 355.67ZM529.505 332.041C525.518 332.044 521.497 331.744 517.562 332.199C515.968 332.383 513.606 333.976 513.266 335.344C512.476 338.525 515.005 338.988 517.619 338.98C530.908 338.944 544.198 339.076 557.483 338.834C558.988 338.806 561.404 337.037 561.751 335.66C562.554 332.478 560.029 331.999 557.413 332.013C548.443 332.065 539.473 332.037 529.505 332.041ZM474.577 338.991C479.56 338.996 484.543 339.032 489.526 338.997C495.043 338.958 495.703 337.992 494.018 332.032C484.87 332.032 475.594 331.933 466.326 332.162C465.207 332.189 463.391 333.893 463.252 334.99C463.125 335.999 464.643 337.938 465.761 338.233C468.269 338.893 470.979 338.786 474.577 338.991ZM519.261 369.201C520.846 369.796 522.414 370.846 524.018 370.903C529.81 371.113 535.614 370.997 541.414 370.987C547.536 370.976 547.891 370.47 545.988 364.079C538.67 364.079 531.232 363.926 523.808 364.171C521.518 364.247 518.525 364.602 519.261 369.201ZM424.583 281.001C427.568 281.001 430.553 281.027 433.537 280.994C435.628 280.971 438.539 281.45 437.813 278.087C437.477 276.533 435.435 274.375 433.978 274.217C429.39 273.717 424.698 273.837 420.081 274.18C418.994 274.261 417.29 276.073 417.154 277.238C416.484 282.978 421.055 280.381 424.583 281.001ZM422.542 306.005C426.494 306.332 430.449 306.884 434.399 306.849C435.589 306.838 437.518 305.352 437.744 304.26C437.988 303.078 436.659 300.393 435.98 300.381C430.042 300.277 424.088 300.524 418.161 300.96C417.393 301.016 416.181 302.758 416.217 303.678C416.249 304.475 417.65 305.458 418.648 305.905C419.483 306.279 420.612 305.996 422.542 306.005ZM433.293 332.004C428.868 332.345 424.433 332.597 420.026 333.098C419.093 333.204 417.969 334.059 417.511 334.888C417.283 335.3 418.173 336.794 418.888 337.17C420.445 337.991 422.183 338.769 423.902 338.913C427.13 339.184 430.427 339.256 433.632 338.88C435.155 338.701 437.422 337.581 437.796 336.396C438.601 333.847 437.349 331.875 433.293 332.004ZM509.654 364.029C507.101 364.637 502.934 364.276 504.272 368.425C505.885 373.425 510.27 370.258 513.612 370.722C513.972 368.422 514.27 366.523 514.614 364.333C513.066 364.216 511.784 364.119 509.654 364.029Z" fill="#163C66"/>
<path d="M495.106 817.489C494.385 822.113 495.349 824.768 500.988 825.335C506.412 825.88 509.459 832.88 507.89 838.896C506.532 844.097 500.908 847.107 494.696 845.956C489.719 845.034 485.808 839.509 486.74 834.455C487.096 832.521 487.932 830.678 488.533 828.789C490.212 823.507 488.829 821.212 483.531 820.057C466.844 816.421 450.162 812.766 433.497 809.033C413.755 804.611 394.011 800.194 374.322 795.542C370.638 794.671 369.525 795.914 368.983 799.179C367.844 806.041 366.516 812.872 365.255 819.714C364.734 822.541 365.221 824.701 367.937 826.496C373.182 829.963 374.378 835.373 371.569 840.787C369.259 845.239 362.334 847.735 357.232 845.953C351.282 843.874 349.11 833.799 353.255 828.803C354.688 827.076 355.837 824.57 355.929 822.371C356.249 814.718 356.011 807.043 356.062 799.377C356.085 795.85 354.997 794.828 351.191 795.689C317.542 803.31 283.84 810.698 250.159 818.177C247.894 818.68 245.7 819.56 243.419 819.916C236.723 820.958 235.599 822.618 237.523 829.185C237.85 830.302 238.357 831.369 238.648 832.493C240.254 838.713 236.769 844.681 230.851 845.908C223.747 847.381 218.053 843.182 217.117 835.779C216.457 830.551 221.466 825.351 227.58 824.907C228.075 824.871 228.564 824.761 228.971 824.698C229.27 824.41 229.715 824.179 229.71 823.958C229.548 816.717 234.025 814.591 240.26 812.809C260.222 807.105 279.975 800.67 299.836 794.608C315.075 789.956 330.332 785.357 345.639 780.93C348.929 779.979 348.978 777.901 348.974 775.257C348.934 749.091 348.953 722.925 348.955 696.76C348.956 692.093 348.764 687.414 349.076 682.768C349.166 681.421 350.698 680.171 352.284 678.556C353.282 676.526 353.765 674.823 353.814 673.108C353.985 667.077 354.007 661.042 354.362 655.306C354.892 658.914 355.148 662.225 355.403 665.536C355.968 665.681 356.532 665.826 357.097 665.971C359.394 660.646 361.692 655.322 364.033 649.633C366.108 645.51 368.139 641.752 370.287 638.451C370.403 652.061 370.403 665.212 370.403 678.633C372.711 678.784 374.326 678.89 375.995 679.464C376.101 694.343 376.12 708.754 376.232 723.165C376.258 726.438 376.606 729.707 376.815 733.299C376.916 734.035 377.007 734.45 377.022 735.277C377.012 739.028 377.077 742.368 377.061 746.2C376.986 755.124 376.993 763.557 376.968 772.429C377.336 775.854 375.422 779.46 380.345 780.938C413.816 790.983 447.248 801.159 480.638 811.468C485.607 813.002 490.291 815.459 495.106 817.489Z" fill="#47465A"/>
<path d="M536.218 429.028C536.177 417.581 536.136 406.135 536.492 394.26C536.769 393.478 536.648 393.124 536.528 392.769C536.464 392.442 536.4 392.114 536.964 391.465C539.586 391.095 541.58 391.004 543.574 391.003C591.148 390.994 638.721 390.985 686.294 391.018C688.926 391.02 691.577 391.645 694.181 391.458C695.163 391.388 696.038 389.834 697.002 388.946C697.042 388.935 697.095 388.998 697.095 388.998C697.592 389.005 698.088 389.012 698.585 389.019C710.92 389.205 710.92 389.205 710.92 401.336C710.919 414.757 710.674 428.185 711.045 441.595C711.185 446.671 708.977 447.905 704.691 447.96C702.414 447.989 700.142 448.387 697.371 448.477C696.525 447.953 696.175 447.572 695.68 446.88C693.756 446.38 691.977 446.029 690.198 446.028C642.624 445.997 595.05 446.002 547.476 446.002C537.996 446.002 538.118 446.002 537.915 436.558C537.861 434.037 536.811 431.537 536.218 429.028ZM543.504 430.363C543.673 431.243 543.842 432.122 544.085 433.736C545.741 438.125 548.319 440.409 553.606 440.137C563.377 439.636 573.191 439.985 583.684 439.929C584.783 438.95 585.883 437.971 586.991 436.056C586.993 425.949 586.999 415.842 586.997 405.735C586.997 398.277 585.756 397.006 578.497 397.004C569.384 397.002 560.271 396.953 551.159 397.049C549.437 397.067 547.722 397.667 545.313 398.104C544.883 399.072 544.452 400.039 544.016 401.894C544.014 404.261 544.012 406.629 543.555 409.287C543.706 409.86 543.858 410.432 544.006 411.94C544.007 417.959 544.007 423.978 543.504 430.363ZM649.501 409.007C644.183 409.006 638.843 408.726 633.56 409.156C631.687 409.309 629.955 411.191 628.158 412.284C629.974 413.522 631.779 415.815 633.609 415.836C655.541 416.084 677.477 415.981 699.413 416.013C702.051 416.017 703.922 415.544 704.038 412.29C704.172 408.529 701.668 409.004 699.356 409.004C683.071 409.002 666.786 409.005 649.501 409.007ZM666.5 397.003C655.347 397.003 644.195 397.009 633.043 397.001C630.985 396.999 628.992 396.818 628.968 399.897C628.944 402.924 630.286 404.03 633.202 404.021C650.013 403.969 666.826 404.067 683.635 403.868C685.074 403.851 687.498 402.216 687.715 401.017C688.196 398.357 686.458 396.891 683.478 396.967C678.155 397.103 672.826 397.004 666.5 397.003ZM637.584 428.992C644.894 428.992 652.205 429.06 659.514 428.948C661.462 428.918 663.571 428.689 665.277 427.868C666.195 427.426 666.861 425.513 666.797 424.308C666.755 423.506 665.232 422.133 664.357 422.121C653.228 421.976 642.094 421.947 630.968 422.178C629.968 422.198 628.12 424.355 628.25 425.303C628.431 426.631 629.883 428.318 631.189 428.822C632.783 429.437 634.788 428.984 637.584 428.992ZM605.578 409.005C604.412 409.005 603.247 409.01 602.081 409.004C600.044 408.994 598.009 408.771 597.978 411.871C597.948 414.882 599.253 416.084 602.192 416.014C606.353 415.915 610.554 416.279 614.66 415.79C615.899 415.642 617.33 413.447 617.759 411.931C617.935 411.312 615.795 409.369 614.513 409.145C611.927 408.694 609.207 409.007 605.578 409.005ZM617.89 398.636C616.668 398.092 615.465 397.138 614.219 397.078C610.097 396.879 605.959 397.043 601.828 396.987C599.632 396.957 597.914 397.159 597.975 400.077C598.032 402.77 599.132 404.037 601.845 404.004C605.811 403.956 609.78 403.898 613.743 404.023C617.012 404.126 618.273 402.606 617.89 398.636ZM602.026 428.969C606.022 428.977 610.019 428.964 614.015 429C616.122 429.02 618.055 429.077 618.018 426.033C617.986 423.37 617.01 421.962 614.217 421.995C610.388 422.039 606.533 421.749 602.739 422.113C601.12 422.268 599.625 423.713 598.074 424.572C599.099 426.005 600.124 427.439 602.026 428.969Z" fill="#4CAF50"/>
<path d="M431.985 519.003C428.443 524.321 422.932 522.492 417.964 523.073C405.002 524.589 395.613 518.117 386.734 510.009C380.345 504.174 373.58 498.744 367.315 492.784C365.596 491.148 364.501 488.347 364.105 485.92C362.754 477.641 365.811 470.471 369.938 463.397C374.479 455.613 380.091 447.782 381.957 439.254C385.415 423.447 382.291 409.596 365.947 401.015C356.08 395.834 347.273 388.547 338.274 381.827C332.08 377.202 326.278 372.031 320.52 366.861C319.218 365.692 318.824 363.513 318.359 361.372C320.193 361.496 321.681 362.046 323.17 362.821C323.449 362.977 323.726 362.908 324.344 362.835C325.125 362.937 325.565 363.043 326.071 363.491C326.931 364.134 327.726 364.435 328.846 364.709C330.547 364.812 331.924 364.941 333.301 365.071C336.361 366.635 339.489 368.081 342.469 369.785C351.979 375.223 361.618 380.466 370.856 386.337C379.646 391.924 383.384 401.223 386.217 410.668C389.358 421.144 392.207 431.739 394.487 442.431C396.451 451.639 397.301 461.079 398.979 470.356C399.293 472.094 400.946 473.839 402.409 475.072C406.157 478.231 410.035 481.267 414.086 484.022C416.062 485.366 418.471 486.23 420.807 486.852C424.482 487.83 428.348 488.144 431.959 489.289C433.767 489.862 435.191 491.65 436.997 493.546C437.181 498.954 437.804 503.828 436.927 508.415C436.217 512.124 433.7 515.487 431.985 519.003Z" fill="#85D0FB"/>
<path d="M448.037 749.556C448.891 749.561 449.745 749.566 451.011 749.608C451.425 749.645 451.413 749.609 451.413 749.609C455.794 752.533 460.599 754.984 464.48 758.465C478.613 771.142 492.786 783.673 509.754 792.605C513.052 794.342 516.452 796.658 515.388 801.704C507.529 801.84 499.87 803.04 493.016 801.215C471.1 795.38 449.486 788.408 427.748 781.903C411.471 777.033 395.636 769.946 377.99 771.446C377.995 765.031 377.981 759.075 378 753.119C378.017 747.569 379.846 745.774 385.491 746.025C388.762 746.17 392.021 746.603 395.575 746.879C396.44 746.874 397.015 746.896 397.761 747.235C400.289 750.593 402.647 753.635 405.168 756.889C407.239 754.138 409.519 751.361 411.506 748.388C413.034 746.104 414.665 745.794 416.979 747.589C422.034 751.962 426.418 757.35 434.02 754.639C438.702 752.97 443.366 751.252 448.037 749.556Z" fill="#2F5DA9"/>
<path d="M271.042 580.636C288.252 583.131 305.634 585.241 323.137 583.775C343.207 582.095 363.208 579.616 383.253 577.619C402.45 575.706 421.61 572.519 440.993 574.945C445.902 575.56 451.733 576.052 453.088 581.936C454.491 588.025 449.165 590.701 444.875 593.076C423.984 604.645 401.508 607.78 378.153 604.212C359.737 601.398 341.55 596.798 323.066 594.802C307.778 593.151 292.204 594.146 276.321 594.051C274.293 589.755 272.699 585.379 271.042 580.636Z" fill="#FC6A02"/>
<path d="M303.752 328.473C302.274 325.138 300.722 321.834 299.335 318.462C296.75 312.176 292.32 307.658 286.164 304.271C284.86 295.122 285.336 286.402 289.256 278.231C290.513 275.613 292.335 273.002 294.563 271.219C295.751 270.268 298.357 271.089 301.067 271.057C306.786 270.551 302.718 266.812 303.987 265.013C303.987 265.013 303.991 264.995 304.367 264.95C305.452 263.506 306.161 262.108 306.87 260.71C306.87 260.71 306.944 260.277 307.483 260.141C312.89 260.281 314.795 257.13 315.97 253.135C315.97 253.135 316.321 252.879 316.99 252.922C322.078 252.983 326.518 252.748 330.908 253.115C333.462 253.328 335.936 254.505 338.447 255.248C338.447 255.248 338.61 255.376 338.495 255.797C338.985 257.632 337.657 260.501 341.075 259.795C342.125 259.892 343.175 259.99 344.705 260.522C349.522 262.667 354.003 264.093 358.132 266.207C360.157 267.244 362.239 269.249 359.234 272.022C356.695 274.366 358.707 274.883 360.859 275.03C361.504 275.501 362.149 275.973 362.886 277.118C361.986 278.864 361.077 280.03 359.989 280.992C356.79 283.82 353.52 286.568 350.313 289.252C350.348 289.157 350.304 289.357 349.939 289.266C348.757 290.168 347.939 291.162 347.082 292.117C347.042 292.079 347.151 292.092 346.892 292.167C346.445 292.537 346.258 292.832 346.056 293.085C346.042 293.042 346.127 293.072 345.873 293.151C345.433 293.522 345.247 293.813 345.048 294.056C345.033 294.008 345.104 294.08 344.743 294.082C342.214 294.749 340.009 296.042 337.884 295.923C335.025 295.763 331.259 293.411 329.967 297.009C328.455 301.219 328.231 306.067 328.334 310.618C328.398 313.458 330.099 316.262 331.038 319.042C331.01 319.003 331.089 319.058 330.723 319.072C329.749 320.179 329.14 321.272 328.486 322.399C328.441 322.432 328.391 322.533 328.04 322.399C327.044 322.678 326.284 322.981 325.772 323.52C319.691 329.926 314.45 331.036 306.097 327.786C305.496 327.552 304.542 328.223 303.752 328.473Z" fill="#173B64"/>
<path d="M688.896 298.97C688.628 305.867 688.012 312.774 688.216 319.657C688.349 324.141 686.942 325.602 682.593 325.138C679.478 324.805 676.298 325.077 672.203 325.067C660.272 325.065 649.281 324.912 638.299 325.17C634.243 325.266 632.808 324.194 632.899 319.927C633.161 307.615 632.973 295.293 632.962 282.976C632.962 278.182 632.962 273.388 632.962 267.921C646.988 267.921 660.543 267.921 674.575 268.523C675.053 272.875 675.053 276.626 675.053 281.079C679.686 281.079 683.76 281.079 687.834 281.079C688.103 285.61 688.373 290.141 688.841 295.381C688.992 297.051 688.944 298.01 688.896 298.97ZM640.975 295.484C639.986 296.264 638.996 297.045 637.184 298.476C641.453 301.329 645.108 303.772 648.763 306.215C649.071 305.749 649.38 305.284 649.688 304.818C646.849 302.782 644.009 300.747 640.852 298.484C644.211 295.812 647.063 293.544 649.915 291.275C649.618 290.86 649.322 290.444 649.025 290.029C646.527 291.696 644.029 293.362 640.975 295.484ZM658.455 307.894C659.706 304.489 660.95 301.082 662.211 297.682C663.435 294.381 664.676 291.086 665.91 287.789C665.313 287.595 664.717 287.401 664.12 287.208C661.052 295.457 657.984 303.707 654.916 311.957C655.403 312.143 655.891 312.329 656.379 312.515C656.969 311.203 657.558 309.891 658.455 307.894ZM679.727 298.37C677.19 300.565 674.652 302.76 672.115 304.955C672.428 305.32 672.741 305.685 673.054 306.051C676.448 303.525 679.842 300.998 683.805 298.048C679.475 295.081 676.047 292.731 672.618 290.382C672.29 290.838 671.963 291.294 671.636 291.75C674.299 293.728 676.963 295.707 679.727 298.37Z" fill="#4CAF50"/>
<path d="M432.016 519.378C433.7 515.487 436.217 512.124 436.927 508.415C437.804 503.828 437.181 498.954 437.31 493.78C455.706 496.293 473.981 499.351 492.313 502.011C494.636 502.348 497.557 501.061 499.686 499.714C504.286 496.802 508.326 492.965 513.037 490.281C516.051 488.564 519.854 488.23 523.676 487.762C525.623 491.435 527.788 494.479 528.61 497.851C529.509 501.539 531.635 501.247 534.142 500.787C544.646 498.857 544.637 498.831 548.118 509.018C548.331 509.642 548.67 510.225 548.941 511.254C549.271 514.369 549.609 517.056 550.05 520.562C542.157 519.009 542.403 512.013 539.132 507.973C538.62 507.973 538.071 507.827 537.644 507.994C528.78 511.476 519.925 514.978 511.109 518.575C510.859 518.677 511.053 519.866 511.041 520.548C508.651 520.682 506.262 520.906 503.871 520.934C496.336 521.019 488.798 520.919 481.266 521.093C465.886 521.45 450.51 521.991 435.129 522.259C434.117 522.276 433.076 520.627 432.016 519.378Z" fill="#F18584"/>
<path d="M377.985 771.905C395.636 769.946 411.471 777.033 427.748 781.903C449.486 788.408 471.1 795.38 493.016 801.215C499.87 803.04 507.529 801.84 515.263 802.085C514.158 810.523 508.659 814.955 500.15 817.05C499.283 817.107 499.091 817.17 498.899 817.233C497.887 817.282 496.876 817.331 495.485 817.434C490.291 815.459 485.607 813.002 480.638 811.468C447.248 801.159 413.816 790.983 380.345 780.938C375.422 779.46 377.336 775.854 377.218 772.443C377.498 772.017 377.985 771.905 377.985 771.905Z" fill="#3EADD8"/>
<path d="M632.594 283.17C632.973 295.293 633.161 307.615 632.899 319.927C632.808 324.194 634.243 325.266 638.299 325.17C649.281 324.912 660.272 325.065 671.751 325.064C672.237 329.04 672.361 333.013 672.16 336.969C672.086 338.42 671.244 339.831 669.89 341.326C652.383 341.487 635.739 341.582 619.095 341.678C618.386 340.043 617.089 338.417 617.064 336.772C616.872 324.488 616.933 312.201 616.907 299.103C616.898 297.355 616.896 296.418 616.894 295.481C617.271 284.305 617.271 284.319 628.836 283.934C629.972 283.896 631.097 283.561 632.594 283.17Z" fill="#9EDCED"/>
<path d="M365.902 295.198C365.406 299.098 364.523 302.999 364.525 306.899C364.527 310.552 364.936 314.394 366.151 317.801C367.232 320.836 367.428 323.099 364.424 324.465C361.783 325.665 361.201 327.546 360.527 330.139C359.331 334.743 357.712 339.354 355.475 343.536C353.209 347.772 349.304 349.996 344.195 348.448C345.155 348.031 346.077 347.929 346.644 347.866C341.938 340.765 337.418 333.761 338.895 324.611C339.659 319.873 337.783 317.457 333.225 316.706C332.265 313.638 330.65 310.925 330.456 308.113C330.235 304.904 330.442 301.038 332.113 298.579C333 297.275 337.383 298.348 340.188 298.348C340.284 298.837 340.379 299.327 340.475 299.816C342.018 297.904 343.561 295.992 345.104 294.08C345.104 294.08 345.033 294.008 345.299 293.974C345.752 293.65 345.939 293.361 346.127 293.072C346.127 293.072 346.042 293.042 346.315 293.008C346.775 292.68 346.963 292.386 347.151 292.092C347.151 292.092 347.042 292.079 347.385 292.032C348.587 291.109 349.446 290.233 350.304 289.357C350.304 289.357 350.348 289.157 350.653 289.189C354.037 287.221 357.116 285.223 360.81 282.825C362.72 287.465 364.311 291.331 365.902 295.198Z" fill="#F18583"/>
<path d="M611.262 518.636C609.203 519.673 607.004 520.362 604.07 520.701C591.716 520.234 580.095 520.205 568.48 519.928C566.171 519.873 563.885 518.867 561.307 518.23C561.259 518.677 561.142 519.783 561.024 520.89C560.844 520.923 560.665 520.956 560.136 520.791C559.788 520.592 559.354 520.513 559.354 520.513L559.051 520.885C558.596 520.932 558.141 520.979 557.338 520.586C556.927 519.651 556.863 519.155 556.795 518.276C556.801 516.365 556.811 514.837 556.878 512.887C556.914 510.252 556.136 507.657 557.021 505.901C559.361 501.257 562.458 496.999 565.164 492.533C565.654 491.723 565.87 490.669 565.958 489.704C566.989 478.445 575.459 473.688 583.997 469.45C584.001 472.724 583.944 475.53 584.016 478.333C584.211 485.868 584.461 493.401 584.779 501.302C584.937 502.167 585.005 502.665 585.074 503.163C587.128 510.708 588.962 512.126 596.959 512.078C602.63 512.044 608.479 511.476 611.262 518.636Z" fill="#2F5DA9"/>
<path d="M326.005 363.15C325.565 363.043 325.125 362.937 324.143 362.751C323.6 362.672 323.169 362.597 323.169 362.597C321.681 362.046 320.193 361.496 318.356 360.992C316.168 358.356 313.778 355.893 312.6 352.945C309.779 345.885 307.529 338.598 305.507 331.065C315.381 333.643 322.931 330.883 328.391 322.533C328.391 322.533 328.441 322.432 328.774 322.3C329.767 321.132 330.428 320.095 331.089 319.058C331.089 319.058 331.01 319.003 331.298 318.915C332.009 318.433 332.433 318.039 332.9 318.093C334.741 329.452 334.283 340.398 332.503 352.02C334.769 351.61 335.981 351.391 337.192 351.171C335.984 355.59 334.776 360.01 333.434 364.75C331.924 364.941 330.547 364.812 328.703 364.409C327.493 363.808 326.749 363.479 326.005 363.15Z" fill="#EF8584"/>
<path d="M433.925 617.746C441.467 614.367 448.939 610.82 456.568 607.648C468.301 602.769 473.521 594.296 470.934 581.743C469.203 573.348 466.797 565.093 464.539 556.467C478.879 559.407 493.241 563.03 506.157 571.342C506.234 571.742 505.97 572.041 505.614 571.987C492.933 567.137 480.608 562.341 466.899 557.007C468.603 562.053 470.418 565.483 470.848 569.079C471.942 578.219 475.021 587.384 471.904 596.632C471.137 598.906 469.577 601.116 467.849 602.815C465.252 605.369 462.191 607.453 459.314 609.721C458.924 610.028 458.493 610.333 458.031 610.493C453.659 612.009 449.276 613.492 444.896 614.985C448.144 616.087 451.803 614.962 453.788 616.306C459.002 619.837 463.543 619.798 468.566 616.463C469.421 615.896 470.819 616.148 471.973 616.401C472.977 618.197 473.973 619.613 474.914 621.373C469.8 624.647 464.743 627.576 459.356 630.696C457.889 626.87 456.945 624.406 456.001 621.941C454.163 623.569 453.406 625.14 452.947 626.794C451.757 631.072 450.75 635.399 449.578 639.682C447.106 648.717 444.02 657.627 442.224 666.792C440.398 676.111 438.805 685.445 435.694 694.44C433.775 699.987 431.734 705.491 429.736 710.602C437.506 679.522 445.287 648.853 453.179 617.746C446.858 617.746 440.391 617.746 433.925 617.746Z" fill="#E1185F"/>
<path d="M713.888 539.391C714.306 540.698 714.958 542.419 714.959 544.14C715.008 639.961 715.007 735.782 714.961 831.603C714.961 833.32 714.352 835.037 713.669 836.873C713.228 835 713.071 833.008 713.071 831.015C713.059 736.411 713.055 641.806 713.092 547.201C713.093 544.735 713.566 542.27 713.888 539.391Z" fill="#A9DBE9"/>
<path d="M448.119 749.238C443.366 751.252 438.702 752.97 434.02 754.639C426.418 757.35 422.034 751.962 417.087 747.218C418.616 743.025 420.193 739.496 422.227 735.991C424.8 735.92 426.917 735.826 429.434 735.784C430.894 735.713 431.953 735.59 433.355 735.572C435.108 735.401 436.52 735.125 438.284 734.862C439.099 734.793 439.562 734.71 440.38 734.715C442.567 734.247 444.396 733.692 446.424 733.154C446.622 733.171 447.011 733.09 447.338 733.102C448.097 733.055 448.528 732.995 449.255 732.945C450.073 732.737 450.596 732.518 451.534 732.269C453.331 732.184 454.714 732.129 456.097 732.074C453.465 737.689 450.833 743.304 448.119 749.238Z" fill="#EF8584"/>
<path d="M449.778 538.733C442.254 538.99 440.603 538.467 437.178 534.725C442.495 533.313 447.354 530.608 452.982 532.908C453.986 533.318 455.292 533 456.458 533C538.444 533.002 620.431 533.007 702.417 532.976C704.385 532.975 706.392 532.236 708.31 532.457C710.21 532.675 712.021 533.674 713.903 534.704C711.773 535.022 709.61 534.918 707.448 534.918C624.201 534.91 540.955 534.912 457.708 534.913C453.135 534.913 448.561 534.913 443.987 534.913C443.906 535.157 443.824 535.4 443.742 535.644C445.685 536.582 447.628 537.52 449.778 538.733Z" fill="#AFE1EC"/>
<path d="M545.778 460.337C557.205 460.226 568.633 460.115 580.523 460.36C580.765 461.314 580.372 462.445 580.349 462.438C575.74 460.935 573.605 464.545 571.469 467.186C567.757 471.773 565.917 478.011 559.528 480.136C559.404 480.178 559.367 480.434 559.245 480.536C555.59 483.606 551.93 486.668 548.27 489.732C548.034 489.421 547.798 489.109 547.562 488.798C547.07 490.488 546.577 492.178 545.996 493.414C545.793 483.277 545.678 473.593 545.563 463.908C545.587 463.155 545.61 462.403 545.648 461.058C545.662 460.466 545.778 460.337 545.778 460.337Z" fill="#244C88"/>
<path d="M354.086 655.009C354.007 661.042 353.985 667.077 353.814 673.108C353.765 674.823 353.282 676.526 352.711 678.411C348.59 661.693 344.757 644.797 340.939 627.489C345.038 627.256 349.123 627.437 353.51 628.251C353.904 637.592 353.995 646.3 354.086 655.009Z" fill="#FC6A02"/>
<path d="M718.976 844.975C718.983 743.669 718.972 642.363 719.04 541.057C719.044 534.488 716.93 528.852 713.035 523.362C717.527 524.512 719.006 528.316 720 532.423C720.229 533.369 720.059 534.413 720.059 535.412C720.055 638.297 720.05 741.181 719.774 844.534C719.503 845.003 719.01 845.01 719.002 845.002C718.994 844.994 718.976 844.975 718.976 844.975Z" fill="#A9DBE9"/>
<path d="M511.623 576.367C520.279 585.606 521.989 597.082 519.313 608.476C516.105 622.134 511.363 635.51 506.337 648.645C497.495 671.751 487.818 694.537 478.771 717.567C477.036 721.982 474.542 724.91 469.656 726.255C469.189 726.199 468.945 725.924 469.123 725.636C477.697 720.531 480.241 712.783 479.553 702.321C480.707 704.167 481.099 704.793 481.772 705.868C483.04 702.612 484.043 700.01 485.065 697.415C489.415 686.369 493.758 675.321 498.127 664.282C501.57 655.584 505.132 646.931 508.473 638.194C510.101 633.938 511.347 629.535 512.765 625.198C512.468 624.638 513.783 624.321 513.976 623.671C515.778 617.594 517.857 611.774 517.827 605.056C517.792 597.192 518.474 589.593 513.972 582.62C512.829 580.849 511.96 578.902 511.135 576.873C511.305 576.711 511.623 576.367 511.623 576.367Z" fill="#E1185F"/>
<path d="M573.076 292.504C572.653 287.067 571.884 281.155 572.139 275.287C572.357 270.275 570.986 268.856 565.817 268.878C515.013 269.087 464.208 269.001 413.402 269.006C407.02 269.007 407.107 269.028 406.977 275.418C406.82 283.173 406.498 290.924 405.907 298.836C405.567 288.727 405.567 278.459 405.567 267.994C461.393 267.994 517.063 267.994 573.174 267.994C573.174 276.169 573.174 284.109 573.076 292.504Z" fill="#213952"/>
<path d="M548.95 510.826C548.67 510.225 548.331 509.642 548.118 509.018C544.637 498.831 544.646 498.857 534.142 500.787C531.635 501.247 529.509 501.539 528.61 497.851C527.788 494.479 525.623 491.435 524.067 487.905C524.535 487.514 524.986 487.464 525.851 487.589C526.265 487.763 526.583 487.805 526.583 487.805L526.878 487.67C528.042 487.61 529.207 487.55 530.914 487.702C531.457 487.916 531.741 487.983 531.741 487.983L532.032 487.966C536.277 490.98 540.522 493.994 545.166 497.077C545.565 497.146 545.62 497.109 545.748 497.418C546.517 498.224 547.158 498.72 547.835 499.218C547.871 499.219 547.827 499.162 547.875 499.483C548.928 500.9 549.933 501.995 550.957 503.054C550.976 503.017 550.896 503.038 550.911 503.392C551.592 504.351 552.257 504.955 552.895 505.891C553.265 506.996 553.662 507.769 554.022 508.912C552.306 509.796 550.628 510.311 548.95 510.826Z" fill="#F6637A"/>
<path d="M695.826 447.191C696.175 447.572 696.525 447.953 697.029 448.694C697.067 458.701 695.775 460.005 686.298 460.002C653.503 459.991 620.709 459.976 587.455 459.863C588.85 459.177 590.702 458.084 592.559 458.078C622.989 457.973 653.42 458.006 683.85 458.008C684.848 458.008 685.846 458.022 686.843 458.005C694.638 457.874 694.994 457.518 695.234 449.342C695.629 448.463 695.793 448.158 695.896 447.693C695.835 447.533 695.826 447.191 695.826 447.191Z" fill="#4464A0"/>
<path d="M337.176 351.161C335.981 351.391 334.769 351.61 332.503 352.02C334.283 340.398 334.741 329.452 332.931 317.908C332.92 317.274 333.199 317.018 333.199 317.018C337.783 317.457 339.659 319.873 338.895 324.611C337.418 333.761 341.938 340.765 346.644 347.866C346.077 347.929 345.155 348.031 343.853 348.224C342.015 348.497 340.557 348.68 338.46 349.081C337.593 349.909 337.363 350.519 337.134 351.128C337.134 351.128 337.16 351.151 337.176 351.161Z" fill="#F6747C"/>
<path d="M708.724 521.647C707.339 522.275 705.634 522.949 703.928 522.953C677.219 523.02 650.51 523.058 623.802 522.935C619.915 522.918 616.032 522.033 612.128 521.152C633.57 520.844 655.032 520.912 676.494 521.037C687.131 521.098 697.767 521.263 708.724 521.647Z" fill="#A9DBE9"/>
<path d="M366.275 295.133C364.311 291.331 362.72 287.465 360.81 282.825C357.116 285.223 354.037 287.221 350.618 289.284C353.52 286.568 356.79 283.82 359.989 280.992C361.077 280.03 361.986 278.864 362.988 277.409C365.106 280.994 367.657 284.81 369.09 289.007C369.623 290.567 367.538 293.021 366.275 295.133Z" fill="#313C5A"/>
<path d="M689.25 298.844C688.944 298.01 688.992 297.051 689.091 295.734C695.47 296 697.052 297.6 697.059 303.709C697.09 331.827 697.084 359.945 697.093 388.531C697.095 388.998 697.042 388.935 696.761 389.011C696.48 389.087 695.988 388.999 695.986 388.746C695.977 388.323 695.971 388.154 695.965 387.985C695.979 360.534 696.004 333.084 695.999 305.633C695.998 299.53 694.361 297.812 689.25 298.844Z" fill="#2E5691"/>
<path d="M616.436 295.431C616.896 296.418 616.898 297.355 616.836 298.639C602.584 295.238 588.258 296.913 573.553 297.977C573.11 297.224 573.063 296.394 573.071 295.152C582.251 294.945 591.375 295.188 600.5 295.342C605.658 295.43 610.818 295.373 616.436 295.431Z" fill="#2E5691"/>
<path d="M687.807 280.74C683.76 281.079 679.686 281.079 675.053 281.079C675.053 276.626 675.053 272.875 675.021 268.677C679.254 272.287 683.517 276.344 687.807 280.74Z" fill="#163C66"/>
<path d="M360.73 274.647C358.707 274.883 356.695 274.366 359.234 272.022C362.238 269.249 360.157 267.244 358.132 266.207C354.003 264.093 349.522 262.667 345.091 260.611C349.305 261.33 353.847 261.854 357.866 263.588C363.819 266.157 364.287 269.045 360.73 274.647Z" fill="#313C5A"/>
<path d="M584.69 500.936C584.461 493.401 584.211 485.868 584.016 478.333C583.944 475.53 584.001 472.724 583.998 469.002C583.996 465.387 583.995 462.69 583.994 459.993C583.994 459.993 584.438 460.014 584.708 460.337C585.028 460.858 585.079 461.057 585.13 461.257C585.172 461.602 585.214 461.947 585.106 463.025C584.867 476.15 584.778 488.543 584.69 500.936Z" fill="#2E5691"/>
<path d="M584.779 501.302C584.778 488.543 584.867 476.15 585.023 463.275C585.181 475.989 585.273 489.185 585.219 502.772C585.005 502.665 584.937 502.167 584.779 501.302Z" fill="#4464A0"/>
<path d="M338.233 255.005C335.936 254.505 333.462 253.328 330.908 253.115C326.518 252.748 322.078 252.983 317.207 252.928C324.213 249.314 331.279 250.181 338.233 255.005Z" fill="#313C5A"/>
<path d="M545.62 497.109C545.62 497.109 545.565 497.146 545.537 497.129C545.43 486.214 545.35 475.316 545.416 464.163C545.678 473.593 545.793 483.277 545.929 493.722C545.99 494.687 546.028 494.892 545.985 495.433C545.81 496.215 545.715 496.662 545.62 497.109Z" fill="#F18584"/>
<path d="M456.405 731.877C454.714 732.129 453.331 732.184 451.693 731.93C457.273 729.722 463.109 727.823 468.945 725.924C468.945 725.924 469.189 726.199 469.309 726.339C465.191 728.213 460.952 729.947 456.405 731.877Z" fill="#E1185F"/>
<path d="M315.63 253.146C314.795 257.13 312.89 260.281 307.652 260.001C309.951 257.718 312.62 255.438 315.63 253.146Z" fill="#313C5A"/>
<path d="M303.715 265.209C302.718 266.812 306.786 270.551 301.454 270.999C301.88 269.132 302.662 267.269 303.715 265.209Z" fill="#313C5A"/>
<path d="M341.076 259.47C337.657 260.501 338.985 257.632 338.567 255.872C339.528 256.733 340.302 257.939 341.076 259.47Z" fill="#313C5A"/>
<path d="M508.086 572.908C509.159 573.884 510.231 574.86 511.463 576.101C511.623 576.367 511.305 576.711 510.79 576.858C506.494 577.664 508.316 574.667 507.867 573.127C507.94 573.054 508.086 572.908 508.086 572.908Z" fill="#E1185F"/>
<path d="M306.57 260.855C306.161 262.108 305.452 263.506 304.373 264.944C304.759 263.655 305.515 262.328 306.57 260.855Z" fill="#313C5A"/>
<path d="M713.963 844.423C715.342 844.353 716.787 844.666 718.604 844.977C718.976 844.975 718.994 844.994 718.999 845.251C719.004 845.509 719.007 846.008 719.007 846.008C717.348 845.607 715.689 845.207 713.963 844.423Z" fill="#A9DBE9"/>
<path d="M506.371 571.598C506.957 571.768 507.408 572.084 507.972 572.653C508.086 572.908 507.94 573.054 507.602 573.042C506.832 572.7 506.401 572.37 505.97 572.041C505.97 572.041 506.234 571.742 506.371 571.598Z" fill="#E1185F"/>
<path d="M337.405 350.972C337.363 350.519 337.593 349.909 338.164 349.221C338.23 349.7 337.952 350.258 337.405 350.972Z" fill="#EF8584"/>
<path d="M713.915 535.358C714.097 535.593 714.262 536.159 714.192 536.869C713.937 536.572 713.917 536.13 713.915 535.358Z" fill="#A9DBE9"/>
<path d="M451.449 749.592C451.413 749.609 451.425 749.645 451.44 749.616C451.455 749.587 451.485 749.576 451.449 749.592Z" fill="#EF8584"/>
<path d="M719.241 845.919C719.007 846.008 719.004 845.509 719.007 845.259C719.01 845.01 719.503 845.003 719.749 845.003C719.822 845.278 719.648 845.554 719.241 845.919Z" fill="#AFE1EC"/>
<path d="M545.677 460.363C545.778 460.337 545.662 460.466 545.582 460.496C545.502 460.527 545.351 460.584 545.395 460.565C545.438 460.546 545.576 460.389 545.677 460.363Z" fill="#F18584"/>
<path d="M585.305 461.076C585.079 461.057 585.028 460.858 584.93 460.355C585.048 460.03 585.214 460.008 585.63 459.98C585.747 460.281 585.614 460.588 585.305 461.076Z" fill="#4464A0"/>
<path d="M499.023 817.379C499.091 817.17 499.283 817.107 499.775 817.091C499.766 817.267 499.457 817.396 499.023 817.379Z" fill="#A2DDEB"/>
<path d="M531.921 487.824C532.032 487.966 531.741 487.983 531.741 487.983C531.741 487.983 531.457 487.916 531.329 487.854C531.363 487.527 531.566 487.49 531.921 487.824Z" fill="#F18584"/>
<path d="M452.039 540.692C451.871 540.742 451.559 540.576 451.143 540.158C451.324 540.096 451.61 540.286 452.039 540.692Z" fill="#AFE1EC"/>
<path d="M526.686 487.556C526.878 487.67 526.583 487.805 526.583 487.805C526.583 487.805 526.265 487.763 526.178 487.698C526.092 487.634 526.495 487.442 526.686 487.556Z" fill="#F18584"/>
<path d="M262.966 488.072C273.706 482.888 285.217 483.046 296.47 484.569C304.676 485.679 312.615 488.882 320.6 491.387C322.231 491.899 323.862 493.208 324.914 494.59C326.779 497.041 326.772 499.596 323.58 501.145C321.5 502.155 319.342 503.515 317.139 503.685C299.663 505.033 282.161 506.528 264.291 502.604C263.555 497.444 263.261 492.758 262.966 488.072Z" fill="#85D0FB"/>
<path d="M262.812 393.05C272.743 392.12 282.276 393.884 291.546 397.349C292.786 397.812 294.271 398.217 295.07 399.142C296.59 400.902 298.603 402.994 298.656 404.995C298.692 406.33 295.886 408.531 294.017 408.995C282.725 411.803 271.246 411.863 259.351 410.614C259.197 408.888 259.053 407.281 258.885 404.866C259.82 401.662 260.782 399.267 262.059 396.751C262.514 396.002 262.653 395.373 262.794 394.461C262.801 393.802 262.807 393.426 262.812 393.05Z" fill="#85D0FB"/>
<path d="M548.941 511.254C550.628 510.311 552.306 509.796 554.261 509.078C555.299 510.353 556.06 511.831 556.821 513.309C556.811 514.837 556.801 516.365 556.493 518.373C555.381 519.524 554.567 520.195 553.753 520.867C551.761 520.974 549.768 521.082 546.982 521.235C545.087 521.344 543.984 521.408 542.518 521.358C541.157 521.342 540.16 521.44 538.699 521.415C529.857 521.336 521.479 521.378 513.1 521.421C512.587 521.21 512.073 520.999 511.3 520.668C511.053 519.866 510.859 518.677 511.109 518.575C519.925 514.978 528.78 511.476 537.644 507.994C538.071 507.827 538.62 507.973 539.132 507.973C542.403 512.013 542.157 519.009 550.05 520.562C549.609 517.056 549.271 514.369 548.941 511.254Z" fill="#8A0944"/>
<path d="M392.219 625.461C394.587 643.603 396.587 661.861 398.179 680.404C397.188 677.49 396.446 674.31 396.053 671.088C394.633 659.466 393.345 647.828 391.944 636.203C391.858 635.492 391.361 634.421 390.815 634.24C386.088 632.665 382.156 629.021 376.467 629.793C373.126 630.246 371.894 630.941 371.938 634.432C372.104 647.897 371.997 661.366 372.026 674.834C372.028 675.742 372.31 676.649 372.536 678.004C374.487 677.309 377.049 674.39 376.79 678.908C376.317 678.928 376.129 678.962 375.942 678.996C374.326 678.89 372.711 678.784 370.403 678.633C370.403 665.212 370.403 652.061 370.485 638.109C370.742 633.894 370.917 630.479 371.092 627.063C378.012 626.568 384.932 626.072 392.219 625.461Z" fill="#D0185D"/>
<path d="M370.63 627.046C370.917 630.479 370.742 633.894 370.369 637.651C368.139 641.752 366.108 645.51 363.693 649.485C360.878 647.904 356.903 646.5 356.324 644.229C355.002 639.047 355.343 633.441 355.009 628.008C360.062 627.681 365.115 627.355 370.63 627.046Z" fill="#444356"/>
<path d="M354.743 627.985C355.343 633.441 355.002 639.047 356.324 644.229C356.903 646.5 360.878 647.904 363.65 649.849C361.692 655.322 359.394 660.646 357.097 665.971C356.532 665.826 355.968 665.681 355.403 665.537C355.148 662.225 354.892 658.914 354.362 655.306C353.995 646.3 353.904 637.592 353.878 628.411C354.121 627.947 354.299 627.955 354.743 627.985Z" fill="#444356"/>
<path d="M262.633 488.081C263.261 492.758 263.555 497.444 263.879 502.538C262.222 502.643 260.535 502.339 258.45 501.526C258.063 497.362 258.073 493.706 258.084 490.05C259.489 489.397 260.895 488.743 262.633 488.081Z" fill="#65BCDC"/>
<path d="M328.04 322.399C322.931 330.883 315.381 333.643 305.559 330.65C304.735 330.035 304.319 329.5 303.827 328.719C304.542 328.223 305.496 327.552 306.097 327.786C314.45 331.036 319.691 329.926 325.772 323.52C326.284 322.981 327.044 322.677 328.04 322.399Z" fill="#313C5A"/>
<path d="M513.27 521.825C521.479 521.378 529.857 521.336 538.939 521.559C540.722 521.707 541.802 521.589 542.882 521.471C543.984 521.408 545.087 521.344 546.587 521.403C546.054 522.016 545.127 522.925 544.191 522.935C534.537 523.03 524.881 522.992 515.226 522.938C514.629 522.934 514.034 522.476 513.27 521.825Z" fill="#AFE1EC"/>
<path d="M561.487 520.954C561.142 519.783 561.259 518.677 561.307 518.23C563.885 518.867 566.171 519.873 568.48 519.928C580.095 520.205 591.716 520.234 603.634 520.627C589.939 520.942 575.944 520.981 561.487 520.954Z" fill="#2E5691"/>
<path d="M257.758 490.174C258.073 493.706 258.063 497.362 258.082 501.469C256.46 500.616 253.242 498.948 253.445 498.075C254.085 495.323 256.007 492.869 257.758 490.174Z" fill="#87D0F9"/>
<path d="M554.159 520.938C554.567 520.195 555.381 519.524 556.497 518.755C556.863 519.155 556.927 519.651 556.999 520.521C556.194 520.933 555.38 520.971 554.159 520.938Z" fill="#2E5691"/>
<path d="M559.275 520.928C559.051 520.885 559.354 520.513 559.354 520.513C559.354 520.513 559.788 520.592 559.867 520.738C559.947 520.884 559.499 520.971 559.275 520.928Z" fill="#2E5691"/>
<path d="M482 412.696C476.012 412.694 470.521 412.802 465.036 412.666C457.089 412.47 451.816 407.517 451.999 400.635C452.178 393.931 457.436 389.244 465.083 389.2C477.389 389.129 489.697 389.126 502.004 389.197C510.065 389.243 514.962 393.506 515.16 400.416C515.367 407.644 510.624 412.373 502.456 412.644C495.811 412.865 489.153 412.695 482 412.696ZM494.149 399.046C493.975 405.412 497.698 410.109 502.809 409.973C508.366 409.825 513.06 405.252 511.748 399.944C511.015 396.978 508.081 393.574 505.269 392.326C500.685 390.293 497.666 392.511 494.149 399.046Z" fill="#82CEFC"/>
<path d="M510.988 444.902C510.988 444.902 510.545 444.994 509.897 445.012C506.963 445.357 504.679 445.944 502.39 445.966C491.926 446.065 481.461 446.006 471.033 445.657C471.747 443.222 472.424 441.136 473.093 438.701C473.157 437.897 473.229 437.44 473.626 436.896C475.567 433.162 475.133 430.337 470.615 429.031C470.389 428.999 469.976 428.807 470.07 428.449C472.441 427.394 474.702 426.159 476.997 426.095C485.594 425.855 494.203 425.946 502.807 426.013C511.18 426.077 515.577 433.702 511.666 441.079C511.089 442.167 511.197 443.618 510.988 444.902Z" fill="#4CAF50"/>
<path d="M603.004 349.076C607.499 349.08 611.513 348.89 615.484 349.216C616.548 349.304 618.328 350.952 618.343 351.908C618.461 359.138 618.084 366.375 618.156 373.607C618.188 376.741 617.42 378.098 613.986 378.001C606.21 377.781 598.423 377.932 590.331 377.932C590.331 368.224 590.331 359.132 590.331 349.076C594.364 349.076 598.435 349.076 603.004 349.076ZM598.033 357.629C598.232 357.881 598.473 358.082 598.913 358.92C599.867 361.195 600.82 363.47 601.138 365.944C599.372 367.56 597.607 369.177 595.842 370.794C596.318 371.241 596.795 371.687 597.271 372.133C598.911 370.149 600.55 368.164 602.751 365.871C604.227 366.48 605.872 366.853 607.139 367.756C608.87 368.988 610.313 370.623 611.879 372.085C612.226 371.719 612.573 371.353 612.92 370.987C610.698 368.503 608.477 366.02 606.373 363.667C608.052 361.312 609.564 359.193 611.639 356.962C611.917 356.53 612.195 356.098 612.473 355.667C612.208 355.57 611.747 355.34 611.709 355.397C611.391 355.866 611.152 356.388 610.209 356.96C608.253 358.527 606.297 360.094 604.476 361.552C602.535 360.193 600.847 359.009 598.902 357.43C598.7 357.18 598.454 356.987 598.007 356.294C597.447 356.135 596.888 355.977 596.328 355.818C596.812 356.29 597.295 356.761 598.033 357.629Z" fill="#40ABD6"/>
<path d="M556.878 512.887C556.06 511.831 555.299 510.353 554.299 508.708C553.662 507.769 553.265 506.996 552.84 505.544C552.174 504.256 551.535 503.647 550.896 503.038C550.896 503.038 550.976 503.017 550.947 502.693C549.888 501.3 548.857 500.231 547.827 499.162C547.827 499.162 547.871 499.219 547.903 498.857C547.312 497.362 546.689 496.23 546.066 495.097C546.028 494.892 545.99 494.687 546.018 494.175C546.577 492.178 547.07 490.488 547.562 488.798C547.798 489.109 548.034 489.421 548.27 489.732C551.93 486.668 555.59 483.606 559.245 480.536C559.367 480.434 559.404 480.178 559.528 480.136C565.917 478.011 567.757 471.773 571.469 467.186C573.605 464.545 575.74 460.935 580.349 462.438C580.372 462.445 580.765 461.314 580.991 460.359C581.747 459.999 582.496 459.995 583.62 459.992C583.995 462.69 583.996 465.387 583.996 468.532C575.459 473.688 566.989 478.445 565.958 489.704C565.87 490.669 565.654 491.723 565.164 492.533C562.458 496.999 559.361 501.257 557.021 505.901C556.136 507.657 556.914 510.252 556.878 512.887Z" fill="#275396"/>
<path d="M536.151 429.489C536.811 431.537 537.861 434.037 537.915 436.558C538.118 446.002 537.996 446.002 547.476 446.002C595.05 446.002 642.624 445.997 690.198 446.028C691.977 446.029 693.756 446.38 695.68 446.88C695.826 447.191 695.835 447.533 695.463 447.628C693.038 447.771 690.985 447.819 688.932 447.868C658.616 447.811 628.301 447.753 597.056 447.715C576.409 447.801 556.691 447.868 536.973 447.934C536.764 447.754 536.581 447.551 536.555 446.955C536.528 446.068 536.37 445.55 536.212 445.032C536.169 440.004 536.126 434.977 536.151 429.489Z" fill="#A9E4FE"/>
<path d="M706.699 430C706.699 430 707.191 430.088 707.431 430.023C706.749 430.835 705.873 432.389 704.892 432.459C702.287 432.646 699.637 432.021 697.005 432.019C649.431 431.986 601.858 431.995 554.285 432.004C552.291 432.005 550.297 432.096 547.812 432.248C547.32 432.352 547.316 432.283 547.393 432.034C547.441 431.462 547.286 431.216 547.008 431.048C546.964 430.724 547.079 430.47 547.993 430.24C600.498 430.205 652.362 430.22 704.226 430.223C705.05 430.223 705.875 430.078 706.699 430Z" fill="#A9E4FE"/>
<path d="M511.313 444.769C511.197 443.618 511.089 442.167 511.666 441.079C515.577 433.702 511.18 426.077 502.807 426.013C494.203 425.946 485.594 425.855 476.997 426.095C474.702 426.159 472.441 427.394 469.723 428.343C461.948 425.377 455.188 428.469 455.348 435.666C455.416 438.74 458.469 441.747 460.121 444.842C460.076 444.899 459.984 445.013 459.694 445.031C458.944 445.352 458.484 445.655 458.023 445.958C453.143 443.193 451.07 438.831 452.102 433.504C453.113 428.282 457.155 424.324 463.013 424.203C477.002 423.914 491.006 423.892 504.993 424.243C509.286 424.35 513.173 426.962 514.428 431.336C515.771 436.016 516.086 440.951 511.313 444.769Z" fill="#46A2D2"/>
<path d="M695.986 388.746C695.164 389.077 694.34 389.222 693.515 389.222C641.651 389.219 589.788 389.204 537.46 389.113C537.465 388.481 537.937 387.441 538.402 387.444C561.832 387.573 585.261 387.89 608.691 387.975C637.472 388.079 666.254 387.996 695.5 387.99C695.971 388.154 695.977 388.323 695.986 388.746Z" fill="#2A579E"/>
<path d="M619.248 342.001C635.739 341.582 652.383 341.487 669.474 341.519C668.967 342.099 668.017 342.938 667.061 342.943C651.773 343.02 636.484 342.999 621.195 342.958C620.596 342.957 619.999 342.544 619.248 342.001Z" fill="#265295"/>
<path d="M470.996 446.004C481.461 446.006 491.926 446.065 502.39 445.966C504.679 445.944 506.963 445.357 509.673 445.041C508.086 446.006 506.09 447.753 504.064 447.789C490.467 448.031 476.864 447.923 463.263 447.864C462.533 447.861 461.805 447.278 460.979 446.55C460.882 446.135 461.005 445.996 461.408 445.998C463.543 445.675 465.274 445.351 467.211 444.98C467.416 444.934 467.836 444.91 468.149 445.047C469.306 445.458 470.151 445.731 470.996 446.004Z" fill="#46A2D2"/>
<path d="M537.261 448.244C556.691 447.868 576.409 447.801 596.598 447.801C595.864 448.244 594.659 448.944 593.451 448.949C575.458 449.017 557.464 448.998 539.47 448.973C538.83 448.972 538.19 448.699 537.261 448.244Z" fill="#275396"/>
<path d="M689.183 448.175C690.985 447.819 693.038 447.771 695.524 447.787C695.793 448.158 695.629 448.463 695.235 448.9C693.149 448.849 691.292 448.666 689.183 448.175Z" fill="#275396"/>
<path d="M536.139 445.351C536.37 445.55 536.528 446.068 536.529 446.752C536.27 446.502 536.168 446.086 536.139 445.351Z" fill="#9FDEEE"/>
<path d="M458.355 446.02C458.484 445.655 458.944 445.352 459.703 445.318C460.012 445.779 460.02 445.97 460.029 446.162C459.582 446.135 459.134 446.108 458.355 446.02Z" fill="#40ABD6"/>
<path d="M460.214 446.185C460.02 445.97 460.012 445.779 459.993 445.3C459.984 445.013 460.076 444.899 460.331 444.882C460.586 444.864 461.001 444.973 461.002 445.228C461.003 445.655 461.004 445.825 461.005 445.996C461.005 445.996 460.882 446.135 460.822 446.211C460.763 446.288 460.399 446.208 460.214 446.185Z" fill="#46A2D2"/>
<path d="M536.418 393.04C536.648 393.124 536.769 393.478 536.616 393.864C536.332 393.7 536.32 393.506 536.418 393.04Z" fill="#A9E4FE"/>
<path d="M536.201 390.268C536.576 390.215 536.73 390.461 536.683 390.999C536.239 391.111 536.072 390.869 536.201 390.268Z" fill="#9FDEEE"/>
<path d="M513.995 312.986C513.965 319.583 516.355 320.906 525.844 319.546C531.023 318.804 532.312 320.097 531.437 325.971C521.021 325.971 510.485 325.971 499.405 325.588C495.979 324.47 493.114 323.661 490.212 323.025C488.225 322.59 486.186 322.397 482.732 321.881C489.196 316.92 486.385 312.138 484.905 308.303C482.368 301.729 478.478 295.74 479.918 288.128C480.401 285.572 479.695 282.791 479.466 279.004C479.865 278.244 480.949 276.181 482.032 274.118C490.154 274.211 498.276 274.304 506.639 275.045C505.955 276.277 505.097 277.046 504.092 277.412C499.081 279.241 498.598 281.407 502.221 285.198C503.136 286.155 503.538 287.66 504.011 288.973C506.953 297.139 507.063 306.478 513.995 312.986Z" fill="#265295"/>
<path d="M481.565 274.082C480.949 276.181 479.865 278.244 479.466 279.004C479.695 282.791 480.401 285.572 479.918 288.128C478.478 295.74 482.368 301.729 484.905 308.303C486.385 312.138 489.196 316.92 482.732 321.881C486.186 322.397 488.225 322.59 490.212 323.025C493.114 323.661 495.979 324.47 498.937 325.574C489.325 325.954 479.637 325.965 469.417 325.623C466.591 323.183 464.297 321.095 462.002 319.008C462.018 316.61 462.034 314.211 462.398 311.345C464.628 309.189 464.749 307.827 462.028 306.99C461.276 306.98 460.523 306.97 459.35 306.603C455.112 302.849 452.401 299.269 456.971 294.47C457.054 294.383 456.982 294.148 456.983 293.982C456.983 293.982 457 294 457.328 293.949C457.436 292.933 457.216 291.967 456.996 291.002C456.756 289.886 456.516 288.769 456.085 286.986C454.593 284.543 453.293 282.766 451.992 280.99C451.698 276.717 453.256 274.805 457.964 274.874C465.67 274.987 473.386 274.36 481.565 274.082Z" fill="#45A46B"/>
<path d="M532.001 277.999C531.802 280.954 533.729 281.038 535.909 281.022C543.057 280.971 550.215 280.817 557.348 281.144C558.915 281.216 561.418 282.88 561.72 284.212C562.502 287.658 559.458 286.962 557.429 287.05C549.99 287.371 542.539 287.532 535.117 288.078C533.754 288.178 532.502 289.792 531.199 290.707C532.665 291.788 534.089 293.726 535.607 293.802C542.406 294.146 549.24 294.159 556.045 293.886C559.932 293.73 561.433 294.868 561.145 298.912C560.9 302.349 561.738 305.866 561.46 309.295C561.354 310.604 559.575 312.704 558.387 312.83C554.278 313.265 550.093 312.99 545.374 312.578C540.114 310.761 535.417 309.343 530.994 312.928C530.554 312.937 530.114 312.945 529.34 312.521C528.75 308.259 531.62 303.486 525.592 301.337C525.025 301.134 525.358 298.85 524.968 297.629C523.122 291.848 526.702 283.992 518.528 280.59C518.401 280.537 518.484 279.984 518.466 279.622C522.608 276.041 527.256 276.625 532.001 277.999Z" fill="#2C5AA6"/>
<path d="M532.002 277.577C527.256 276.625 522.608 276.041 518.466 279.622C518.484 279.984 518.401 280.537 518.528 280.59C526.702 283.992 523.122 291.848 524.968 297.629C525.358 298.85 525.025 301.134 525.592 301.337C531.62 303.486 528.75 308.259 529.01 312.502C524.319 312.942 519.623 312.968 514.461 312.99C507.063 306.478 506.953 297.139 504.011 288.973C503.538 287.66 503.136 286.155 502.221 285.198C498.598 281.407 499.081 279.241 504.092 277.412C505.097 277.046 505.955 276.277 506.946 275.327C513.97 274.954 520.931 274.829 527.882 275.043C529.276 275.086 530.63 276.418 532.002 277.577Z" fill="#2A579E"/>
<path d="M476.026 345.084C488.384 345.072 500.742 345.059 513.56 345.45C514.697 347.846 515.374 349.84 516.052 351.834C512.268 351.834 508.483 351.834 504.554 351.834C504.182 354.117 503.924 355.704 503.628 357.519C502.181 357.868 500.79 358.203 499.981 358.398C498.99 360.813 498.714 363.297 497.328 364.462C494.926 366.48 491.78 364.501 490.956 361.175C490.669 360.017 489.546 359.066 488.365 357.649C486.805 356.224 485.815 354.482 484.54 354.239C479.471 353.275 476.399 350.234 476.026 345.084Z" fill="#254F8E"/>
<path d="M516.466 351.872C515.374 349.84 514.697 347.846 514.03 345.482C524.78 345.111 535.52 345.111 546.5 345.111C546.861 348.755 546.879 352.286 551.547 352.525C552.023 352.549 553.035 355.02 552.652 355.77C552.124 356.803 550.518 357.868 549.349 357.897C541.889 358.077 534.421 357.977 526.441 357.61C524.671 356.483 523.415 355.714 522.16 354.946C522.164 350.867 519.044 352.218 516.466 351.872Z" fill="#2A9E49"/>
<path d="M475.558 345.058C476.399 350.234 479.471 353.275 484.541 354.239C485.815 354.482 486.805 356.224 487.966 357.629C486.55 358.079 485.094 358.176 483.427 358.288C483.141 360.129 482.893 361.72 482.544 363.96C476.746 363.96 470.983 364.081 465.237 363.82C464.447 363.784 463.175 361.887 463.103 360.787C462.841 356.816 463.153 352.809 462.944 348.831C462.775 345.618 464.248 344.795 467.116 344.975C469.765 345.141 472.432 345.024 475.558 345.058Z" fill="#214B85"/>
<path d="M530.004 332.04C539.473 332.037 548.443 332.065 557.413 332.013C560.029 331.999 562.554 332.478 561.751 335.66C561.404 337.037 558.988 338.806 557.483 338.834C544.198 339.076 530.908 338.944 517.619 338.98C515.005 338.988 512.476 338.525 513.266 335.344C513.606 333.976 515.968 332.383 517.562 332.199C521.497 331.744 525.518 332.044 530.004 332.04Z" fill="#2A579E"/>
<path d="M474.092 338.991C470.979 338.786 468.269 338.893 465.761 338.233C464.643 337.938 463.125 335.999 463.252 334.99C463.39 333.893 465.207 332.189 466.326 332.162C475.594 331.933 484.87 332.032 494.018 332.032C495.703 337.992 495.043 338.958 489.526 338.997C484.543 339.032 479.56 338.996 474.092 338.991Z" fill="#214B85"/>
<path d="M519.175 368.79C518.525 364.602 521.518 364.247 523.808 364.171C531.232 363.926 538.67 364.079 545.988 364.079C547.891 370.47 547.536 370.976 541.414 370.987C535.614 370.997 529.81 371.113 524.018 370.903C522.414 370.846 520.846 369.796 519.175 368.79Z" fill="#265295"/>
<path d="M424.101 281.001C421.055 280.381 416.484 282.978 417.154 277.238C417.29 276.073 418.994 274.261 420.081 274.18C424.698 273.837 429.39 273.717 433.978 274.217C435.435 274.375 437.477 276.533 437.813 278.087C438.539 281.45 435.628 280.971 433.537 280.994C430.553 281.027 427.568 281.001 424.101 281.001Z" fill="#1D4475"/>
<path d="M422.076 306.005C420.612 305.996 419.483 306.279 418.648 305.905C417.65 305.458 416.249 304.475 416.217 303.678C416.181 302.758 417.393 301.016 418.161 300.96C424.088 300.524 430.042 300.277 435.98 300.381C436.659 300.393 437.988 303.078 437.744 304.26C437.518 305.352 435.589 306.838 434.399 306.849C430.449 306.884 426.494 306.332 422.076 306.005Z" fill="#1D4475"/>
<path d="M433.742 332.006C437.349 331.875 438.601 333.847 437.796 336.396C437.422 337.581 435.155 338.701 433.632 338.88C430.427 339.256 427.13 339.184 423.902 338.913C422.183 338.769 420.445 337.991 418.888 337.17C418.173 336.794 417.283 335.3 417.511 334.888C417.969 334.059 419.093 333.204 420.026 333.098C424.433 332.597 428.868 332.345 433.742 332.006Z" fill="#1D7521"/>
<path d="M461.563 319.006C464.297 321.095 466.591 323.183 468.949 325.615C463.247 325.974 457.482 325.964 451.716 326.011C449.214 326.031 446.623 325.762 447.232 322.523C447.432 321.457 449.837 320.387 451.385 320.081C454.578 319.45 457.872 319.332 461.563 319.006Z" fill="#204980"/>
<path d="M456.526 293.985C456.982 294.148 457.054 294.383 456.971 294.47C452.401 299.269 455.112 302.849 458.974 306.592C455.264 306.567 451.509 306.198 447.863 305.839C445.037 295.423 446.043 294.019 456.526 293.985Z" fill="#204980"/>
<path d="M510.078 364.025C511.784 364.119 513.066 364.216 514.614 364.333C514.27 366.523 513.972 368.422 513.612 370.722C510.27 370.258 505.885 373.425 504.272 368.425C502.934 364.276 507.101 364.637 510.078 364.025Z" fill="#224D8A"/>
<path d="M451.567 280.991C453.293 282.766 454.593 284.543 455.941 286.669C454.342 287.014 452.581 287.375 451.082 286.903C449.589 286.434 447.506 285.357 447.18 284.145C446.328 280.97 448.876 280.91 451.567 280.991Z" fill="#204980"/>
<path d="M531.459 312.959C535.417 309.343 540.114 310.761 544.908 312.559C540.644 312.962 536.283 312.976 531.459 312.959Z" fill="#2A579E"/>
<path d="M522.148 355.308C523.415 355.714 524.671 356.483 525.974 357.595C524.727 357.183 523.432 356.427 522.148 355.308Z" fill="#254F8E"/>
<path d="M462.021 307.393C464.749 307.827 464.628 309.189 462.41 310.948C462.053 309.944 462.033 308.87 462.021 307.393Z" fill="#204980"/>
<path d="M456.992 291.375C457.216 291.967 457.436 292.933 457.319 293.941C456.984 293.238 456.986 292.493 456.992 291.375Z" fill="#204980"/>
<path d="M397.168 733.3C397.382 737.568 397.596 741.836 397.699 746.511C397.015 746.896 396.44 746.874 395.278 746.603C388.841 746.14 382.991 745.924 377.142 745.709C377.077 742.368 377.012 739.028 377.328 735.269C378.112 734.792 378.514 734.733 379.381 734.766C382.322 734.741 384.8 734.625 387.623 734.613C390.383 734.189 392.796 733.66 395.538 733.141C396.3 733.201 396.734 733.251 397.168 733.3Z" fill="#EF8584"/>
<path d="M378.917 734.675C378.514 734.733 378.112 734.792 377.404 734.858C377.007 734.451 376.916 734.035 376.914 732.846C377.099 714.684 377.194 697.296 377.517 680.258C377.833 696.187 377.884 711.766 378.048 727.344C378.074 729.79 378.614 732.231 378.917 734.675Z" fill="#D0185D"/>
<path d="M377.29 679.907C377.194 697.296 377.099 714.684 376.904 732.526C376.606 729.707 376.258 726.438 376.232 723.165C376.12 708.754 376.101 694.343 375.995 679.464C376.129 678.962 376.317 678.928 376.837 679.156C377.21 679.581 377.25 679.744 377.29 679.907Z" fill="#EF8584"/>
<path d="M377.061 746.2C382.991 745.924 388.841 746.14 394.987 746.631C392.021 746.603 388.762 746.17 385.491 746.025C379.846 745.774 378.017 747.569 378 753.119C377.981 759.075 377.995 765.031 377.99 771.446C377.985 771.905 377.498 772.017 377.249 772.003C376.993 763.557 376.986 755.124 377.061 746.2Z" fill="#2E5691"/>
<path d="M546.004 397.998C547.722 397.667 549.437 397.067 551.159 397.049C560.271 396.953 569.384 397.002 578.497 397.004C585.756 397.006 586.997 398.277 586.997 405.735C586.999 415.842 586.993 425.949 586.644 436.492C580 430.94 573.702 424.952 567.559 419.111C569.061 416.584 569.903 415.17 571.153 413.068C565.07 416.074 565.14 416.001 560.533 411.55C555.771 406.948 550.853 402.509 546.004 397.998Z" fill="#85D0FB"/>
<path d="M582.988 439.979C573.191 439.985 563.377 439.636 553.606 440.137C548.319 440.409 545.741 438.125 544.295 433.184C544.34 431.754 544.174 430.876 544.008 429.997C544.007 423.978 544.007 417.959 544.231 411.325C544.308 410.139 544.159 409.567 544.01 408.996C544.012 406.629 544.014 404.261 544.379 401.455C550.106 405.79 555.424 410.618 560.854 415.316C563.561 417.658 563.239 419.577 560.736 421.835C558.674 423.695 556.911 425.885 555.016 427.929C555.395 428.287 555.774 428.646 556.153 429.005C558.355 426.919 560.634 424.908 562.735 422.725C564.615 420.772 566.241 420.618 568.179 422.648C571.254 425.87 574.621 428.826 577.552 432.168C579.63 434.538 581.194 437.359 582.988 439.979Z" fill="#85D0FB"/>
<path d="M650 409.007C666.786 409.005 683.071 409.002 699.356 409.004C701.668 409.004 704.172 408.529 704.038 412.29C703.922 415.544 702.051 416.017 699.413 416.013C677.477 415.981 655.541 416.084 633.609 415.836C631.779 415.815 629.974 413.522 628.158 412.284C629.955 411.191 631.687 409.309 633.56 409.156C638.843 408.726 644.183 409.006 650 409.007Z" fill="#87D0F9"/>
<path d="M667 397.003C672.826 397.004 678.155 397.103 683.478 396.967C686.458 396.891 688.196 398.357 687.715 401.017C687.498 402.216 685.074 403.851 683.635 403.868C666.826 404.067 650.013 403.969 633.202 404.021C630.286 404.03 628.944 402.924 628.968 399.897C628.992 396.818 630.985 396.999 633.043 397.001C644.195 397.009 655.347 397.003 667 397.003Z" fill="#87D0F9"/>
<path d="M637.1 428.992C634.788 428.984 632.783 429.437 631.189 428.822C629.883 428.318 628.431 426.631 628.25 425.303C628.12 424.355 629.969 422.198 630.968 422.178C642.094 421.947 653.228 421.976 664.357 422.121C665.232 422.133 666.755 423.506 666.797 424.308C666.861 425.513 666.195 427.426 665.277 427.868C663.571 428.689 661.462 428.918 659.514 428.948C652.205 429.06 644.894 428.992 637.1 428.992Z" fill="#87D0F9"/>
<path d="M583.336 439.954C581.194 437.359 579.63 434.538 577.552 432.168C574.621 428.826 571.254 425.87 568.179 422.648C566.241 420.618 564.615 420.772 562.735 422.725C560.634 424.908 558.355 426.919 556.153 429.005C555.774 428.646 555.395 428.287 555.016 427.929C556.911 425.885 558.674 423.695 560.736 421.835C563.238 419.577 563.561 417.658 560.854 415.316C555.424 410.618 550.106 405.79 544.382 401.011C544.452 400.039 544.883 399.072 545.658 398.051C550.853 402.509 555.771 406.948 560.533 411.549C565.14 416.001 565.07 416.074 571.153 413.068C569.903 415.17 569.061 416.584 567.559 419.111C573.702 424.952 580 430.94 586.64 436.96C585.883 437.971 584.783 438.95 583.336 439.954Z" fill="#91D9FB"/>
<path d="M606.06 409.005C609.207 409.007 611.927 408.694 614.513 409.145C615.795 409.369 617.935 411.312 617.759 411.931C617.33 413.447 615.899 415.642 614.66 415.79C610.554 416.279 606.353 415.915 602.192 416.014C599.253 416.084 597.948 414.882 597.978 411.871C598.009 408.771 600.044 408.994 602.081 409.004C603.247 409.01 604.412 409.005 606.06 409.005Z" fill="#87D0F9"/>
<path d="M617.933 399.068C618.273 402.606 617.012 404.126 613.743 404.023C609.78 403.898 605.811 403.956 601.845 404.004C599.132 404.037 598.032 402.77 597.975 400.077C597.914 397.159 599.632 396.957 601.828 396.987C605.959 397.043 610.097 396.879 614.219 397.078C615.465 397.138 616.668 398.092 617.933 399.068Z" fill="#87D0F9"/>
<path d="M601.588 428.921C600.124 427.439 599.099 426.005 598.074 424.572C599.625 423.713 601.12 422.268 602.739 422.113C606.533 421.749 610.388 422.039 614.217 421.995C617.01 421.962 617.986 423.37 618.018 426.033C618.055 429.077 616.122 429.019 614.015 429C610.019 428.964 606.022 428.977 601.588 428.921Z" fill="#87D0F9"/>
<path d="M543.756 430.18C544.174 430.876 544.34 431.754 544.258 432.817C543.842 432.122 543.673 431.243 543.756 430.18Z" fill="#91D9FB"/>
<path d="M543.783 409.142C544.159 409.567 544.308 410.139 544.233 410.857C543.858 410.432 543.707 409.86 543.783 409.142Z" fill="#91D9FB"/>
<path d="M326.071 363.491C326.749 363.479 327.493 363.808 328.379 364.437C327.726 364.435 326.931 364.134 326.071 363.491Z" fill="#A0DDEC"/>
<path d="M323.17 362.821C323.169 362.597 323.6 362.672 323.802 362.756C323.726 362.908 323.449 362.977 323.17 362.821Z" fill="#A0DDEC"/>
<path d="M333.225 316.706C333.199 317.018 332.92 317.274 332.888 317.459C332.433 318.039 332.009 318.433 331.325 318.955C330.099 316.262 328.398 313.458 328.334 310.618C328.231 306.067 328.455 301.219 329.967 297.009C331.259 293.411 335.025 295.763 337.884 295.923C340.009 296.042 342.213 294.749 344.743 294.082C343.561 295.992 342.018 297.904 340.475 299.816C340.379 299.327 340.284 298.837 340.188 298.348C337.383 298.348 333 297.275 332.113 298.579C330.442 301.038 330.235 304.904 330.456 308.113C330.65 310.925 332.265 313.638 333.225 316.706Z" fill="#313C5A"/>
<path d="M349.939 289.266C349.446 290.233 348.587 291.109 347.425 292.07C347.939 291.162 348.757 290.168 349.939 289.266Z" fill="#313C5A"/>
<path d="M330.723 319.072C330.428 320.095 329.767 321.132 328.819 322.267C329.14 321.272 329.749 320.179 330.723 319.072Z" fill="#313C5A"/>
<path d="M346.892 292.167C346.963 292.386 346.775 292.68 346.329 293.051C346.258 292.832 346.445 292.537 346.892 292.167Z" fill="#313C5A"/>
<path d="M345.872 293.151C345.939 293.361 345.752 293.65 345.313 294.022C345.247 293.813 345.433 293.522 345.872 293.151Z" fill="#313C5A"/>
<path d="M641.253 295.256C644.029 293.362 646.527 291.696 649.025 290.029C649.322 290.444 649.618 290.86 649.915 291.275C647.063 293.544 644.211 295.812 640.852 298.484C644.009 300.747 646.849 302.782 649.688 304.818C649.38 305.284 649.071 305.749 648.763 306.215C645.108 303.772 641.453 301.329 637.184 298.476C638.996 297.045 639.986 296.264 641.253 295.256Z" fill="#0B500A"/>
<path d="M658.301 308.237C657.558 309.891 656.969 311.203 656.379 312.515C655.891 312.329 655.404 312.143 654.916 311.957C657.984 303.707 661.052 295.457 664.12 287.208C664.717 287.401 665.313 287.595 665.91 287.789C664.676 291.086 663.435 294.381 662.211 297.682C660.95 301.082 659.706 304.489 658.301 308.237Z" fill="#3F9E2E"/>
<path d="M679.676 298.028C676.963 295.707 674.299 293.728 671.636 291.75C671.963 291.294 672.29 290.838 672.618 290.382C676.047 292.731 679.475 295.081 683.805 298.048C679.842 300.998 676.448 303.525 673.054 306.051C672.741 305.685 672.428 305.32 672.115 304.955C674.652 302.76 677.19 300.565 679.676 298.028Z" fill="#0B500A"/>
<path d="M429.719 711.363C429.719 711.363 429.678 711.184 429.713 711.1C431.734 705.491 433.775 699.987 435.694 694.44C438.805 685.445 440.398 676.111 442.224 666.792C444.02 657.627 447.106 648.717 449.578 639.682C450.75 635.399 451.757 631.072 452.947 626.794C453.406 625.14 454.163 623.569 456.001 621.941C456.945 624.406 457.889 626.87 459.356 630.696C464.743 627.576 469.8 624.647 475.328 621.364C483.494 620.539 491.755 615.026 493.349 608.846C486.034 611.3 479 613.661 471.966 616.021C470.819 616.148 469.421 615.896 468.566 616.463C463.543 619.798 459.002 619.837 453.788 616.306C451.803 614.962 448.144 616.087 444.896 614.985C449.276 613.492 453.659 612.009 458.031 610.493C458.493 610.333 458.924 610.028 459.314 609.721C462.191 607.453 465.252 605.369 467.849 602.815C469.577 601.116 471.137 598.906 471.904 596.632C475.021 587.384 471.942 578.219 470.848 569.079C470.418 565.483 468.603 562.053 466.899 557.007C480.608 562.341 492.933 567.137 505.614 571.987C506.401 572.37 506.832 572.7 507.528 573.115C508.316 574.667 506.494 577.664 510.621 577.02C511.96 578.902 512.829 580.849 513.972 582.62C518.474 589.593 517.792 597.192 517.827 605.056C517.857 611.774 515.778 617.594 513.976 623.671C513.783 624.321 512.468 624.638 512.765 625.198C511.347 629.535 510.101 633.938 508.473 638.194C505.132 646.931 501.57 655.584 498.128 664.282C493.758 675.321 489.415 686.369 485.065 697.415C484.043 700.01 483.04 702.612 481.772 705.868C481.099 704.793 480.707 704.167 479.553 702.321C480.241 712.783 477.697 720.531 469.123 725.636C463.109 727.823 457.273 729.722 451.278 731.96C450.596 732.518 450.073 732.737 449.105 732.729C448.11 732.699 447.56 732.895 447.011 733.09C447.011 733.09 446.622 733.171 446.003 733.105C443.598 733.568 441.811 734.097 440.024 734.627C439.562 734.71 439.099 734.793 438.049 734.627C435.978 734.741 434.495 735.104 433.013 735.467C431.953 735.59 430.894 735.713 429.336 735.452C427.397 734.484 425.957 733.901 424.245 733.207C425.898 728.374 427.751 723.552 429.15 718.603C429.796 716.319 429.557 713.784 429.719 711.363Z" fill="#FC6A02"/>
<path d="M471.973 616.401C479 613.661 486.034 611.3 493.349 608.846C491.755 615.026 483.494 620.539 475.384 621.02C473.973 619.613 472.977 618.197 471.973 616.401Z" fill="#D9014E"/>
<path d="M429.462 711.657C429.557 713.784 429.796 716.319 429.15 718.603C427.751 723.552 425.898 728.374 424.245 733.207C425.957 733.901 427.397 734.484 428.935 735.4C426.917 735.826 424.8 735.92 422.227 735.991C424.249 727.962 426.726 719.957 429.462 711.657Z" fill="#E1185F"/>
<path d="M440.38 734.715C441.811 734.097 443.598 733.568 445.806 733.087C444.396 733.692 442.567 734.247 440.38 734.715Z" fill="#E1185F"/>
<path d="M433.355 735.572C434.495 735.104 435.978 734.741 437.696 734.613C436.52 735.125 435.108 735.401 433.355 735.572Z" fill="#E1185F"/>
<path d="M447.338 733.102C447.56 732.895 448.11 732.699 448.81 732.719C448.528 732.995 448.097 733.055 447.338 733.102Z" fill="#E1185F"/>
<path d="M545.985 495.433C546.689 496.23 547.312 497.362 547.867 498.856C547.158 498.72 546.517 498.224 545.748 497.418C545.715 496.662 545.81 496.215 545.985 495.433Z" fill="#244C88"/>
<path d="M547.875 499.483C548.857 500.231 549.888 501.3 550.928 502.73C549.933 501.995 548.928 500.9 547.875 499.483Z" fill="#244C88"/>
<path d="M550.911 503.392C551.535 503.647 552.174 504.256 552.867 505.212C552.257 504.955 551.592 504.351 550.911 503.392Z" fill="#244C88"/>
<path d="M377.517 680.258C377.25 679.744 377.21 679.581 377.123 679.17C377.049 674.39 374.487 677.309 372.536 678.004C372.31 676.649 372.028 675.742 372.026 674.834C371.997 661.366 372.104 647.897 371.938 634.432C371.894 630.941 373.126 630.246 376.467 629.793C382.156 629.021 386.088 632.665 390.815 634.24C391.361 634.421 391.858 635.492 391.944 636.203C393.345 647.828 394.633 659.466 396.053 671.088C396.446 674.31 397.188 677.49 398.093 680.798C398.549 681.384 398.684 681.863 398.536 683.039C398.248 687.886 397.926 692.063 398.298 696.177C399.385 708.181 400.749 720.16 402.004 732.148C401.56 732.335 401.117 732.523 400.087 732.498C398.678 732.562 397.856 732.838 397.034 733.114C397.034 733.114 397.174 733.155 397.171 733.227C396.734 733.251 396.3 733.201 395.116 733.103C392.002 733.539 389.64 734.024 387.278 734.509C384.8 734.625 382.322 734.741 379.381 734.766C378.614 732.231 378.074 729.79 378.048 727.344C377.884 711.766 377.833 696.187 377.517 680.258Z" fill="#FC6A02"/>
<path d="M402.33 732.212C400.749 720.16 399.385 708.181 398.298 696.177C397.926 692.063 398.248 687.886 398.489 683.412C400.587 698.254 402.494 713.416 404.222 728.599C404.353 729.75 403.208 731.047 402.33 732.212Z" fill="#D0185D"/>
<path d="M397.406 733.133C397.856 732.838 398.678 732.562 399.721 732.486C399.221 732.842 398.5 732.997 397.406 733.133Z" fill="#D0185D"/>
<path d="M262.059 396.751C261.945 396.303 262.147 395.734 262.57 394.955C262.653 395.373 262.514 396.002 262.059 396.751Z" fill="#A0DDEC"/>
<path d="M542.518 521.358C541.802 521.589 540.722 521.707 539.402 521.681C540.16 521.44 541.157 521.342 542.518 521.358Z" fill="#A0DDEC"/>
<path d="M494.276 398.672C497.666 392.511 500.685 390.293 505.269 392.326C508.081 393.574 511.015 396.978 511.748 399.944C513.06 405.252 508.366 409.825 502.809 409.973C497.698 410.109 493.975 405.412 494.276 398.672Z" fill="#4CAF50"/>
<path d="M461.001 444.973C461.001 444.973 460.586 444.864 460.376 444.824C458.469 441.747 455.416 438.74 455.348 435.666C455.188 428.469 461.948 425.377 469.629 428.701C469.976 428.807 470.389 428.999 470.713 429.39C471.791 432.182 472.545 434.582 473.3 436.983C473.229 437.44 473.157 437.897 472.822 438.884C470.984 441.246 469.41 443.078 467.836 444.91C467.836 444.91 467.416 444.934 466.782 444.962C464.432 444.984 462.717 444.978 461.001 444.973Z" fill="#9EDCED"/>
<path d="M468.149 445.047C469.41 443.078 470.984 441.246 472.83 439.231C472.424 441.136 471.747 443.222 471.033 445.657C470.151 445.731 469.306 445.458 468.149 445.047Z" fill="#40ABD6"/>
<path d="M473.626 436.896C472.545 434.582 471.791 432.182 470.938 429.422C475.133 430.337 475.567 433.162 473.626 436.896Z" fill="#40ABD6"/>
<path d="M611.075 357.074C609.564 359.193 608.052 361.312 606.373 363.667C608.477 366.02 610.698 368.503 612.92 370.987C612.573 371.353 612.226 371.719 611.879 372.085C610.313 370.623 608.87 368.988 607.139 367.756C605.872 366.853 604.227 366.48 602.364 365.919C601.977 365.968 601.774 365.746 601.774 365.746C600.82 363.47 599.867 361.195 598.936 358.476C598.959 358.033 599.158 357.826 599.158 357.826C600.847 359.009 602.535 360.193 604.476 361.552C606.297 360.094 608.253 358.527 610.596 356.972C610.982 356.984 611.075 357.074 611.075 357.074Z" fill="#7BDEF9"/>
<path d="M602.083 366.074C600.55 368.164 598.911 370.149 597.271 372.133C596.795 371.687 596.318 371.241 595.842 370.794C597.607 369.177 599.372 367.56 601.456 365.845C601.774 365.746 601.977 365.968 602.083 366.074Z" fill="#7BDEF9"/>
<path d="M597.779 357.232C597.295 356.761 596.812 356.29 596.328 355.818C596.888 355.977 597.447 356.135 597.987 356.667C597.967 357.041 597.779 357.232 597.779 357.232Z" fill="#7BDEF9"/>
<path d="M610.936 356.939C611.152 356.388 611.391 355.866 611.709 355.397C611.747 355.34 612.208 355.57 612.473 355.667C612.195 356.098 611.917 356.53 611.357 357.018C611.075 357.074 610.982 356.984 610.936 356.939Z" fill="#7BDEF9"/>
<path d="M598.857 358.134C598.473 358.082 598.232 357.881 597.906 357.431C597.779 357.232 597.967 357.041 598.065 356.946C598.454 356.987 598.7 357.18 599.03 357.628C599.158 357.826 598.959 358.033 598.857 358.134Z" fill="#7BDEF9"/>
<path d="M461.002 445.228C462.717 444.978 464.432 444.984 466.577 445.008C465.274 445.351 463.543 445.675 461.408 445.998C461.004 445.825 461.003 445.655 461.002 445.228Z" fill="#40ABD6"/>
<path d="M387.623 734.613C389.64 734.024 392.002 733.539 394.787 733.093C392.796 733.66 390.383 734.189 387.623 734.613Z" fill="#D0185D"/>
</g>
<path opacity="0.3" d="M820.13 51.2672H739.328V81.3588H820.13V51.2672Z" fill="#4CAF50"/>
<path opacity="0.3" d="M954.427 0H873.626V30.0916H954.427V0Z" fill="#4CAF50"/>
<path opacity="0.3" d="M960 93.061H879.198V123.153H960V93.061Z" fill="#28E130" fill-opacity="0.81"/>
<path opacity="0.3" d="M701.435 127.611H620.634V157.702H701.435V127.611Z" fill="#4CAF50"/>
<path d="M873.626 14.856L820.13 65.616L879.198 108.107" stroke="#CCCAE9" stroke-miterlimit="10"/>
<path d="M739.328 65.6164L661.034 127.611" stroke="#CCCAE9" stroke-miterlimit="10"/>
<path d="M415 139.107H506.634" stroke="#CCCAE9" stroke-miterlimit="10"/>
<path d="M560.5 123.706H465.5V153.706H560.5V123.706Z" fill="#4CAF50"/>
<path d="M560.623 138.706H620.634" stroke="#CCCAE9" stroke-miterlimit="10"/>
<path opacity="0.3" d="M225 85H144V116H225V85Z" fill="#4CAF50"/>
<path opacity="0.3" d="M359 34H279V64H359V34Z" fill="#4CAF50"/>
<path opacity="0.3" d="M365 127H284V158H365V127Z" fill="#4CAF50"/>
<path opacity="0.3" d="M106 162H26V192H106V162Z" fill="#4CAF50"/>
<path opacity="0.3" d="M81 286H0V316H81V286Z" fill="#4CAF50"/>
<path opacity="0.3" d="M203 283H122V314H203V283Z" fill="#4CAF50"/>
<path d="M278.434 49L225 99.6234L284 142" stroke="#CCCAE9" stroke-miterlimit="10"/>
<path d="M144 100L66 162" stroke="#B1AFD3" stroke-miterlimit="10"/>
<path d="M40 286L65.625 192L162 283.225" stroke="#D2CFEC" stroke-miterlimit="10"/>
<path d="M415 142L359 49" stroke="#CCCAE9" stroke-miterlimit="10"/>
<defs>
<clipPath id="clip0_15_1745">
<rect width="564" height="644" fill="white" transform="translate(178 220)"/>
</clipPath>
</defs>
</svg>
