<?xml version="1.0" encoding="UTF-8"?>
<svg version="1.1" xmlns="http://www.w3.org/2000/svg" width="204" height="192">
<path d="M0 0 C67.32 0 134.64 0 204 0 C204 63.36 204 126.72 204 192 C136.68 192 69.36 192 0 192 C0 128.64 0 65.28 0 0 Z " fill="#F6F6F6" transform="translate(0,0)"/>
<path d="M0 0 C18.81 0 37.62 0 57 0 C57 44.55 57 89.1 57 135 C56.01 135.33 55.02 135.66 54 136 C52.57142881 137.40105576 52.57142881 137.40105576 51.3125 139.0625 C50.549375 140.031875 49.78625 141.00125 49 142 C48.67 141.34 48.34 140.68 48 140 C47.01 140.33 46.02 140.66 45 141 C44.67 142.65 44.34 144.3 44 146 C43.67 145.34 43.34 144.68 43 144 C41.68 144 40.36 144 39 144 C38.67 145.65 38.34 147.3 38 149 C37.01 149.33 36.02 149.66 35 150 C34.67 150.99 34.34 151.98 34 153 C32.35 152.67 30.7 152.34 29 152 C29 151.01 29 150.02 29 149 C27.68 149 26.36 149 25 149 C25 150.32 25 151.64 25 153 C23.68 153 22.36 153 21 153 C21 154.65 21 156.3 21 158 C22.32 158 23.64 158 25 158 C24.34 159.32 23.68 160.64 23 162 C21.35 162 19.7 162 18 162 C17.67 163.65 17.34 165.3 17 167 C19.31 167 21.62 167 24 167 C24.33 167.99 24.66 168.98 25 170 C24.360625 170.2475 23.72125 170.495 23.0625 170.75 C20.80696091 171.80283433 20.80696091 171.80283433 20.37109375 174.078125 C20.24863281 174.71234375 20.12617188 175.3465625 20 176 C1.46067416 177.73033708 1.46067416 177.73033708 -2 176 C-2.2165625 175.01 -2.2165625 175.01 -2.4375 174 C-2.623125 173.34 -2.80875 172.68 -3 172 C-3.99 171.67 -4.98 171.34 -6 171 C-6 169.68 -6 168.36 -6 167 C-5.01 166.67 -4.02 166.34 -3 166 C-2.26676204 163.98491642 -2.26676204 163.98491642 -2 162 C-3.65 162.33 -5.3 162.66 -7 163 C-7.33 164.32 -7.66 165.64 -8 167 C-8.99 167 -9.98 167 -11 167 C-12.4216319 170.3171411 -13.39009109 173.44219804 -14 177 C-15.65 176.67 -17.3 176.34 -19 176 C-19.33 174.68 -19.66 173.36 -20 172 C-18.35 171.67 -16.7 171.34 -15 171 C-14.67 169.35 -14.34 167.7 -14 166 C-13.01 166 -12.02 166 -11 166 C-11 164.68 -11 163.36 -11 162 C-10.01 161.67 -9.02 161.34 -8 161 C-7.67 160.01 -7.34 159.02 -7 158 C-8.32 158 -9.64 158 -11 158 C-11 158.99 -11 159.98 -11 161 C-13.31 161 -15.62 161 -18 161 C-18 161.66 -18 162.32 -18 163 C-17.34 163 -16.68 163 -16 163 C-16 163.99 -16 164.98 -16 166 C-16.99 166.33 -17.98 166.66 -19 167 C-19.33 167.99 -19.66 168.98 -20 170 C-21.11375 170.2165625 -21.11375 170.2165625 -22.25 170.4375 C-23.1575 170.623125 -24.065 170.80875 -25 171 C-26.11375 171.2165625 -26.11375 171.2165625 -27.25 171.4375 C-27.8275 171.623125 -28.405 171.80875 -29 172 C-29.33 172.66 -29.66 173.32 -30 174 C-32.3140622 174.73075648 -34.64828869 175.40138258 -37 176 C-37.33 175.01 -37.66 174.02 -38 173 C-41.34252724 172.92572162 -43.8035914 172.93453047 -47 174 C-47 173.01 -47 172.02 -47 171 C-45.68 171 -44.36 171 -43 171 C-42.67 170.01 -42.34 169.02 -42 168 C-43.98 168 -45.96 168 -48 168 C-48.0825 168.5775 -48.165 169.155 -48.25 169.75 C-49.225982 172.67794601 -50.63511223 174.05244537 -53 176 C-53.99 176 -54.98 176 -56 176 C-56 174.68 -56 173.36 -56 172 C-54.68 171.67 -53.36 171.34 -52 171 C-52 170.01 -52 169.02 -52 168 C-53.670625 167.814375 -53.670625 167.814375 -55.375 167.625 C-58.72129028 167.19476268 -62.05118009 166.70473603 -65.375 166.125 C-66.20773438 165.98320312 -67.04046875 165.84140625 -67.8984375 165.6953125 C-70 165 -70 165 -72 162 C-72.61875 161.731875 -73.2375 161.46375 -73.875 161.1875 C-77.12445641 159.3716273 -78.23532224 157.26947694 -80 154 C-80.5564579 150.84000418 -80.53794722 147.74512491 -80.49609375 144.54296875 C-80.49754898 143.64056961 -80.49900421 142.73817047 -80.50050354 141.8084259 C-80.49884864 139.90472172 -80.48733325 138.00100359 -80.46655273 136.09741211 C-80.437694 133.2069306 -80.44593387 130.31829702 -80.45898438 127.42773438 C-80.45274295 125.5703037 -80.44434886 123.71287877 -80.43359375 121.85546875 C-80.43652939 121.00204391 -80.43946503 120.14861908 -80.44248962 119.26933289 C-80.35142554 113.37634084 -79.16360669 108.4756879 -77 103 C-76.34 103 -75.68 103 -75 103 C-75 102.01 -75 101.02 -75 100 C-68.8674531 97.85390308 -63.20071082 97.68958166 -56.73828125 97.65625 C-55.13595894 97.6343158 -55.13595894 97.6343158 -53.50126648 97.61193848 C-48.95172752 97.54990167 -44.40205824 97.50999383 -39.85229492 97.46826172 C-36.52247886 97.43455288 -33.19295077 97.38945267 -29.86328125 97.34375 C-28.83407059 97.3384729 -27.80485992 97.3331958 -26.74446106 97.32775879 C-25.78634018 97.31434448 -24.8282193 97.30093018 -23.84106445 97.28710938 C-23.0005806 97.27981812 -22.16009674 97.27252686 -21.29414368 97.26501465 C-18.73604122 96.96950804 -17.14449145 96.42200665 -15 95 C-13.70768358 91.95800528 -13.70768358 91.95800528 -13 89 C-12.01 89 -11.02 89 -10 89 C-9.96241577 87.6070874 -9.96241577 87.6070874 -9.92407227 86.18603516 C-9.82902068 82.74564196 -9.72978293 79.30542287 -9.62768555 75.86523438 C-9.58433411 74.37537359 -9.54265916 72.88546305 -9.50268555 71.39550781 C-9.44498785 69.25570673 -9.38129245 67.11615615 -9.31640625 64.9765625 C-9.27974854 63.68830566 -9.24309082 62.40004883 -9.20532227 61.07275391 C-9 58 -9 58 -8 56 C-6.35 56 -4.7 56 -3 56 C-3 55.34 -3 54.68 -3 54 C-1.125 53.375 -1.125 53.375 1 53 C1.66 53.66 2.32 54.32 3 55 C5.06874034 55.6425235 5.06874034 55.6425235 7 56 C7.33 54.68 7.66 53.36 8 52 C6.88625 52.37125 6.88625 52.37125 5.75 52.75 C4.8425 52.8325 3.935 52.915 3 53 C0.6875 51.0625 0.6875 51.0625 -1 49 C-1 49.99 -1 50.98 -1 52 C-2.65 52.66 -4.3 53.32 -6 54 C-6 52.35 -6 50.7 -6 49 C-5.01 48.67 -4.02 48.34 -3 48 C-1.39230126 45.66883683 -0.90469404 44.57183574 -1.375 41.75 C-1.684375 40.88375 -1.684375 40.88375 -2 40 C-2.7425 39.9175 -3.485 39.835 -4.25 39.75 C-7.6751021 38.81588125 -8.94355125 37.8942612 -11 35 C-11.25 31.375 -11.25 31.375 -11 28 C-11 27.34 -11 26.68 -11 26 C-11 24.68 -11 23.36 -11 22 C-10.01 21.505 -10.01 21.505 -9 21 C-9.66 20.67 -10.32 20.34 -11 20 C-11.25 17.1875 -11.25 17.1875 -11 14 C-9.0625 12.3125 -9.0625 12.3125 -7 11 C-6.67 10.01 -6.34 9.02 -6 8 C-4.68 8 -3.36 8 -2 8 C-1.855625 6.865625 -1.71125 5.73125 -1.5625 4.5625 C-1 1 -1 1 0 0 Z M-6 22 C-6.33 23.32 -6.66 24.64 -7 26 C-5.35 26 -3.7 26 -2 26 C-2.33 24.68 -2.66 23.36 -3 22 C-3.99 22 -4.98 22 -6 22 Z " fill="#F6F6F6" transform="translate(147,0)"/>
<path d="M0 0 C2.60423592 -0.02697137 5.20819244 -0.04682489 7.8125 -0.0625 C8.55048828 -0.07087891 9.28847656 -0.07925781 10.04882812 -0.08789062 C14.66646401 -0.10878491 17.63671465 -0.1053665 21.3125 2.875 C29.74855901 11.9784889 30.94493845 21.00931033 30.72729492 32.88110352 C30.68726626 35.32678137 30.70674889 37.76711045 30.73242188 40.21289062 C30.72486921 41.783875 30.71392223 43.35484753 30.69921875 44.92578125 C30.7096949 46.00875237 30.7096949 46.00875237 30.72038269 47.11360168 C30.56179131 52.83294271 28.84598909 55.07869166 25 59 C23.9171875 60.175625 23.9171875 60.175625 22.8125 61.375 C21 63 21 63 19 63 C19 63.66 19 64.32 19 65 C15.65383108 67.23077928 14.60406041 67.24524037 10.70239258 67.22705078 C9.62149857 67.22689972 8.54060455 67.22674866 7.42695618 67.22659302 C6.26125595 67.21627045 5.09555573 67.20594788 3.89453125 67.1953125 C2.10301888 67.19106766 2.10301888 67.19106766 0.27531433 67.18673706 C-3.54572497 67.17552677 -7.36653134 67.15042037 -11.1875 67.125 C-13.77538724 67.11497131 -16.36327816 67.10584527 -18.95117188 67.09765625 C-25.30086096 67.07558465 -31.65041384 67.0420986 -38 67 C-37.67 67.99 -37.34 68.98 -37 70 C-21.16 70.495 -21.16 70.495 -5 71 C-4.95875 74.361875 -4.9175 77.72375 -4.875 81.1875 C-4.85679199 82.23832764 -4.83858398 83.28915527 -4.81982422 84.37182617 C-4.8148291 85.21205322 -4.80983398 86.05228027 -4.8046875 86.91796875 C-4.79421387 87.77156982 -4.78374023 88.6251709 -4.77294922 89.50463867 C-5.03472503 92.38163924 -5.64241977 94.44879984 -7 97 C-10.375 98.125 -10.375 98.125 -12.5859375 98.53125 C-15.01646322 98.94950106 -15.01646322 98.94950106 -17.3515625 99.78125 C-24.58530503 102.08580514 -31.59869695 102.29299586 -39.125 102.3125 C-40.13820313 102.31781738 -41.15140625 102.32313477 -42.1953125 102.32861328 C-48.5193285 102.26994321 -54.94978348 102.0143662 -61 100 C-61.33 99.34 -61.66 98.68 -62 98 C-62.7425 97.773125 -63.485 97.54625 -64.25 97.3125 C-68.10660349 95.47184833 -70.13772662 92.75010084 -72 89 C-72.67283262 85.66770744 -72.65607536 82.44125424 -72.59375 79.05078125 C-72.59379028 78.11574265 -72.59383057 77.18070404 -72.59387207 76.21733093 C-72.58853471 74.25150792 -72.57102878 72.28568416 -72.54199219 70.32006836 C-72.4999794 67.31102477 -72.50094142 64.30421064 -72.5078125 61.29492188 C-72.4973244 59.38019278 -72.48438834 57.4654752 -72.46875 55.55078125 C-72.46854858 54.65281326 -72.46834717 53.75484528 -72.46813965 52.82966614 C-72.35077511 46.64867783 -72.35077511 46.64867783 -70.59570312 43.40307617 C-69 42 -69 42 -67 42 C-66.34 40.68 -65.68 39.36 -65 38 C-63.68 38 -62.36 38 -61 38 C-61 37.34 -61 36.68 -61 36 C-45.16 36 -29.32 36 -13 36 C-13 35.34 -13 34.68 -13 34 C-11.20963542 33.0234375 -9.41927083 32.046875 -7.62890625 31.0703125 C-5.83381685 30.08589976 -5.83381685 30.08589976 -5 28 C-4.34 28 -3.68 28 -3 28 C-1.40681259 21.58191577 -0.62073804 15.53659021 -0.375 8.9375 C-0.33632812 8.07189453 -0.29765625 7.20628906 -0.2578125 6.31445312 C-0.16479519 4.20993641 -0.08137331 2.1049991 0 0 Z " fill="#FDD344" transform="translate(141,63)"/>
<path d="M0 0 C1.25490234 -0.01224609 2.50980469 -0.02449219 3.80273438 -0.03710938 C13.61707614 -0.05261386 24.39088545 0.47108991 31.890625 7.7109375 C36.12373555 12.69822292 36.49189335 16.07014535 36.55078125 22.4140625 C36.558853 23.23570892 36.56692474 24.05735535 36.57524109 24.90390015 C36.58908675 26.64733774 36.59980675 28.39080249 36.60766602 30.13427734 C36.62479911 32.78146092 36.66866941 35.42736924 36.71289062 38.07421875 C36.72302491 39.77082418 36.73153871 41.4674402 36.73828125 43.1640625 C36.75578934 43.94770172 36.77329742 44.73134094 36.79133606 45.53872681 C36.76485105 52.36219541 34.80270608 57.69729392 29.9375 62.5625 C23.92957898 66.2816892 18.32094274 66.49089476 11.4609375 66.53125 C10.52448395 66.5458728 9.5880304 66.56049561 8.62319946 66.57556152 C4.63435121 66.637593 0.64535366 66.67747093 -3.34375 66.71923828 C-6.26318505 66.75297524 -9.18229384 66.79807204 -12.1015625 66.84375 C-13.00266754 66.8490271 -13.90377258 66.8543042 -14.83218384 66.85974121 C-15.6734079 66.87315552 -16.51463196 66.88656982 -17.38134766 66.90039062 C-18.11825836 66.90768188 -18.85516907 66.91497314 -19.6144104 66.92248535 C-21.98447716 67.22546425 -23.57439957 68.10575501 -25.6875 69.1875 C-26.6775 69.1875 -27.6675 69.1875 -28.6875 69.1875 C-28.955625 69.765 -29.22375 70.3425 -29.5 70.9375 C-30.6875 73.1875 -30.6875 73.1875 -32.25 75.25 C-34.64913331 78.48361446 -34.84600721 81.39060683 -35.00390625 85.29296875 C-35.04580078 86.27587891 -35.08769531 87.25878906 -35.13085938 88.27148438 C-35.17017578 89.29564453 -35.20949219 90.31980469 -35.25 91.375 C-35.29318359 92.41076172 -35.33636719 93.44652344 -35.38085938 94.51367188 C-35.48694366 97.0714819 -35.58900146 99.62938845 -35.6875 102.1875 C-52.60733045 103.11151987 -52.60733045 103.11151987 -58.2109375 98.7421875 C-66.43821463 90.0796047 -66.86462623 78.0363257 -66.9375 66.75 C-66.958125 65.95529297 -66.97875 65.16058594 -67 64.34179688 C-67.05613103 55.71866731 -64.4504343 48.33190145 -59.6875 41.1875 C-53.00468745 34.68055093 -45.74749414 34.90841324 -36.9453125 34.9921875 C-35.26004959 34.99643234 -35.26004959 34.99643234 -33.54074097 35.00076294 C-29.96455073 35.01192697 -26.3886141 35.03702499 -22.8125 35.0625 C-20.38281613 35.07253467 -17.95312831 35.08165967 -15.5234375 35.08984375 C-9.57803898 35.11185396 -3.63278761 35.14529411 2.3125 35.1875 C2.3125 33.5375 2.3125 31.8875 2.3125 30.1875 C-8.5775 30.1875 -19.4675 30.1875 -30.6875 30.1875 C-30.790625 26.990625 -30.89375 23.79375 -31 20.5 C-31.04552002 19.50137939 -31.09104004 18.50275879 -31.13793945 17.47387695 C-31.20758581 13.0142636 -31.18535453 10.8579906 -28.45703125 7.18359375 C-26.00556173 5.41673772 -23.85249166 4.06883682 -21.0625 2.9375 C-20.30710938 2.62296875 -19.55171875 2.3084375 -18.7734375 1.984375 C-12.54337643 -0.39564833 -6.61294022 0.00334494 0 0 Z " fill="#3772A3" transform="translate(99.6875,27.8125)"/>
<path d="M0 0 C1.07770157 0.0028299 2.15540314 0.00565979 3.26576233 0.00857544 C6.68900924 0.01972057 10.11198916 0.04481494 13.53515625 0.0703125 C15.8639285 0.08034961 18.19270487 0.08947418 20.52148438 0.09765625 C26.2136319 0.11964134 31.90562499 0.15306237 37.59765625 0.1953125 C37.59765625 0.5253125 37.59765625 0.8553125 37.59765625 1.1953125 C21.75765625 1.1953125 5.91765625 1.1953125 -10.40234375 1.1953125 C-10.40234375 1.8553125 -10.40234375 2.5153125 -10.40234375 3.1953125 C-11.60890625 3.6284375 -11.60890625 3.6284375 -12.83984375 4.0703125 C-15.53499055 4.92793818 -15.53499055 4.92793818 -16.40234375 7.1953125 C-17.06234375 7.1953125 -17.72234375 7.1953125 -18.40234375 7.1953125 C-20.03507574 10.07817755 -20.6608226 12.18041304 -20.70874023 15.4855957 C-20.72472763 16.32359207 -20.74071503 17.16158844 -20.75718689 18.02497864 C-20.76254959 18.92294662 -20.76791229 19.82091461 -20.7734375 20.74609375 C-20.78246597 21.67826218 -20.79149445 22.6104306 -20.80079651 23.57084656 C-20.81529166 25.5419087 -20.82418392 27.51301888 -20.82788086 29.48413086 C-20.8397614 32.48699889 -20.88894029 35.48780082 -20.93945312 38.49023438 C-20.9489198 40.40884418 -20.95615367 42.32746656 -20.9609375 44.24609375 C-20.98046982 45.13798904 -21.00000214 46.02988434 -21.02012634 46.94880676 C-20.97468422 53.28506485 -19.63320507 56.44033598 -15.40234375 61.1953125 C-12.76448705 62.67303407 -12.76448705 62.67303407 -10.40234375 63.1953125 C-10.40234375 63.8553125 -10.40234375 64.5153125 -10.40234375 65.1953125 C14.11448623 68.11316376 14.11448623 68.11316376 37.59765625 62.1953125 C39.59725637 62.1553205 41.59812867 62.15184451 43.59765625 62.1953125 C44.34281524 58.80894941 44.76536188 55.57588147 44.9140625 52.11328125 C44.95217041 51.2730542 44.99027832 50.43282715 45.02954102 49.56713867 C45.07264404 48.51631104 45.11574707 47.4654834 45.16015625 46.3828125 C45.30453125 43.0209375 45.44890625 39.6590625 45.59765625 36.1953125 C35.03765625 36.1953125 24.47765625 36.1953125 13.59765625 36.1953125 C13.10265625 34.2153125 13.10265625 34.2153125 12.59765625 32.1953125 C13.60243767 32.1798513 13.60243767 32.1798513 14.6275177 32.16407776 C21.58649571 32.05606914 28.54534275 31.94146645 35.50415039 31.82299805 C38.10275538 31.77963112 40.7013892 31.73795735 43.30004883 31.69799805 C47.03085017 31.64033827 50.76150619 31.57663121 54.4921875 31.51171875 C55.65788773 31.49500626 56.82358795 31.47829376 58.02461243 31.46107483 C59.64595345 31.431157 59.64595345 31.431157 61.30004883 31.40063477 C62.25269119 31.38509048 63.20533356 31.3695462 64.18684387 31.35353088 C66.74156823 31.28813172 66.74156823 31.28813172 69.59765625 30.1953125 C69.59765625 29.5353125 69.59765625 28.8753125 69.59765625 28.1953125 C70.25765625 28.1953125 70.91765625 28.1953125 71.59765625 28.1953125 C71.82453125 27.6384375 72.05140625 27.0815625 72.28515625 26.5078125 C74.2785079 22.99571673 76.95885374 20.01471375 80.59765625 18.1953125 C80.20011804 19.65897592 79.77884241 21.116206 79.34765625 22.5703125 C79.115625 23.38242188 78.88359375 24.19453125 78.64453125 25.03125 C77.3608258 27.68487993 76.24246657 28.06031406 73.59765625 29.1953125 C72.91497487 30.52051753 72.24695215 31.85343432 71.59765625 33.1953125 C70.11265625 33.6903125 70.11265625 33.6903125 68.59765625 34.1953125 C68.10265625 35.1853125 68.10265625 35.1853125 67.59765625 36.1953125 C68.91765625 36.1953125 70.23765625 36.1953125 71.59765625 36.1953125 C73.96940754 33.65809019 76.03913064 31.31236372 77.59765625 28.1953125 C78.25765625 28.0509375 78.91765625 27.9065625 79.59765625 27.7578125 C80.25765625 27.5721875 80.91765625 27.3865625 81.59765625 27.1953125 C82.09265625 25.7103125 82.09265625 25.7103125 82.59765625 24.1953125 C83.58765625 24.1953125 84.57765625 24.1953125 85.59765625 24.1953125 C85.59765625 28.1953125 85.59765625 28.1953125 84.3125 29.6171875 C83.72597656 30.05546875 83.13945312 30.49375 82.53515625 30.9453125 C78.89405166 33.8256995 76.07356753 37.04078768 73.17578125 40.65625 C71.59765625 42.1953125 71.59765625 42.1953125 68.59765625 42.1953125 C67.60765625 45.1653125 67.60765625 45.1653125 66.59765625 48.1953125 C65.93765625 47.8653125 65.27765625 47.5353125 64.59765625 47.1953125 C64.26765625 48.1853125 63.93765625 49.1753125 63.59765625 50.1953125 C62.30661982 51.5696416 60.97198535 52.90427607 59.59765625 54.1953125 C58.60765625 55.1853125 58.60765625 55.1853125 57.59765625 56.1953125 C54.59765625 55.1953125 54.59765625 55.1953125 52.59765625 52.1953125 C51.93765625 51.8653125 51.27765625 51.5353125 50.59765625 51.1953125 C50.59765625 52.1853125 50.59765625 53.1753125 50.59765625 54.1953125 C51.91765625 54.8553125 53.23765625 55.5153125 54.59765625 56.1953125 C54.59765625 57.1853125 54.59765625 58.1753125 54.59765625 59.1953125 C51.44085326 60.03712663 48.87192822 60.1953125 45.59765625 60.1953125 C45.59765625 61.1853125 45.59765625 62.1753125 45.59765625 63.1953125 C43.28765625 63.1953125 40.97765625 63.1953125 38.59765625 63.1953125 C38.59765625 63.8553125 38.59765625 64.5153125 38.59765625 65.1953125 C39.25765625 65.1953125 39.91765625 65.1953125 40.59765625 65.1953125 C40.59765625 66.1853125 40.59765625 67.1753125 40.59765625 68.1953125 C39.60765625 68.5253125 38.61765625 68.8553125 37.59765625 69.1953125 C37.10265625 70.6803125 37.10265625 70.6803125 36.59765625 72.1953125 C35.48390625 72.411875 35.48390625 72.411875 34.34765625 72.6328125 C33.44015625 72.8184375 32.53265625 73.0040625 31.59765625 73.1953125 C30.48390625 73.411875 30.48390625 73.411875 29.34765625 73.6328125 C28.77015625 73.8184375 28.19265625 74.0040625 27.59765625 74.1953125 C27.26765625 74.8553125 26.93765625 75.5153125 26.59765625 76.1953125 C24.28359405 76.92606898 21.94936756 77.59669508 19.59765625 78.1953125 C19.26765625 77.2053125 18.93765625 76.2153125 18.59765625 75.1953125 C15.25512901 75.12103412 12.79406485 75.12984297 9.59765625 76.1953125 C9.59765625 75.2053125 9.59765625 74.2153125 9.59765625 73.1953125 C10.91765625 73.1953125 12.23765625 73.1953125 13.59765625 73.1953125 C14.09265625 71.7103125 14.09265625 71.7103125 14.59765625 70.1953125 C12.61765625 70.1953125 10.63765625 70.1953125 8.59765625 70.1953125 C8.51515625 70.7728125 8.43265625 71.3503125 8.34765625 71.9453125 C7.37167425 74.87325851 5.96254402 76.24775787 3.59765625 78.1953125 C2.60765625 78.1953125 1.61765625 78.1953125 0.59765625 78.1953125 C0.59765625 76.8753125 0.59765625 75.5553125 0.59765625 74.1953125 C2.57765625 73.7003125 2.57765625 73.7003125 4.59765625 73.1953125 C4.59765625 72.2053125 4.59765625 71.2153125 4.59765625 70.1953125 C2.92703125 70.0096875 2.92703125 70.0096875 1.22265625 69.8203125 C-2.12363403 69.39007518 -5.45352384 68.90004853 -8.77734375 68.3203125 C-9.61007813 68.17851562 -10.4428125 68.03671875 -11.30078125 67.890625 C-13.40234375 67.1953125 -13.40234375 67.1953125 -15.40234375 64.1953125 C-16.02109375 63.9271875 -16.63984375 63.6590625 -17.27734375 63.3828125 C-20.52680016 61.5669398 -21.63766599 59.46478944 -23.40234375 56.1953125 C-23.95880165 53.03531668 -23.94029097 49.94043741 -23.8984375 46.73828125 C-23.89989273 45.83588211 -23.90134796 44.93348297 -23.90284729 44.0037384 C-23.90119239 42.10003422 -23.889677 40.19631609 -23.86889648 38.29272461 C-23.84003775 35.4022431 -23.84827762 32.51360952 -23.86132812 29.62304688 C-23.8550867 27.7656162 -23.84669261 25.90819127 -23.8359375 24.05078125 C-23.83887314 23.19735641 -23.84180878 22.34393158 -23.84483337 21.46464539 C-23.75376929 15.57165334 -22.56595044 10.6710004 -20.40234375 5.1953125 C-19.74234375 5.1953125 -19.08234375 5.1953125 -18.40234375 5.1953125 C-18.40234375 4.2053125 -18.40234375 3.2153125 -18.40234375 2.1953125 C-12.21036609 0.00097584 -6.52933639 -0.06507718 0 0 Z " fill="#F9F9FA" transform="translate(90.40234375,97.8046875)"/>
<path d="M0 0 C1.07770157 0.0028299 2.15540314 0.00565979 3.26576233 0.00857544 C6.68900924 0.01972057 10.11198916 0.04481494 13.53515625 0.0703125 C15.8639285 0.08034961 18.19270487 0.08947418 20.52148438 0.09765625 C26.2136319 0.11964134 31.90562499 0.15306237 37.59765625 0.1953125 C37.59765625 0.5253125 37.59765625 0.8553125 37.59765625 1.1953125 C21.75765625 1.1953125 5.91765625 1.1953125 -10.40234375 1.1953125 C-10.40234375 1.8553125 -10.40234375 2.5153125 -10.40234375 3.1953125 C-11.60890625 3.6284375 -11.60890625 3.6284375 -12.83984375 4.0703125 C-15.53499055 4.92793818 -15.53499055 4.92793818 -16.40234375 7.1953125 C-17.06234375 7.1953125 -17.72234375 7.1953125 -18.40234375 7.1953125 C-20.03507574 10.07817755 -20.6608226 12.18041304 -20.70874023 15.4855957 C-20.72472763 16.32359207 -20.74071503 17.16158844 -20.75718689 18.02497864 C-20.76254959 18.92294662 -20.76791229 19.82091461 -20.7734375 20.74609375 C-20.78246597 21.67826218 -20.79149445 22.6104306 -20.80079651 23.57084656 C-20.81529166 25.5419087 -20.82418392 27.51301888 -20.82788086 29.48413086 C-20.8397614 32.48699889 -20.88894029 35.48780082 -20.93945312 38.49023438 C-20.9489198 40.40884418 -20.95615367 42.32746656 -20.9609375 44.24609375 C-20.98046982 45.13798904 -21.00000214 46.02988434 -21.02012634 46.94880676 C-20.97468422 53.28506485 -19.63320507 56.44033598 -15.40234375 61.1953125 C-12.76448705 62.67303407 -12.76448705 62.67303407 -10.40234375 63.1953125 C-10.40234375 63.8553125 -10.40234375 64.5153125 -10.40234375 65.1953125 C14.11448623 68.11316376 14.11448623 68.11316376 37.59765625 62.1953125 C39.59725637 62.1553205 41.59812867 62.15184451 43.59765625 62.1953125 C44.34281524 58.80894941 44.76536188 55.57588147 44.9140625 52.11328125 C44.95595703 51.18193359 44.99785156 50.25058594 45.04101562 49.29101562 C45.08033203 48.33130859 45.11964844 47.37160156 45.16015625 46.3828125 C45.22493164 44.91424805 45.22493164 44.91424805 45.29101562 43.41601562 C45.39667885 41.00924223 45.49877952 38.60237267 45.59765625 36.1953125 C46.25765625 36.1953125 46.91765625 36.1953125 47.59765625 36.1953125 C47.64664063 37.36449219 47.695625 38.53367188 47.74609375 39.73828125 C47.82115796 41.28648054 47.8967042 42.83465651 47.97265625 44.3828125 C48.00359375 45.15173828 48.03453125 45.92066406 48.06640625 46.71289062 C48.28381736 50.93428961 48.69508697 54.33603578 50.59765625 58.1953125 C49.60765625 59.1853125 49.60765625 59.1853125 48.59765625 60.1953125 C47.60765625 60.1953125 46.61765625 60.1953125 45.59765625 60.1953125 C45.59765625 61.1853125 45.59765625 62.1753125 45.59765625 63.1953125 C43.28765625 63.1953125 40.97765625 63.1953125 38.59765625 63.1953125 C38.59765625 63.8553125 38.59765625 64.5153125 38.59765625 65.1953125 C39.25765625 65.1953125 39.91765625 65.1953125 40.59765625 65.1953125 C40.59765625 66.1853125 40.59765625 67.1753125 40.59765625 68.1953125 C39.60765625 68.5253125 38.61765625 68.8553125 37.59765625 69.1953125 C37.10265625 70.6803125 37.10265625 70.6803125 36.59765625 72.1953125 C35.48390625 72.411875 35.48390625 72.411875 34.34765625 72.6328125 C33.44015625 72.8184375 32.53265625 73.0040625 31.59765625 73.1953125 C30.48390625 73.411875 30.48390625 73.411875 29.34765625 73.6328125 C28.77015625 73.8184375 28.19265625 74.0040625 27.59765625 74.1953125 C27.26765625 74.8553125 26.93765625 75.5153125 26.59765625 76.1953125 C24.28359405 76.92606898 21.94936756 77.59669508 19.59765625 78.1953125 C19.26765625 77.2053125 18.93765625 76.2153125 18.59765625 75.1953125 C15.25512901 75.12103412 12.79406485 75.12984297 9.59765625 76.1953125 C9.59765625 75.2053125 9.59765625 74.2153125 9.59765625 73.1953125 C10.91765625 73.1953125 12.23765625 73.1953125 13.59765625 73.1953125 C14.09265625 71.7103125 14.09265625 71.7103125 14.59765625 70.1953125 C12.61765625 70.1953125 10.63765625 70.1953125 8.59765625 70.1953125 C8.51515625 70.7728125 8.43265625 71.3503125 8.34765625 71.9453125 C7.37167425 74.87325851 5.96254402 76.24775787 3.59765625 78.1953125 C2.60765625 78.1953125 1.61765625 78.1953125 0.59765625 78.1953125 C0.59765625 76.8753125 0.59765625 75.5553125 0.59765625 74.1953125 C2.57765625 73.7003125 2.57765625 73.7003125 4.59765625 73.1953125 C4.59765625 72.2053125 4.59765625 71.2153125 4.59765625 70.1953125 C2.92703125 70.0096875 2.92703125 70.0096875 1.22265625 69.8203125 C-2.12363403 69.39007518 -5.45352384 68.90004853 -8.77734375 68.3203125 C-9.61007813 68.17851562 -10.4428125 68.03671875 -11.30078125 67.890625 C-13.40234375 67.1953125 -13.40234375 67.1953125 -15.40234375 64.1953125 C-16.02109375 63.9271875 -16.63984375 63.6590625 -17.27734375 63.3828125 C-20.52680016 61.5669398 -21.63766599 59.46478944 -23.40234375 56.1953125 C-23.95880165 53.03531668 -23.94029097 49.94043741 -23.8984375 46.73828125 C-23.89989273 45.83588211 -23.90134796 44.93348297 -23.90284729 44.0037384 C-23.90119239 42.10003422 -23.889677 40.19631609 -23.86889648 38.29272461 C-23.84003775 35.4022431 -23.84827762 32.51360952 -23.86132812 29.62304688 C-23.8550867 27.7656162 -23.84669261 25.90819127 -23.8359375 24.05078125 C-23.83887314 23.19735641 -23.84180878 22.34393158 -23.84483337 21.46464539 C-23.75376929 15.57165334 -22.56595044 10.6710004 -20.40234375 5.1953125 C-19.74234375 5.1953125 -19.08234375 5.1953125 -18.40234375 5.1953125 C-18.40234375 4.2053125 -18.40234375 3.2153125 -18.40234375 2.1953125 C-12.21036609 0.00097584 -6.52933639 -0.06507718 0 0 Z " fill="#F6F5EF" transform="translate(90.40234375,97.8046875)"/>
<path d="M0 0 C0.99 0.33 1.98 0.66 3 1 C-0.34616892 3.23077928 -1.39593959 3.24524037 -5.29760742 3.22705078 C-6.37850143 3.22689972 -7.45939545 3.22674866 -8.57304382 3.22659302 C-9.73874405 3.21627045 -10.90444427 3.20594788 -12.10546875 3.1953125 C-13.89698112 3.19106766 -13.89698112 3.19106766 -15.72468567 3.18673706 C-19.54572497 3.17552677 -23.36653134 3.15042037 -27.1875 3.125 C-29.77538724 3.11497131 -32.36327816 3.10584527 -34.95117188 3.09765625 C-41.30086096 3.07558465 -47.65041384 3.0420986 -54 3 C-53.67 3.99 -53.34 4.98 -53 6 C-37.16 6.495 -37.16 6.495 -21 7 C-20.95875 10.361875 -20.9175 13.72375 -20.875 17.1875 C-20.85679199 18.23832764 -20.83858398 19.28915527 -20.81982422 20.37182617 C-20.8148291 21.21205322 -20.80983398 22.05228027 -20.8046875 22.91796875 C-20.78897705 24.19837036 -20.78897705 24.19837036 -20.77294922 25.50463867 C-21.02795806 28.30726815 -21.84458578 30.44729419 -23 33 C-24.32 32.67 -25.64 32.34 -27 32 C-26.34 31.01 -25.68 30.02 -25 29 C-24.34 29 -23.68 29 -23 29 C-23 23.06 -23 17.12 -23 11 C-25.97 11.66 -28.94 12.32 -32 13 C-32 13.66 -32 14.32 -32 15 C-29.36 15 -26.72 15 -24 15 C-24 15.66 -24 16.32 -24 17 C-25.32 17 -26.64 17 -28 17 C-27.87625 18.85625 -27.87625 18.85625 -27.75 20.75 C-27.78109017 23.67247559 -27.93284113 24.87789297 -29.375 27.5 C-33.43011056 29.81720603 -37.43580864 29.3135704 -42 29 C-42 28.01 -42 27.02 -42 26 C-42.66 26 -43.32 26 -44 26 C-45.32124352 20.89119171 -45.32124352 20.89119171 -45 18 C-43.00096668 15.49859182 -40.66398829 13.75384765 -38 12 C-43.64800112 10.1582605 -49.08507728 9.45224761 -55 9 C-55 6.69 -55 4.38 -55 2 C-53.98855675 1.9845388 -53.98855675 1.9845388 -52.9566803 1.96876526 C-45.96556418 1.86094231 -38.97458333 1.74632557 -31.98364258 1.62768555 C-29.37136656 1.58425876 -26.75906072 1.54258962 -24.14672852 1.50268555 C-20.40111281 1.44516993 -16.65564831 1.38142236 -12.91015625 1.31640625 C-11.73413345 1.29969376 -10.55811066 1.28298126 -9.34645081 1.26576233 C-8.26540573 1.24581711 -7.18436066 1.22587189 -6.07055664 1.20532227 C-5.11347305 1.18977798 -4.15638947 1.1742337 -3.17030334 1.15821838 C-1.02137306 1.2393139 -1.02137306 1.2393139 0 0 Z " fill="#F3CE58" transform="translate(157,127)"/>
<path d="M0 0 C0.33 0 0.66 0 1 0 C1 5.28 1 10.56 1 16 C12.22 16 23.44 16 35 16 C35 17.65 35 19.3 35 21 C34.3766124 21.00586624 33.75322479 21.01173248 33.11094666 21.01777649 C26.60532655 21.08185723 20.10019441 21.16631486 13.5949707 21.26245117 C11.16925502 21.29564466 8.74346314 21.32369384 6.31762695 21.34643555 C2.82470316 21.38008331 -0.66752585 21.43240631 -4.16015625 21.48828125 C-5.77930687 21.49786613 -5.77930687 21.49786613 -7.4311676 21.50764465 C-14.82764031 21.65110639 -19.88300915 22.44973476 -25.75 27.25 C-29.36096927 31.66340688 -31.1498804 36.38921065 -32 42 C-34.60334924 39.28817788 -34.99456691 38.10866187 -35.1875 34.25 C-35.0946875 32.64125 -35.0946875 32.64125 -35 31 C-34.34 31 -33.68 31 -33 31 C-33.66 29.02 -34.32 27.04 -35 25 C-34.01 24.67 -33.02 24.34 -32 24 C-31.67 23.01 -31.34 22.02 -31 21 C-29.989375 21.185625 -28.97875 21.37125 -27.9375 21.5625 C-24.02085773 21.99768247 -20.85755337 21.70853021 -17 21 C-17 20.34 -17 19.68 -17 19 C-15.68 18.67 -14.36 18.34 -13 18 C-13 17.34 -13 16.68 -13 16 C-12.1028125 15.87625 -12.1028125 15.87625 -11.1875 15.75 C-8.39901853 14.79394921 -7.72147066 13.32024306 -6 11 C-5.01 11 -4.02 11 -3 11 C-3 10.01 -3 9.02 -3 8 C-2.34 8 -1.68 8 -1 8 C-0.67 5.36 -0.34 2.72 0 0 Z " fill="#F0FAFD" transform="translate(67,42)"/>
<path d="M0 0 C1.32 0 2.64 0 4 0 C3.84080078 0.54873779 3.68160156 1.09747559 3.51757812 1.6628418 C2.93807774 4.27961404 2.80508164 6.71572462 2.71875 9.39453125 C2.68136719 10.43287109 2.64398438 11.47121094 2.60546875 12.54101562 C2.57066406 13.62060547 2.53585938 14.70019531 2.5 15.8125 C2.08037345 28.68881844 2.08037345 28.68881844 1 35 C-0.485 35.495 -0.485 35.495 -2 36 C-2.4640625 37.4540625 -2.4640625 37.4540625 -2.9375 38.9375 C-4 42 -4 42 -5.76383972 43.17247009 C-8.26178973 44.09687983 -10.18083768 44.27035422 -12.84106445 44.30297852 C-14.27824577 44.32794151 -14.27824577 44.32794151 -15.74446106 44.35340881 C-16.77367172 44.36182297 -17.80288239 44.37023712 -18.86328125 44.37890625 C-19.92862595 44.39590073 -20.99397064 44.4128952 -22.09159851 44.43040466 C-25.49850527 44.48352534 -28.90540137 44.52379663 -32.3125 44.5625 C-35.70882228 44.60655805 -39.10505451 44.65342528 -42.50126648 44.70530701 C-44.61367531 44.73702187 -46.72616238 44.76398493 -48.83869934 44.78553772 C-53.98980271 44.85735373 -58.92181209 45.11986353 -64 46 C-64 46.99 -64 47.98 -64 49 C-64.99 49.495 -64.99 49.495 -66 50 C-66.66 50.99 -67.32 51.98 -68 53 C-68.66 51.68 -69.32 50.36 -70 49 C-66.5526952 44.29912982 -63.70166792 41.73091743 -58 40 C-54.72638552 39.58936375 -51.48762675 39.58242492 -48.19140625 39.59375 C-47.26585434 39.58291382 -46.34030243 39.57207764 -45.38670349 39.56091309 C-42.44523059 39.52682217 -39.50414394 39.51109599 -36.5625 39.5 C-32.68843483 39.48536047 -28.81522103 39.45155704 -24.94140625 39.40625 C-24.0640834 39.40927124 -23.18676056 39.41229248 -22.28285217 39.41540527 C-15.60770633 39.33483535 -9.55078936 38.55078936 -4.625 33.625 C-1.76152141 28.99938073 -0.74665888 25.26195891 -0.5859375 19.82421875 C-0.54726562 18.66728516 -0.50859375 17.51035156 -0.46875 16.31835938 C-0.4378125 15.12017578 -0.406875 13.92199219 -0.375 12.6875 C-0.33632812 11.46998047 -0.29765625 10.25246094 -0.2578125 8.99804688 C-0.16371998 5.99884772 -0.07807791 2.99965177 0 0 Z " fill="#EBF7F8" transform="translate(136,54)"/>
<path d="M0 0 C0.33 0 0.66 0 1 0 C1.3125 3.25 1.3125 3.25 1 7 C-1.25 9.1875 -1.25 9.1875 -4 11 C-4.5870874 11.68030273 -5.1741748 12.36060547 -5.77905273 13.06152344 C-8.67569654 15.58975822 -10.47578939 15.61341974 -14.28515625 15.828125 C-15.52982666 15.90522705 -16.77449707 15.9823291 -18.05688477 16.06176758 C-19.39207588 16.12480817 -20.72728129 16.18754671 -22.0625 16.25 C-23.42187008 16.32901773 -24.78116459 16.40934602 -26.14038086 16.4909668 C-34.53328491 16.96778291 -42.92964335 17.21725663 -51.32641602 16.66308594 C-55.29447739 16.5087337 -56.75459918 16.79454815 -59.85546875 19.390625 C-60.56316406 20.25171875 -61.27085938 21.1128125 -62 22 C-62.7425 22.639375 -63.485 23.27875 -64.25 23.9375 C-68.73829847 29.22728034 -67.18395175 38.68574637 -67.1875 45.25 C-67.19974609 46.42691406 -67.21199219 47.60382813 -67.22460938 48.81640625 C-67.32770789 59.08026796 -67.32770789 59.08026796 -65 69 C-64.01 69.66 -63.02 70.32 -62 71 C-62 71.99 -62 72.98 -62 74 C-61.2265625 74.185625 -61.2265625 74.185625 -60.4375 74.375 C-58 75 -58 75 -55.1875 75.96875 C-49.45998132 77.61116175 -43.47800535 77.73127842 -37.5625 78.125 C-35.74975586 78.25455078 -35.74975586 78.25455078 -33.90039062 78.38671875 C-30.93399322 78.59776679 -27.9672914 78.80198957 -25 79 C-25 79.33 -25 79.66 -25 80 C-28.79159964 80.05886171 -32.58307919 80.09388224 -36.375 80.125 C-37.43589844 80.14175781 -38.49679688 80.15851563 -39.58984375 80.17578125 C-46.13375127 80.21592792 -52.74032972 80.13635525 -59 78 C-59.33 77.34 -59.66 76.68 -60 76 C-60.7425 75.773125 -61.485 75.54625 -62.25 75.3125 C-66.10660349 73.47184833 -68.13772662 70.75010084 -70 67 C-70.67283262 63.66770744 -70.65607536 60.44125424 -70.59375 57.05078125 C-70.59379028 56.11574265 -70.59383057 55.18070404 -70.59387207 54.21733093 C-70.58853471 52.25150792 -70.57102878 50.28568416 -70.54199219 48.32006836 C-70.4999794 45.31102477 -70.50094142 42.30421064 -70.5078125 39.29492188 C-70.4973244 37.38019278 -70.48438834 35.4654752 -70.46875 33.55078125 C-70.46854858 32.65281326 -70.46834717 31.75484528 -70.46813965 30.82966614 C-70.35077511 24.64867783 -70.35077511 24.64867783 -68.59570312 21.40307617 C-67 20 -67 20 -65 20 C-64.34 18.68 -63.68 17.36 -63 16 C-61.68 16 -60.36 16 -59 16 C-59 15.34 -59 14.68 -59 14 C-43.16 14 -27.32 14 -11 14 C-11 13.34 -11 12.68 -11 12 C-9.20963542 11.0234375 -7.41927083 10.046875 -5.62890625 9.0703125 C-3.83381685 8.08589976 -3.83381685 8.08589976 -3 6 C-2.34 6 -1.68 6 -1 6 C-0.67 4.02 -0.34 2.04 0 0 Z " fill="#F6DD59" transform="translate(139,85)"/>
<path d="M0 0 C1.32 0 2.64 0 4 0 C3.3405469 3.69293736 2.47070566 4.70572579 0 8 C3.3 8 6.6 8 10 8 C10.125 15.75 10.125 15.75 9 18 C7.35 18 5.7 18 4 18 C4 19.32 4 20.64 4 22 C5.04800781 22.03867187 5.04800781 22.03867187 6.1171875 22.078125 C7.02726562 22.13484375 7.93734375 22.1915625 8.875 22.25 C10.23238281 22.31960937 10.23238281 22.31960937 11.6171875 22.390625 C14 23 14 23 15.3828125 24.859375 C16 27 16 27 15 30 C13.2925002 28.71937515 11.62626404 27.38232443 10 26 C10 25.34 10 24.68 10 24 C3.73 23.67 -2.54 23.34 -9 23 C-8.88246491 28.84798282 -8.88246491 28.84798282 -8.72973633 34.69506836 C-8.67020777 40.64600388 -9.78238528 45.48721482 -12 51 C-12.66 51 -13.32 51 -14 51 C-14.33 51.99 -14.66 52.98 -15 54 C-15.66 54 -16.32 54 -17 54 C-16.67 52.35 -16.34 50.7 -16 49 C-15.01 49 -14.02 49 -13 49 C-12.96241577 47.6070874 -12.96241577 47.6070874 -12.92407227 46.18603516 C-12.82902068 42.74564196 -12.72978293 39.30542287 -12.62768555 35.86523438 C-12.58433411 34.37537359 -12.54265916 32.88546305 -12.50268555 31.39550781 C-12.44498785 29.25570673 -12.38129245 27.11615615 -12.31640625 24.9765625 C-12.26141968 23.04417725 -12.26141968 23.04417725 -12.20532227 21.07275391 C-12 18 -12 18 -11 16 C-9.35 16 -7.7 16 -6 16 C-6 15.34 -6 14.68 -6 14 C-4.125 13.375 -4.125 13.375 -2 13 C-1.34 13.66 -0.68 14.32 0 15 C2.06874034 15.6425235 2.06874034 15.6425235 4 16 C4.33 14.68 4.66 13.36 5 12 C4.2575 12.2475 3.515 12.495 2.75 12.75 C1.8425 12.8325 0.935 12.915 0 13 C-2.3125 11.0625 -2.3125 11.0625 -4 9 C-4 9.99 -4 10.98 -4 12 C-5.65 12.66 -7.3 13.32 -9 14 C-9 12.35 -9 10.7 -9 9 C-8.01 8.67 -7.02 8.34 -6 8 C-5.67 7.01 -5.34 6.02 -5 5 C-2.9375 4.3125 -2.9375 4.3125 -1 4 C-0.67 2.68 -0.34 1.36 0 0 Z " fill="#F1F3EF" transform="translate(150,40)"/>
<path d="M0 0 C0.99 0.33 1.98 0.66 3 1 C1.515 3.475 1.515 3.475 0 6 C0.69867188 6.12117188 1.39734375 6.24234375 2.1171875 6.3671875 C3.48230469 6.61855469 3.48230469 6.61855469 4.875 6.875 C5.77992187 7.03742187 6.68484375 7.19984375 7.6171875 7.3671875 C10 8 10 8 12 10 C12.33015665 13.10347254 12.50531294 15.15781176 10.875 17.875 C8.08893958 19.54663625 6.18011138 19.46376624 3 19 C1.125 17 1.125 17 0 15 C-0.33 15.99 -0.66 16.98 -1 18 C0.32 18.66 1.64 19.32 3 20 C2.67 20.66 2.34 21.32 2 22 C3.65 22.33 5.3 22.66 7 23 C7 23.66 7 24.32 7 25 C5.39620659 25.05416188 3.79188594 25.09286638 2.1875 25.125 C1.29417969 25.14820312 0.40085937 25.17140625 -0.51953125 25.1953125 C-3 25 -3 25 -6 23 C-6.51171875 19.84765625 -6.51171875 19.84765625 -6.6875 16.0625 C-6.78611328 14.19271484 -6.78611328 14.19271484 -6.88671875 12.28515625 C-7.09965035 6.11013986 -7.09965035 6.11013986 -4.625 3.375 C-2 1 -2 1 0 0 Z " fill="#3577B0" transform="translate(77,31)"/>
<path d="M0 0 C1.07770157 0.0028299 2.15540314 0.00565979 3.26576233 0.00857544 C6.68900924 0.01972057 10.11198916 0.04481494 13.53515625 0.0703125 C15.8639285 0.08034961 18.19270487 0.08947418 20.52148438 0.09765625 C26.2136319 0.11964134 31.90562499 0.15306237 37.59765625 0.1953125 C37.59765625 0.5253125 37.59765625 0.8553125 37.59765625 1.1953125 C21.75765625 1.1953125 5.91765625 1.1953125 -10.40234375 1.1953125 C-10.40234375 1.8553125 -10.40234375 2.5153125 -10.40234375 3.1953125 C-11.60890625 3.6284375 -11.60890625 3.6284375 -12.83984375 4.0703125 C-15.53499055 4.92793818 -15.53499055 4.92793818 -16.40234375 7.1953125 C-17.06234375 7.1953125 -17.72234375 7.1953125 -18.40234375 7.1953125 C-20.03507574 10.07817755 -20.6608226 12.18041304 -20.70874023 15.4855957 C-20.72472763 16.32359207 -20.74071503 17.16158844 -20.75718689 18.02497864 C-20.76254959 18.92294662 -20.76791229 19.82091461 -20.7734375 20.74609375 C-20.78246597 21.67826218 -20.79149445 22.6104306 -20.80079651 23.57084656 C-20.81529166 25.5419087 -20.82418392 27.51301888 -20.82788086 29.48413086 C-20.8397614 32.48699889 -20.88894029 35.48780082 -20.93945312 38.49023438 C-20.9489198 40.40884418 -20.95615367 42.32746656 -20.9609375 44.24609375 C-20.98046982 45.13798904 -21.00000214 46.02988434 -21.02012634 46.94880676 C-20.97468422 53.28506485 -19.63320507 56.44033598 -15.40234375 61.1953125 C-12.76448705 62.67303407 -12.76448705 62.67303407 -10.40234375 63.1953125 C-10.40234375 63.8553125 -10.40234375 64.5153125 -10.40234375 65.1953125 C-3.19890625 66.00107719 3.98156823 66.46294844 11.22265625 66.7578125 C12.22683594 66.80099609 13.23101562 66.84417969 14.265625 66.88867188 C16.70954008 66.99341109 19.15353242 67.09558506 21.59765625 67.1953125 C21.59765625 67.5253125 21.59765625 67.8553125 21.59765625 68.1953125 C13.67765625 68.6903125 13.67765625 68.6903125 5.59765625 69.1953125 C5.59765625 69.5253125 5.59765625 69.8553125 5.59765625 70.1953125 C0.75408119 69.72657943 -4.04510947 69.15782067 -8.83984375 68.3203125 C-9.66355469 68.17851562 -10.48726562 68.03671875 -11.3359375 67.890625 C-13.40234375 67.1953125 -13.40234375 67.1953125 -15.40234375 64.1953125 C-16.02109375 63.9271875 -16.63984375 63.6590625 -17.27734375 63.3828125 C-20.52680016 61.5669398 -21.63766599 59.46478944 -23.40234375 56.1953125 C-23.95880165 53.03531668 -23.94029097 49.94043741 -23.8984375 46.73828125 C-23.89989273 45.83588211 -23.90134796 44.93348297 -23.90284729 44.0037384 C-23.90119239 42.10003422 -23.889677 40.19631609 -23.86889648 38.29272461 C-23.84003775 35.4022431 -23.84827762 32.51360952 -23.86132812 29.62304688 C-23.8550867 27.7656162 -23.84669261 25.90819127 -23.8359375 24.05078125 C-23.83887314 23.19735641 -23.84180878 22.34393158 -23.84483337 21.46464539 C-23.75376929 15.57165334 -22.56595044 10.6710004 -20.40234375 5.1953125 C-19.74234375 5.1953125 -19.08234375 5.1953125 -18.40234375 5.1953125 C-18.40234375 4.2053125 -18.40234375 3.2153125 -18.40234375 2.1953125 C-12.21036609 0.00097584 -6.52933639 -0.06507718 0 0 Z " fill="#FCF5D0" transform="translate(90.40234375,97.8046875)"/>
<path d="M0 0 C0 3.93154432 -1.25327015 6.5065403 -3 10 C-3.99 10.33 -4.98 10.66 -6 11 C-6.33 11.66 -6.66 12.32 -7 13 C-7.33 13.66 -7.66 14.32 -8 15 C-8.99 15.33 -9.98 15.66 -11 16 C-11.33 16.66 -11.66 17.32 -12 18 C-11.34 18.33 -10.68 18.66 -10 19 C-12.97 19.495 -12.97 19.495 -16 20 C-16 20.99 -16 21.98 -16 23 C-16.99 23 -17.98 23 -19 23 C-19.495 20.03 -19.495 20.03 -20 17 C-24.62 16.34 -29.24 15.68 -34 15 C-34 15.99 -34 16.98 -34 18 C-44.56 18 -55.12 18 -66 18 C-66.33 16.68 -66.66 15.36 -67 14 C-66.33014572 13.98969254 -65.66029144 13.97938507 -64.97013855 13.96876526 C-58.01116054 13.86075664 -51.0523135 13.74615395 -44.09350586 13.62768555 C-41.49490087 13.58431862 -38.89626705 13.54264485 -36.29760742 13.50268555 C-32.56680608 13.44502577 -28.83615006 13.38131871 -25.10546875 13.31640625 C-23.93976852 13.29969376 -22.7740683 13.28298126 -21.57304382 13.26576233 C-19.9517028 13.2358445 -19.9517028 13.2358445 -18.29760742 13.20532227 C-16.86864388 13.18200584 -16.86864388 13.18200584 -15.41081238 13.15821838 C-12.85608802 13.09281922 -12.85608802 13.09281922 -10 12 C-10 11.34 -10 10.68 -10 10 C-9.34 10 -8.68 10 -8 10 C-7.773125 9.443125 -7.54625 8.88625 -7.3125 8.3125 C-5.63848923 5.36305245 -3.45043651 3.3247731 -1 1 C-0.67 0.67 -0.34 0.34 0 0 Z " fill="#FBF6D5" transform="translate(170,116)"/>
<path d="M0 0 C1.32 0 2.64 0 4 0 C4 2.97 4 5.94 4 9 C3.01 9.33 2.02 9.66 1 10 C0.67 12.64 0.34 15.28 0 18 C1.32 18 2.64 18 4 18 C4.33 16.68 4.66 15.36 5 14 C5.99 14 6.98 14 8 14 C8 14.99 8 15.98 8 17 C9.093125 17.103125 10.18625 17.20625 11.3125 17.3125 C15.05975155 18.01114012 15.65962741 18.31397238 18 21 C16.5773584 20.99214478 16.5773584 20.99214478 15.12597656 20.98413086 C11.59992869 20.96706655 8.07392485 20.9545389 4.54785156 20.94506836 C3.02310493 20.94004635 1.49836309 20.9332275 -0.02636719 20.92456055 C-2.22071519 20.91240151 -4.4149994 20.90675032 -6.609375 20.90234375 C-7.92905273 20.89710693 -9.24873047 20.89187012 -10.60839844 20.88647461 C-13.33768374 20.97783062 -15.40193244 21.32607378 -18 22 C-18.66 21.67 -19.32 21.34 -20 21 C-20 20.34 -20 19.68 -20 19 C-18.02 18.67 -16.04 18.34 -14 18 C-14 16.68 -14 15.36 -14 14 C-11.36 13.67 -8.72 13.34 -6 13 C-5.731875 11.700625 -5.46375 10.40125 -5.1875 9.0625 C-4.73046875 6.84765625 -4.73046875 6.84765625 -4 5 C-3.01 4.67 -2.02 4.34 -1 4 C-0.26676204 1.98491642 -0.26676204 1.98491642 0 0 Z " fill="#F6F7F5" transform="translate(100,8)"/>
<path d="M0 0 C0.16250994 2.89809389 0.28107636 5.78704851 0.375 8.6875 C0.42527344 9.50412109 0.47554687 10.32074219 0.52734375 11.16210938 C0.63668085 15.66315328 0.53242127 17.38928149 -2.5234375 20.89453125 C-4.19482422 22.015625 -4.19482422 22.015625 -6 23 C-6.57379395 23.31582031 -7.14758789 23.63164062 -7.73876953 23.95703125 C-13.77656619 26.70336256 -19.99167206 26.33930908 -26.5 26.1875 C-28.16289063 26.16719727 -28.16289063 26.16719727 -29.859375 26.14648438 C-32.57343232 26.11138881 -35.28645193 26.0622227 -38 26 C-38 25.67 -38 25.34 -38 25 C-32.72 24.67 -27.44 24.34 -22 24 C-22 23.34 -22 22.68 -22 22 C-22 20.68 -22 19.36 -22 18 C-20.77023438 18.03480469 -20.77023438 18.03480469 -19.515625 18.0703125 C-18.43796875 18.08835938 -17.3603125 18.10640625 -16.25 18.125 C-15.18265625 18.14820313 -14.1153125 18.17140625 -13.015625 18.1953125 C-10.00536348 18.00034738 -8.36158878 17.87144771 -6 16 C-5.29823412 13.58320293 -5.29823412 13.58320293 -5.25 10.875 C-5.16492188 9.50988281 -5.16492188 9.50988281 -5.078125 8.1171875 C-5.03945312 7.06917969 -5.03945312 7.06917969 -5 6 C-3.68 6 -2.36 6 -1 6 C-1 5.34 -1 4.68 -1 4 C-3.64 4.33 -6.28 4.66 -9 5 C-9 3.68 -9 2.36 -9 1 C-5.91810344 0.08684546 -3.20344581 -0.04250011 0 0 Z " fill="#F4CA45" transform="translate(134,138)"/>
<path d="M0 0 C0.96541545 3.18554592 1.05239684 5.88752707 0.87890625 9.203125 C0.83056641 10.1828125 0.78222656 11.1625 0.73242188 12.171875 C0.67634766 13.18765625 0.62027344 14.2034375 0.5625 15.25 C0.51029297 16.28125 0.45808594 17.3125 0.40429688 18.375 C0.27484366 20.91699039 0.13988672 23.45856593 0 26 C-0.66 26 -1.32 26 -2 26 C-1.67 27.32 -1.34 28.64 -1 30 C-1.61875 30.103125 -2.2375 30.20625 -2.875 30.3125 C-5.36526484 30.87525373 -5.36526484 30.87525373 -7 34 C-8.485 33.505 -8.485 33.505 -10 33 C-9.67 32.01 -9.34 31.02 -9 30 C-8.01 29.67 -7.02 29.34 -6 29 C-7.65 28.67 -9.3 28.34 -11 28 C-11 28.66 -11 29.32 -11 30 C-11.99 30 -12.98 30 -14 30 C-14 29.34 -14 28.68 -14 28 C-15.0725 28.350625 -16.145 28.70125 -17.25 29.0625 C-21.92307692 30.23076923 -21.92307692 30.23076923 -25 29 C-25 28.01 -25 27.02 -25 26 C-28.27773504 26.75150023 -28.27773504 26.75150023 -30 30 C-30.99 30 -31.98 30 -33 30 C-33 28.68 -33 27.36 -33 26 C-32.01 25.67 -31.02 25.34 -30 25 C-28.61423077 23.37667033 -27.27358732 21.71275535 -26 20 C-24.68628013 20.47581198 -23.37405454 20.95575149 -22.0625 21.4375 C-21.33160156 21.70433594 -20.60070312 21.97117187 -19.84765625 22.24609375 C-18 23 -18 23 -17 24 C-14.30764224 24.23678716 -11.63501844 24.42198025 -8.9375 24.5625 C-8.17888672 24.60568359 -7.42027344 24.64886719 -6.63867188 24.69335938 C-4.75934562 24.79973633 -2.87969756 24.90039934 -1 25 C-1.00785522 24.02389771 -1.00785522 24.02389771 -1.01586914 23.02807617 C-1.03664938 20.08122726 -1.0496635 17.13439377 -1.0625 14.1875 C-1.07087891 13.16333984 -1.07925781 12.13917969 -1.08789062 11.08398438 C-1.09272461 9.60961914 -1.09272461 9.60961914 -1.09765625 8.10546875 C-1.10551147 6.74651489 -1.10551147 6.74651489 -1.11352539 5.36010742 C-1 3 -1 3 0 0 Z " fill="#D9E6ED" transform="translate(65,105)"/>
<path d="M0 0 C0 0.66 0 1.32 0 2 C-2.70593676 2.90197892 -4.48610797 3.16453612 -7.28442383 3.26538086 C-8.14574417 3.29889145 -9.00706451 3.33240204 -9.89448547 3.3669281 C-10.82262558 3.39924026 -11.75076569 3.43155243 -12.70703125 3.46484375 C-14.67513985 3.54337861 -16.64323852 3.62216248 -18.61132812 3.70117188 C-21.7118853 3.82069783 -24.81249378 3.93749978 -27.91333008 4.04956055 C-30.90741641 4.15949872 -33.90091879 4.280264 -36.89453125 4.40234375 C-37.81659866 4.43263168 -38.73866608 4.46291962 -39.68867493 4.49412537 C-44.47627459 4.69570006 -48.50044059 5.17114084 -53 7 C-53 7.99 -53 8.98 -53 10 C-53.99 10.495 -53.99 10.495 -55 11 C-55.99 12.485 -55.99 12.485 -57 14 C-57.66 12.68 -58.32 11.36 -59 10 C-55.54968503 5.29502504 -52.70052779 2.74131401 -47 1 C-43.68252528 0.55868671 -40.39454317 0.5122374 -37.05078125 0.48828125 C-36.11574265 0.47033005 -35.18070404 0.45237885 -34.21733093 0.43388367 C-31.24909922 0.38002797 -28.28102415 0.345995 -25.3125 0.3125 C-23.30661863 0.27929809 -21.30075818 0.2448058 -19.29492188 0.20898438 C-12.8633387 0.09882471 -6.43260616 0 0 0 Z " fill="#DDECF5" transform="translate(125,93)"/>
<path d="M0 0 C2.578125 -0.020625 5.15625 -0.04125 7.8125 -0.0625 C9.02450073 -0.07615601 9.02450073 -0.07615601 10.26098633 -0.09008789 C14.81913913 -0.10781499 17.69308615 -0.05965988 21.3125 2.875 C29.74855901 11.9784889 30.94493845 21.00931033 30.72729492 32.88110352 C30.68726626 35.32678137 30.70674889 37.76711045 30.73242188 40.21289062 C30.72486921 41.783875 30.71392223 43.35484753 30.69921875 44.92578125 C30.7096949 46.00875237 30.7096949 46.00875237 30.72038269 47.11360168 C30.56312616 52.78480354 28.82108938 55.11814387 25 59 C24.67 58.34 24.34 57.68 24 57 C24.63421875 55.96875 25.2684375 54.9375 25.921875 53.875 C29.30793748 47.4292425 28.42018419 40.07548802 28.25 33 C28.22990336 31.54299331 28.21165818 30.08595985 28.1953125 28.62890625 C28.15156901 25.0853745 28.08271767 21.54286123 28 18 C27.34 17.67 26.68 17.34 26 17 C26 15.68 26 14.36 26 13 C25.34 13 24.68 13 24 13 C22.9935725 11.33720673 21.99414593 9.67016516 21 8 C20.01 7.34 19.02 6.68 18 6 C18 5.01 18 4.02 18 3 C12.83608171 1.2786939 7.40708764 1.94646448 2 2 C1.67 7.94 1.34 13.88 1 20 C0.34 20.33 -0.32 20.66 -1 21 C-0.67 14.07 -0.34 7.14 0 0 Z " fill="#F2D56A" transform="translate(141,63)"/>
<path d="M0 0 C-0.309375 0.598125 -0.61875 1.19625 -0.9375 1.8125 C-3.14420366 6.35571342 -3.1925895 10.4810869 -3.23828125 15.4296875 C-3.246353 16.257034 -3.25442474 17.08438049 -3.26274109 17.9367981 C-3.27656427 19.68684809 -3.28729432 21.43692484 -3.29516602 23.18701172 C-3.3123921 25.85826781 -3.35629394 28.52829003 -3.40039062 31.19921875 C-3.41051701 32.90103258 -3.41903328 34.60285692 -3.42578125 36.3046875 C-3.44328934 37.10067352 -3.46079742 37.89665955 -3.47883606 38.71676636 C-3.463404 42.67677516 -3.28406031 44.55470839 -1.09838867 47.98095703 C0.83445556 50.0413489 0.83445556 50.0413489 3 51 C3 51.99 3 52.98 3 54 C3.7734375 54.185625 3.7734375 54.185625 4.5625 54.375 C7 55 7 55 9.8125 55.96875 C15.54001868 57.61116175 21.52199465 57.73127842 27.4375 58.125 C28.64599609 58.21136719 29.85449219 58.29773438 31.09960938 58.38671875 C34.06600678 58.59776679 37.0327086 58.80198957 40 59 C40 59.33 40 59.66 40 60 C36.20840036 60.05886171 32.41692081 60.09388224 28.625 60.125 C27.56410156 60.14175781 26.50320312 60.15851563 25.41015625 60.17578125 C18.86624873 60.21592792 12.25967028 60.13635525 6 58 C5.67 57.34 5.34 56.68 5 56 C4.2575 55.773125 3.515 55.54625 2.75 55.3125 C-1.10660349 53.47184833 -3.13772662 50.75010084 -5 47 C-5.67283262 43.66770744 -5.65607536 40.44125424 -5.59375 37.05078125 C-5.59379028 36.11574265 -5.59383057 35.18070404 -5.59387207 34.21733093 C-5.58853471 32.25150792 -5.57102878 30.28568416 -5.54199219 28.32006836 C-5.4999794 25.31102477 -5.50094142 22.30421064 -5.5078125 19.29492188 C-5.4973244 17.38019278 -5.48438834 15.4654752 -5.46875 13.55078125 C-5.46854858 12.65281326 -5.46834717 11.75484528 -5.46813965 10.82966614 C-5.35077511 4.64867783 -5.35077511 4.64867783 -3.59570312 1.40307617 C-2 0 -2 0 0 0 Z " fill="#EED873" transform="translate(74,105)"/>
<path d="M0 0 C0.99 0.33 1.98 0.66 3 1 C-0.34616892 3.23077928 -1.39593959 3.24524037 -5.29760742 3.22705078 C-6.37850143 3.22689972 -7.45939545 3.22674866 -8.57304382 3.22659302 C-9.73874405 3.21627045 -10.90444427 3.20594788 -12.10546875 3.1953125 C-13.89698112 3.19106766 -13.89698112 3.19106766 -15.72468567 3.18673706 C-19.54572497 3.17552677 -23.36653134 3.15042037 -27.1875 3.125 C-29.77538724 3.11497131 -32.36327816 3.10584527 -34.95117188 3.09765625 C-41.30086096 3.07558465 -47.65041384 3.0420986 -54 3 C-53.67 3.99 -53.34 4.98 -53 6 C-37.16 6.495 -37.16 6.495 -21 7 C-20.95875 10.361875 -20.9175 13.72375 -20.875 17.1875 C-20.85679199 18.23832764 -20.83858398 19.28915527 -20.81982422 20.37182617 C-20.8148291 21.21205322 -20.80983398 22.05228027 -20.8046875 22.91796875 C-20.78897705 24.19837036 -20.78897705 24.19837036 -20.77294922 25.50463867 C-21.02795806 28.30726815 -21.84458578 30.44729419 -23 33 C-24.32 32.67 -25.64 32.34 -27 32 C-26.34 31.01 -25.68 30.02 -25 29 C-24.34 29 -23.68 29 -23 29 C-22.67 22.07 -22.34 15.14 -22 8 C-32.89 8 -43.78 8 -55 8 C-55 6.02 -55 4.04 -55 2 C-53.98855675 1.9845388 -53.98855675 1.9845388 -52.9566803 1.96876526 C-45.96556418 1.86094231 -38.97458333 1.74632557 -31.98364258 1.62768555 C-29.37136656 1.58425876 -26.75906072 1.54258962 -24.14672852 1.50268555 C-20.40111281 1.44516993 -16.65564831 1.38142236 -12.91015625 1.31640625 C-11.73413345 1.29969376 -10.55811066 1.28298126 -9.34645081 1.26576233 C-8.26540573 1.24581711 -7.18436066 1.22587189 -6.07055664 1.20532227 C-5.11347305 1.18977798 -4.15638947 1.1742337 -3.17030334 1.15821838 C-1.02137306 1.2393139 -1.02137306 1.2393139 0 0 Z " fill="#F4DE90" transform="translate(157,127)"/>
<path d="M0 0 C1.07770157 0.0028299 2.15540314 0.00565979 3.26576233 0.00857544 C6.68900924 0.01972057 10.11198916 0.04481494 13.53515625 0.0703125 C15.8639285 0.08034961 18.19270487 0.08947418 20.52148438 0.09765625 C26.2136319 0.11964134 31.90562499 0.15306237 37.59765625 0.1953125 C37.59765625 0.5253125 37.59765625 0.8553125 37.59765625 1.1953125 C21.75765625 1.1953125 5.91765625 1.1953125 -10.40234375 1.1953125 C-10.40234375 1.8553125 -10.40234375 2.5153125 -10.40234375 3.1953125 C-11.60890625 3.6284375 -11.60890625 3.6284375 -12.83984375 4.0703125 C-15.53499055 4.92793818 -15.53499055 4.92793818 -16.40234375 7.1953125 C-17.06234375 7.1953125 -17.72234375 7.1953125 -18.40234375 7.1953125 C-20.1282535 10.19512455 -20.64877054 12.33134449 -20.62939453 15.78027344 C-20.62924347 16.68090515 -20.62909241 17.58153687 -20.62893677 18.50946045 C-20.6186142 19.47313538 -20.60829163 20.4368103 -20.59765625 21.4296875 C-20.59482635 22.42284973 -20.59199646 23.41601196 -20.58908081 24.43927002 C-20.57789518 27.60807394 -20.55279337 30.77659415 -20.52734375 33.9453125 C-20.51731187 36.095048 -20.50818638 38.24478793 -20.5 40.39453125 C-20.47796116 45.66155496 -20.44449959 50.92841346 -20.40234375 56.1953125 C-21.06234375 55.8653125 -21.72234375 55.5353125 -22.40234375 55.1953125 C-22.45304701 48.71748191 -22.48807867 42.23970249 -22.51220703 35.76171875 C-22.52226558 33.55792325 -22.53591401 31.3541411 -22.55322266 29.15039062 C-22.57747715 25.98303941 -22.58882835 22.81586463 -22.59765625 19.6484375 C-22.60797882 18.66288879 -22.61830139 17.67734009 -22.62893677 16.66192627 C-22.62908783 15.7412738 -22.62923889 14.82062134 -22.62939453 13.87207031 C-22.63383575 13.0637677 -22.63827698 12.25546509 -22.64285278 11.42266846 C-22.37658375 8.95674899 -21.63457419 7.32988672 -20.40234375 5.1953125 C-19.74234375 5.1953125 -19.08234375 5.1953125 -18.40234375 5.1953125 C-18.40234375 4.2053125 -18.40234375 3.2153125 -18.40234375 2.1953125 C-12.21036609 0.00097584 -6.52933639 -0.06507718 0 0 Z " fill="#F8EEB0" transform="translate(90.40234375,97.8046875)"/>
<path d="M0 0 C0.33 0.66 0.66 1.32 1 2 C0.67 2.99 0.34 3.98 0 5 C-0.14777936 6.69867188 -0.24747066 8.40177489 -0.31640625 10.10546875 C-0.35830078 11.08837891 -0.40019531 12.07128906 -0.44335938 13.08398438 C-0.48267578 14.10814453 -0.52199219 15.13230469 -0.5625 16.1875 C-0.60568359 17.22326172 -0.64886719 18.25902344 -0.69335938 19.32617188 C-0.79944366 21.8839819 -0.90150146 24.44188845 -1 27 C-17.95775434 27.92609095 -17.95775434 27.92609095 -23.51953125 23.54296875 C-28.54761857 18.30261389 -29.67603247 13.14348409 -30 6 C-29.34 6 -28.68 6 -28 6 C-27.896875 6.86625 -27.79375 7.7325 -27.6875 8.625 C-26.95072908 12.24187542 -25.96219907 14.87501629 -24 18 C-21.92309422 18.96044102 -21.92309422 18.96044102 -20 19 C-20 19.66 -20 20.32 -20 21 C-19.34 21 -18.68 21 -18 21 C-18 21.99 -18 22.98 -18 24 C-12.72 24.33 -7.44 24.66 -2 25 C-2.09539063 23.85402344 -2.19078125 22.70804688 -2.2890625 21.52734375 C-2.40169318 19.99744366 -2.51363576 18.4674928 -2.625 16.9375 C-2.68945312 16.18533203 -2.75390625 15.43316406 -2.8203125 14.65820312 C-3.17019894 9.60671766 -2.72594865 5.77429682 -1 1 C-0.67 0.67 -0.34 0.34 0 0 Z " fill="#426B8B" transform="translate(65,103)"/>
<path d="M0 0 C6.46153846 0.46153846 6.46153846 0.46153846 9 3 C9.33015665 6.10347254 9.50531294 8.15781176 7.875 10.875 C5.08893958 12.54663625 3.18011138 12.46376624 0 12 C-1.9375 10.375 -1.9375 10.375 -3 8 C-2.77962372 4.32706204 -2.63033454 2.63033454 0 0 Z " fill="#D3EEF8" transform="translate(80,38)"/>
<path d="M0 0 C0.33 0 0.66 0 1 0 C0.99476318 0.83772949 0.98952637 1.67545898 0.98413086 2.53857422 C0.96709986 5.64338936 0.95455518 8.74818071 0.94506836 11.85302734 C0.93755964 13.85906551 0.9248553 15.86508202 0.91210938 17.87109375 C0.90888672 19.12792969 0.90566406 20.38476562 0.90234375 21.6796875 C0.89448853 23.42354736 0.89448853 23.42354736 0.88647461 25.20263672 C0.80643717 27.95502192 0.80643717 27.95502192 2 30 C2.06950541 31.54023996 2.08452357 33.08334988 2.0625 34.625 C2.05347656 35.44226563 2.04445313 36.25953125 2.03515625 37.1015625 C2.02355469 37.72804687 2.01195312 38.35453125 2 39 C1.34 38.01 0.68 37.02 0 36 C0.33 35.01 0.66 34.02 1 33 C0.34 33 -0.32 33 -1 33 C-1.33 33.99 -1.66 34.98 -2 36 C-2.82953643 30.15979593 -3.21192599 24.45921234 -3.25 18.5625 C-3.270625 17.76779297 -3.29125 16.97308594 -3.3125 16.15429688 C-3.35079052 10.27191598 -2.16435421 5.45740444 0 0 Z " fill="#487B9F" transform="translate(36,76)"/>
<path d="M0 0 C0.88107422 -0.00128906 1.76214844 -0.00257812 2.66992188 -0.00390625 C4.06114258 0.00189453 4.06114258 0.00189453 5.48046875 0.0078125 C6.39634766 0.00394531 7.31222656 0.00007813 8.25585938 -0.00390625 C9.58327148 -0.00197266 9.58327148 -0.00197266 10.9375 0 C11.74807861 0.00112793 12.55865723 0.00225586 13.39379883 0.00341797 C15.640884 0.13127145 17.53796091 0.40679917 19.66796875 1.1328125 C20.98046875 3.0078125 20.98046875 3.0078125 21.66796875 5.1328125 C21.33796875 6.1228125 21.00796875 7.1128125 20.66796875 8.1328125 C18.96046895 6.85218765 17.29423279 5.51513693 15.66796875 4.1328125 C15.66796875 3.4728125 15.66796875 2.8128125 15.66796875 2.1328125 C9.39796875 1.8028125 3.12796875 1.4728125 -3.33203125 1.1328125 C-3.21449616 6.98079532 -3.21449616 6.98079532 -3.06176758 12.82788086 C-3.00223902 18.77881638 -4.11441653 23.62002732 -6.33203125 29.1328125 C-6.99203125 29.1328125 -7.65203125 29.1328125 -8.33203125 29.1328125 C-8.66203125 30.1228125 -8.99203125 31.1128125 -9.33203125 32.1328125 C-9.99203125 32.1328125 -10.65203125 32.1328125 -11.33203125 32.1328125 C-11.00203125 30.4828125 -10.67203125 28.8328125 -10.33203125 27.1328125 C-9.34203125 27.1328125 -8.35203125 27.1328125 -7.33203125 27.1328125 C-6.07324639 20.80741858 -5.97003673 14.4621237 -5.7265625 8.03710938 C-5.68917969 7.16505859 -5.65179688 6.29300781 -5.61328125 5.39453125 C-5.5678418 4.20283325 -5.5678418 4.20283325 -5.52148438 2.98706055 C-5.1532513 -0.61697321 -3.1575387 0.00441217 0 0 Z " fill="#F9E8A5" transform="translate(144.33203125,61.8671875)"/>
<path d="M0 0 C0.495 1.98 0.495 1.98 1 4 C-2.62054633 6.46846249 -5.06019284 7.38019323 -9.43286133 7.43237305 C-10.49358353 7.45216721 -11.55430573 7.47196136 -12.64717102 7.49235535 C-14.34742683 7.50194023 -14.34742683 7.50194023 -16.08203125 7.51171875 C-17.25134689 7.52966995 -18.42066254 7.54762115 -19.62541199 7.56611633 C-23.35440482 7.62023057 -27.08326954 7.65411968 -30.8125 7.6875 C-33.34311679 7.72067197 -35.87371667 7.75516151 -38.40429688 7.79101562 C-44.60274972 7.87595789 -50.80121911 7.94430329 -57 8 C-53.86106887 5.90737925 -52.95117842 5.72470911 -49.3449707 5.58935547 C-48.40422195 5.54946503 -47.46347321 5.50957458 -46.49421692 5.46847534 C-44.97534126 5.41833786 -44.97534126 5.41833786 -43.42578125 5.3671875 C-42.38681198 5.32562531 -41.34784271 5.28406311 -40.27738953 5.24124146 C-36.95603059 5.11039489 -33.63435357 4.99254952 -30.3125 4.875 C-28.06181597 4.78861566 -25.81116419 4.70138662 -23.56054688 4.61328125 C-18.04070152 4.39904785 -12.52053925 4.19548916 -7 4 C-7 3.34 -7 2.68 -7 2 C-5.68 1.67 -4.36 1.34 -3 1 C-3 1.66 -3 2.32 -3 3 C-2.01 2.01 -1.02 1.02 0 0 Z " fill="#FAF5DE" transform="translate(132,91)"/>
<path d="M0 0 C5.97873264 0.90060764 5.97873264 0.90060764 7.08984375 2.01171875 C7.32713189 8.53714248 7.32713189 8.53714248 6.08984375 11.01171875 C3.11984375 11.01171875 0.14984375 11.01171875 -2.91015625 11.01171875 C-4.41677722 7.9984768 -4.08785998 5.32885498 -3.91015625 2.01171875 C-1.91015625 0.01171875 -1.91015625 0.01171875 0 0 Z " fill="#FDEFBF" transform="translate(119.91015625,142.98828125)"/>
<path d="M0 0 C1.65 0.33 3.3 0.66 5 1 C5 2.32 5 3.64 5 5 C6.97536745 4.65213292 6.97536745 4.65213292 9 4 C9.33 3.34 9.66 2.68 10 2 C11.32 2 12.64 2 14 2 C14 2.99 14 3.98 14 5 C12.68 5.33 11.36 5.66 10 6 C10 7.32 10 8.64 10 10 C7.525 9.505 7.525 9.505 5 9 C4.67 8.01 4.34 7.02 4 6 C3.34 6 2.68 6 2 6 C1.67 7.32 1.34 8.64 1 10 C-0.65 10 -2.3 10 -4 10 C-4.33 8.35 -4.66 6.7 -5 5 C-5.99 5 -6.98 5 -8 5 C-7.67 4.01 -7.34 3.02 -7 2 C-5.02 2.495 -5.02 2.495 -3 3 C-3 3.66 -3 4.32 -3 5 C-2.34 5 -1.68 5 -1 5 C-0.67 3.35 -0.34 1.7 0 0 Z " fill="#F9FAFB" transform="translate(81,166)"/>
<path d="M0 0 C0.66 0 1.32 0 2 0 C2.04898438 1.16917969 2.09796875 2.33835938 2.1484375 3.54296875 C2.22350171 5.09116804 2.29904795 6.63934401 2.375 8.1875 C2.4059375 8.95642578 2.436875 9.72535156 2.46875 10.51757812 C2.68616111 14.73897711 3.09743072 18.14072328 5 22 C4.34 22.66 3.68 23.32 3 24 C2.01 24 1.02 24 0 24 C0 24.99 0 25.98 0 27 C-2.31 27 -4.62 27 -7 27 C-7.33 27.99 -7.66 28.98 -8 30 C-9.65 30 -11.3 30 -13 30 C-13 30.66 -13 31.32 -13 32 C-15.97 31.67 -18.94 31.34 -22 31 C-22 30.67 -22 30.34 -22 30 C-21.15695313 29.79503906 -20.31390625 29.59007812 -19.4453125 29.37890625 C-18.34960938 29.10949219 -17.25390625 28.84007812 -16.125 28.5625 C-15.03445312 28.29566406 -13.94390625 28.02882812 -12.8203125 27.75390625 C-10.07515279 27.1213522 -10.07515279 27.1213522 -8 26 C-6.00039988 25.960008 -3.99952758 25.95653201 -2 26 C-1.25484101 22.61363691 -0.83229437 19.38056897 -0.68359375 15.91796875 C-0.64169922 14.98662109 -0.59980469 14.05527344 -0.55664062 13.09570312 C-0.51732422 12.13599609 -0.47800781 11.17628906 -0.4375 10.1875 C-0.39431641 9.20845703 -0.35113281 8.22941406 -0.30664062 7.22070312 C-0.2009774 4.81392973 -0.09887673 2.40706017 0 0 Z " fill="#F9F3D8" transform="translate(136,134)"/>
<path d="M0 0 C10.89 0 21.78 0 33 0 C33 5.61 33 11.22 33 17 C32.67 17 32.34 17 32 17 C32 12.38 32 7.76 32 3 C29.586875 3.556875 29.586875 3.556875 27.125 4.125 C21.37165381 5.1907105 16.565118 4.77488331 11 3 C10.67 2.67 10.34 2.34 10 2 C8.31816052 1.76712992 6.6287584 1.58735834 4.9375 1.4375 C4.01839844 1.35371094 3.09929687 1.26992187 2.15234375 1.18359375 C1.08693359 1.09271484 1.08693359 1.09271484 0 1 C0 0.67 0 0.34 0 0 Z " fill="#F6CC51" transform="translate(102,135)"/>
<path d="M0 0 C2.625 0.375 2.625 0.375 5 1 C5 1.99 5 2.98 5 4 C2.18806199 4.79821816 -0.29823285 5.12253632 -3.21777344 5.11352539 C-4.03832214 5.11344986 -4.85887085 5.11337433 -5.70428467 5.11329651 C-6.58046448 5.10813522 -7.45664429 5.10297394 -8.359375 5.09765625 C-9.71594208 5.09553383 -9.71594208 5.09553383 -11.09991455 5.09336853 C-13.98331027 5.08777911 -16.86662782 5.07522853 -19.75 5.0625 C-21.70703013 5.05748363 -23.66406147 5.05292096 -25.62109375 5.04882812 C-30.41409253 5.03781313 -35.20703302 5.02055574 -40 5 C-40 4.34 -40 3.68 -40 3 C-38.85934082 2.98018066 -37.71868164 2.96036133 -36.54345703 2.93994141 C-32.32024677 2.86399433 -28.09738601 2.77526072 -23.87451172 2.68261719 C-22.04515471 2.64428223 -20.21572115 2.60943737 -18.38623047 2.578125 C-15.75981241 2.53257195 -13.13392341 2.47456269 -10.5078125 2.4140625 C-9.27649094 2.39673569 -9.27649094 2.39673569 -8.02029419 2.37905884 C-3.5375356 2.4427456 -3.5375356 2.4427456 0 0 Z " fill="#386280" transform="translate(120,89)"/>
<path d="M0 0 C0.99 0 1.98 0 3 0 C3.33 0.99 3.66 1.98 4 3 C3.01 3.33 2.02 3.66 1 4 C1 5.65 1 7.3 1 9 C2.32 8.67 3.64 8.34 5 8 C4.67 9.98 4.34 11.96 4 14 C5.65 13.34 7.3 12.68 9 12 C9 11.01 9 10.02 9 9 C10.32 9.66 11.64 10.32 13 11 C13 11.66 13 12.32 13 13 C14.65 12.67 16.3 12.34 18 12 C17.67 13.32 17.34 14.64 17 16 C13.66666667 15.33333333 10.33333333 14.66666667 7 14 C7.33 14.99 7.66 15.98 8 17 C6.35 16.67 4.7 16.34 3 16 C3 15.34 3 14.68 3 14 C1.68 14 0.36 14 -1 14 C-1.02685938 11.85423363 -1.04633088 9.70837355 -1.0625 7.5625 C-1.07410156 6.36753906 -1.08570313 5.17257813 -1.09765625 3.94140625 C-1 1 -1 1 0 0 Z " fill="#F7FBFB" transform="translate(137,40)"/>
<path d="M0 0 C10.89 0 21.78 0 33 0 C33 1.65 33 3.3 33 5 C24.75 5 16.5 5 8 5 C8 4.01 8 3.02 8 2 C11.71599191 1.79913557 12.77208445 1.8480563 16 4 C16 3.34 16 2.68 16 2 C17.65 2 19.3 2 21 2 C21 2.66 21 3.32 21 4 C22.98 4 24.96 4 27 4 C27 3.01 27 2.02 27 1 C18.09 1 9.18 1 0 1 C0 0.67 0 0.34 0 0 Z " fill="#CBDFEB" transform="translate(69,58)"/>
<path d="M0 0 C0 3.93154432 -1.25327015 6.5065403 -3 10 C-3.99 10.33 -4.98 10.66 -6 11 C-6.33 11.66 -6.66 12.32 -7 13 C-7.33 13.66 -7.66 14.32 -8 15 C-8.99 15.33 -9.98 15.66 -11 16 C-11.33 16.66 -11.66 17.32 -12 18 C-11.34 18.33 -10.68 18.66 -10 19 C-11.98 19.33 -13.96 19.66 -16 20 C-16 20.99 -16 21.98 -16 23 C-16.99 23 -17.98 23 -19 23 C-19.12375 22.030625 -19.2475 21.06125 -19.375 20.0625 C-19.684375 18.5465625 -19.684375 18.5465625 -20 17 C-20.66 16.67 -21.32 16.34 -22 16 C-21.01 16 -20.02 16 -19 16 C-19 16.66 -19 17.32 -19 18 C-15.73539027 16.19587357 -14.11070205 15.16605307 -12 12 C-11.34 12 -10.68 12 -10 12 C-10 11.34 -10 10.68 -10 10 C-9.34 10 -8.68 10 -8 10 C-7.773125 9.443125 -7.54625 8.88625 -7.3125 8.3125 C-5.63848923 5.36305245 -3.45043651 3.3247731 -1 1 C-0.67 0.67 -0.34 0.34 0 0 Z " fill="#F9F9F0" transform="translate(170,116)"/>
<path d="M0 0 C1.20785156 -0.00257812 2.41570312 -0.00515625 3.66015625 -0.0078125 C4.90925781 -0.00007813 6.15835938 0.00765625 7.4453125 0.015625 C8.68667969 0.00789063 9.92804688 0.00015625 11.20703125 -0.0078125 C27.33121832 0.02653082 27.33121832 0.02653082 31.5703125 4.265625 C30.5803125 4.595625 29.5903125 4.925625 28.5703125 5.265625 C28.5703125 4.605625 28.5703125 3.945625 28.5703125 3.265625 C27.44753906 3.27722656 26.32476562 3.28882813 25.16796875 3.30078125 C11.53326332 3.39522341 11.53326332 3.39522341 6.6328125 2.640625 C2.48143801 2.05331814 -1.06757521 2.84291871 -5.12109375 3.78515625 C-7.92326966 4.36835022 -10.57706365 4.4157631 -13.4296875 4.265625 C-12.4296875 2.265625 -12.4296875 2.265625 -9.76904297 1.15722656 C-6.3596665 0.24692953 -3.52123566 0.0072828 0 0 Z " fill="#447196" transform="translate(92.4296875,27.734375)"/>
<path d="M0 0 C0.33 0 0.66 0 1 0 C1.3125 3.25 1.3125 3.25 1 7 C-1.25 9.1875 -1.25 9.1875 -4 11 C-4.9161911 12.03202545 -4.9161911 12.03202545 -5.85089111 13.0848999 C-8.49057423 15.43715735 -9.65031744 15.48861072 -13.13574219 15.45410156 C-14.66687653 15.45364838 -14.66687653 15.45364838 -16.22894287 15.45318604 C-17.32386047 15.43254089 -18.41877808 15.41189575 -19.546875 15.390625 C-20.6732135 15.38496521 -21.799552 15.37930542 -22.96002197 15.37347412 C-26.55711382 15.35108545 -30.15320926 15.30088213 -33.75 15.25 C-36.1887877 15.22993833 -38.62759101 15.21168698 -41.06640625 15.1953125 C-47.04461074 15.15121244 -53.02223419 15.08427463 -59 15 C-59 14.67 -59 14.34 -59 14 C-43.16 14 -27.32 14 -11 14 C-11 13.34 -11 12.68 -11 12 C-9.20963542 11.0234375 -7.41927083 10.046875 -5.62890625 9.0703125 C-3.83381685 8.08589976 -3.83381685 8.08589976 -3 6 C-2.34 6 -1.68 6 -1 6 C-0.67 4.02 -0.34 2.04 0 0 Z " fill="#F1D96B" transform="translate(139,85)"/>
<path d="M0 0 C3.89539446 1.47756342 5.25354153 3.24815416 7 7 C7.39816914 9.93995514 7.34991663 12.83862111 7.29296875 15.80078125 C7.28872391 16.63715622 7.28447906 17.47353119 7.28010559 18.33525085 C7.26337364 20.99466765 7.22573226 23.653314 7.1875 26.3125 C7.17244604 28.12043173 7.15875888 29.92837539 7.14648438 31.73632812 C7.11348816 36.15784689 7.06174428 40.57879302 7 45 C6.67 45 6.34 45 6 45 C5.67 42.36 5.34 39.72 5 37 C4.67 37 4.34 37 4 37 C4 26.44 4 15.88 4 5 C3.34 5 2.68 5 2 5 C2 4.01 2 3.02 2 2 C1.34 2 0.68 2 0 2 C0 1.34 0 0.68 0 0 Z " fill="#537895" transform="translate(129,35)"/>
<path d="M0 0 C0.66 0 1.32 0 2 0 C2.33 0.66 2.66 1.32 3 2 C3.99 2.33 4.98 2.66 6 3 C6 3.66 6 4.32 6 5 C6.99 5 7.98 5 9 5 C8.67 6.98 8.34 8.96 8 11 C7.01 10.67 6.02 10.34 5 10 C4.67 11.65 4.34 13.3 4 15 C3.01 14.67 2.02 14.34 1 14 C1 13.01 1 12.02 1 11 C1.99 10.34 2.98 9.68 4 9 C4.33 8.01 4.66 7.02 5 6 C3.01508358 6.26676204 3.01508358 6.26676204 1 7 C0.67 7.99 0.34 8.98 0 10 C-0.99 10 -1.98 10 -3 10 C-3.33 9.01 -3.66 8.02 -4 7 C-3.01 6.34 -2.02 5.68 -1 5 C-0.27034634 2.43717258 -0.27034634 2.43717258 0 0 Z M9 2 C10.32 2 11.64 2 13 2 C12.67 2.99 12.34 3.98 12 5 C11.01 5 10.02 5 9 5 C9 4.01 9 3.02 9 2 Z " fill="#F0F1F0" transform="translate(145,134)"/>
<path d="M0 0 C3.63 0.66 7.26 1.32 11 2 C11 2.66 11 3.32 11 4 C12.32 4.66 13.64 5.32 15 6 C10.38 6.33 5.76 6.66 1 7 C0.95101562 8.39734375 0.90203125 9.7946875 0.8515625 11.234375 C0.77651918 13.07293622 0.70097203 14.91147692 0.625 16.75 C0.5940625 17.67039062 0.563125 18.59078125 0.53125 19.5390625 C0.49257812 20.42851563 0.45390625 21.31796875 0.4140625 22.234375 C0.36693115 23.45979004 0.36693115 23.45979004 0.31884766 24.70996094 C-0.02343693 27.16832958 -0.7739277 28.85759999 -2 31 C-1.8818344 26.90637894 -1.75759216 22.81299233 -1.62768555 18.71972656 C-1.58434154 17.3268741 -1.54266604 15.93396869 -1.50268555 14.54101562 C-1.44497068 12.54023349 -1.38078131 10.53964141 -1.31640625 8.5390625 C-1.27974854 7.33459473 -1.24309082 6.13012695 -1.20532227 4.88916016 C-1 2 -1 2 0 0 Z " fill="#FAF7E9" transform="translate(139,56)"/>
<path d="M0 0 C0.99 0 1.98 0 3 0 C3.33 0.99 3.66 1.98 4 3 C6.01508358 3.73323796 6.01508358 3.73323796 8 4 C8.33 2.68 8.66 1.36 9 0 C9.99 0 10.98 0 12 0 C12 0.99 12 1.98 12 3 C13.093125 3.103125 14.18625 3.20625 15.3125 3.3125 C19 4 19 4 22 7 C9.13 6.505 9.13 6.505 -4 6 C-3.67 5.34 -3.34 4.68 -3 4 C-2.01 4 -1.02 4 0 4 C-0.33 3.01 -0.66 2.02 -1 1 C-0.67 0.67 -0.34 0.34 0 0 Z " fill="#D3E6EC" transform="translate(96,22)"/>
<path d="M0 0 C0.4954834 0.16226074 0.9909668 0.32452148 1.50146484 0.49169922 C4.98758592 1.200914 8.43493009 1.14251798 11.9765625 1.1328125 C12.74302094 1.13376923 13.50947937 1.13472595 14.29916382 1.13571167 C15.91461265 1.13639063 17.53006425 1.13455618 19.14550781 1.13037109 C21.62310874 1.1250041 24.10052959 1.13033319 26.578125 1.13671875 C28.1484379 1.13605821 29.71875069 1.13477754 31.2890625 1.1328125 C32.03177399 1.13483673 32.77448547 1.13686096 33.53970337 1.13894653 C37.39704469 1.19184423 37.39704469 1.19184423 41 0 C41.495 1.485 41.495 1.485 42 3 C29.46 3 16.92 3 4 3 C4 3.66 4 4.32 4 5 C3.34 5 2.68 5 2 5 C2 4.34 2 3.68 2 3 C1.34 2.67 0.68 2.34 0 2 C0 1.34 0 0.68 0 0 Z " fill="#346E97" transform="translate(76,89)"/>
<path d="M0 0 C0.33 0 0.66 0 1 0 C1.1249586 4.23167484 1.21496477 8.46233173 1.2746582 12.6953125 C1.29957855 14.13072448 1.33352875 15.56601257 1.37719727 17.00097656 C1.66666607 26.76799458 1.13991457 34.88804717 -5.43554688 42.70703125 C-6.8125 44.125 -6.8125 44.125 -9 46 C-9.99 45.67 -10.98 45.34 -12 45 C-11.34 45 -10.68 45 -10 45 C-9.34 43.68 -8.68 42.36 -8 41 C-7.34 41 -6.68 41 -6 41 C-6 39.35 -6 37.7 -6 36 C-4.02 35.505 -4.02 35.505 -2 35 C-1.05747447 30.95820902 -0.80704506 27.09365556 -0.68359375 22.94921875 C-0.66281265 22.29041214 -0.64203156 21.63160553 -0.62062073 20.95283508 C-0.55564511 18.86448815 -0.49648425 16.77602388 -0.4375 14.6875 C-0.39426521 13.2649622 -0.3506494 11.84243594 -0.30664062 10.41992188 C-0.20001784 6.94673703 -0.09860652 3.47342274 0 0 Z " fill="#EECD54" transform="translate(169,81)"/>
<path d="M0 0 C0.99 0.33 1.98 0.66 3 1 C1.515 3.475 1.515 3.475 0 6 C0.99 6.33 1.98 6.66 3 7 C2.2884375 7.804375 2.2884375 7.804375 1.5625 8.625 C-0.28186076 11.42842836 -0.62456847 13.69620258 -1 17 C-1.99 16.67 -2.98 16.34 -4 16 C-4 15.34 -4 14.68 -4 14 C-3.34 14 -2.68 14 -2 14 C-2.66 11.69 -3.32 9.38 -4 7 C-4 7.99 -4 8.98 -4 10 C-5.32 9.67 -6.64 9.34 -8 9 C-6.29220059 5.01513471 -3.92814393 1.96407197 0 0 Z " fill="#487BAC" transform="translate(77,31)"/>
<path d="M0 0 C1.32 0 2.64 0 4 0 C4 0.66 4 1.32 4 2 C4.99 2.33 5.98 2.66 7 3 C1.25 6 1.25 6 -1 6 C-2.72571361 9.01545747 -3.28097659 11.3053913 -3.4140625 14.765625 C-3.45273438 15.65507813 -3.49140625 16.54453125 -3.53125 17.4609375 C-3.5621875 18.38132812 -3.593125 19.30171875 -3.625 20.25 C-3.66367188 21.18585937 -3.70234375 22.12171875 -3.7421875 23.0859375 C-3.83624844 25.39043054 -3.92189399 27.69492013 -4 30 C-4.33 30 -4.66 30 -5 30 C-5.22745015 26.62600624 -5.42851745 23.25092748 -5.625 19.875 C-5.68945312 18.92367187 -5.75390625 17.97234375 -5.8203125 16.9921875 C-6.10594477 11.85080672 -6.12666217 7.82151653 -4 3 C-2.68 3 -1.36 3 0 3 C0 2.01 0 1.02 0 0 Z " fill="#D5ECF4" transform="translate(73,28)"/>
<path d="M0 0 C-1.5042735 3.76068376 -1.5042735 3.76068376 -3.8125 4.875 C-7.98394752 7.02031587 -10.44867403 11.17301105 -13 15 C-13.75 12.3125 -13.75 12.3125 -14 9 C-11.12504149 3.96882261 -5.92735834 0 0 0 Z " fill="#4C7DA4" transform="translate(51,64)"/>
<path d="M0 0 C0.66 0.33 1.32 0.66 2 1 C3.91447954 6.74343861 3.30672963 13.25236284 3.35009766 19.27758789 C3.36664784 20.96229882 3.39392594 22.6469398 3.43212891 24.33129883 C3.48708977 26.76941064 3.5087983 29.2058822 3.5234375 31.64453125 C3.54610687 32.39160843 3.56877625 33.13868561 3.59213257 33.90840149 C3.56878588 39.72952189 1.9385927 42.04464899 -2 46 C-2.33 45.34 -2.66 44.68 -3 44 C-2.36707031 42.96230469 -1.73414063 41.92460938 -1.08203125 40.85546875 C2.2683091 34.46775569 1.45901152 27.3215789 1.3125 20.3125 C1.30098782 18.89779959 1.29120884 17.48308397 1.28320312 16.06835938 C1.24169127 7.97625553 1.24169127 7.97625553 0 0 Z " fill="#F2D888" transform="translate(168,76)"/>
<path d="M0 0 C0.33 0 0.66 0 1 0 C1.06058594 1.07121094 1.12117188 2.14242187 1.18359375 3.24609375 C1.26798537 4.64324391 1.35263406 6.04037857 1.4375 7.4375 C1.47681641 8.14455078 1.51613281 8.85160156 1.55664062 9.58007812 C1.47624438 13.08690419 1.47624438 13.08690419 3 16 C5.21855264 16.08783542 7.43988496 16.10694609 9.66015625 16.09765625 C10.32462265 16.0962413 10.98908905 16.09482635 11.6736908 16.09336853 C13.80333899 16.08775518 15.93288339 16.07520054 18.0625 16.0625 C19.50325369 16.05748671 20.94400903 16.05292351 22.38476562 16.04882812 C25.92321102 16.03778145 29.46159539 16.02050792 33 16 C32.67 16.66 32.34 17.32 32 18 C21.44 18 10.88 18 0 18 C0 12.06 0 6.12 0 0 Z " fill="#3D688A" transform="translate(69,40)"/>
<path d="M0 0 C0.99 0.33 1.98 0.66 3 1 C2.67 1.99 2.34 2.98 2 4 C0.68 4 -0.64 4 -2 4 C-1.34 2.68 -0.68 1.36 0 0 Z M-3 4 C-3 7.49889647 -3.54120332 8.0553603 -5.75 10.625 C-6.26046875 11.23601563 -6.7709375 11.84703125 -7.296875 12.4765625 C-9 14 -9 14 -11.140625 14.5234375 C-11.75421875 14.68070313 -12.3678125 14.83796875 -13 15 C-13.33 15.99 -13.66 16.98 -14 18 C-14.33 16.68 -14.66 15.36 -15 14 C-14.01 13.67 -13.02 13.34 -12 13 C-11.31513275 11.67592331 -10.65129797 10.34090759 -10 9 C-7.64366767 6.33962479 -6.40781414 5.13593805 -3 4 Z " fill="#F1F0EF" transform="translate(179,49)"/>
<path d="M0 0 C0.12375 0.639375 0.2475 1.27875 0.375 1.9375 C0.58125 2.618125 0.7875 3.29875 1 4 C1.66 4.33 2.32 4.66 3 5 C3 6.32 3 7.64 3 9 C1.02 9.99 1.02 9.99 -1 11 C-1.5775 10.0925 -2.155 9.185 -2.75 8.25 C-4.66785116 5.47977054 -6.54402845 3.28054501 -9 1 C-5.846632 0.29925156 -3.27275026 0 0 0 Z " fill="#E8EEF3" transform="translate(136,31)"/>
<path d="M0 0 C4.75 0.75 4.75 0.75 7 3 C6.67 3.66 6.34 4.32 6 5 C6.99 5.33 7.98 5.66 9 6 C8.375 7.9375 8.375 7.9375 7 10 C3.9375 10.625 3.9375 10.625 1 11 C0.67 11.66 0.34 12.32 0 13 C-0.33 12.34 -0.66 11.68 -1 11 C-0.67 10.34 -0.34 9.68 0 9 C1.32 9 2.64 9 4 9 C4 7.68 4 6.36 4 5 C3.01 4.67 2.02 4.34 1 4 C0.3125 1.9375 0.3125 1.9375 0 0 Z " fill="#F1F2EF" transform="translate(72,17)"/>
<path d="M0 0 C1.65 0 3.3 0 5 0 C4.67 1.65 4.34 3.3 4 5 C3.01 5.33 2.02 5.66 1 6 C0.67 6.99 0.34 7.98 0 9 C-1.65 9.33 -3.3 9.66 -5 10 C-5 10.99 -5 11.98 -5 13 C-6.32 12.67 -7.64 12.34 -9 12 C-8.67 11.01 -8.34 10.02 -8 9 C-6.68 9 -5.36 9 -4 9 C-3.67 7.68 -3.34 6.36 -3 5 C-2.01 5 -1.02 5 0 5 C0 3.35 0 1.7 0 0 Z " fill="#EFEEEF" transform="translate(72,8)"/>
<path d="M0 0 C2.33294775 -0.04241723 4.66702567 -0.04092937 7 0 C8 1 8 1 8.0625 3.5625 C8.041875 4.366875 8.02125 5.17125 8 6 C5.36 6.66 2.72 7.32 0 8 C0 5.36 0 2.72 0 0 Z " fill="#F2F3F8" transform="translate(118,145)"/>
<path d="M0 0 C0.99 0.33 1.98 0.66 3 1 C3.6875 3.0625 3.6875 3.0625 4 5 C3.40703125 5.25523438 2.8140625 5.51046875 2.203125 5.7734375 C-0.21224538 7.11816498 -1.51211706 8.49214367 -3.25 10.625 C-3.77078125 11.25664062 -4.2915625 11.88828125 -4.828125 12.5390625 C-5.21484375 13.02117187 -5.6015625 13.50328125 -6 14 C-7.32 13.67 -8.64 13.34 -10 13 C-9.67 12.01 -9.34 11.02 -9 10 C-8.01 9.67 -7.02 9.34 -6 9 C-5.67 8.34 -5.34 7.68 -5 7 C-4 5 -4 5 -1 4 C-0.26676204 1.98491642 -0.26676204 1.98491642 0 0 Z " fill="#EFF0ED" transform="translate(168,121)"/>
<path d="M0 0 C0.99 0 1.98 0 3 0 C5.7728608 4.72697609 6.35839768 8.13352697 6.29296875 13.5859375 C6.28872391 14.28772125 6.28447906 14.989505 6.28010559 15.71255493 C6.26343599 17.9337756 6.22580872 20.15405788 6.1875 22.375 C6.17243788 23.88930973 6.15875216 25.40363381 6.14648438 26.91796875 C6.11357183 30.61227932 6.06187259 34.30604793 6 38 C5.67 38 5.34 38 5 38 C4.98598145 36.79053711 4.98598145 36.79053711 4.97167969 35.55664062 C4.9176896 31.87049415 4.83409552 28.18557759 4.75 24.5 C4.73582031 23.2315625 4.72164062 21.963125 4.70703125 20.65625 C4.51506702 13.28482358 3.83414798 8.31867587 0 2 C0 1.34 0 0.68 0 0 Z " fill="#FCEEC5" transform="translate(166,70)"/>
<path d="M0 0 C0.99 0.33 1.98 0.66 3 1 C3 1.99 3 2.98 3 4 C4.32 4.66 5.64 5.32 7 6 C7 6.66 7 7.32 7 8 C5.35 7.67 3.7 7.34 2 7 C2 6.01 2 5.02 2 4 C1.01 4 0.02 4 -1 4 C-1.33 5.32 -1.66 6.64 -2 8 C-3.32 8 -4.64 8 -6 8 C-6 6.68 -6 5.36 -6 4 C-3.5625 2.3125 -3.5625 2.3125 -1 1 C-0.67 0.67 -0.34 0.34 0 0 Z " fill="#FAFBFB" transform="translate(106,18)"/>
<path d="M0 0 C0.66 0 1.32 0 2 0 C2.66 1.32 3.32 2.64 4 4 C3.278125 4.226875 2.55625 4.45375 1.8125 4.6875 C-1.19269899 5.88839905 -1.19269899 5.88839905 -3.5625 8.625 C-6 11 -6 11 -10 11 C-10 10.34 -10 9.68 -10 9 C-8.3203125 7.59765625 -8.3203125 7.59765625 -6.125 6.0625 C-3.32503965 4.10052062 -1.93937238 2.90905857 0 0 Z " fill="#F0F0F0" transform="translate(92,181)"/>
<path d="M0 0 C0.33 0 0.66 0 1 0 C1.10871967 2.54283234 1.18762401 5.08095088 1.25 7.625 C1.28351563 8.33785156 1.31703125 9.05070312 1.3515625 9.78515625 C1.44985717 15.14221553 0.35249165 17.81598483 -3 22 C-5 21 -5 21 -6 18 C-5.34 18 -4.68 18 -4 18 C-4 17.34 -4 16.68 -4 16 C-3.01 16 -2.02 16 -1 16 C-0.67 10.72 -0.34 5.44 0 0 Z " fill="#385F82" transform="translate(134,67)"/>
<path d="M0 0 C0.33 0 0.66 0 1 0 C1.309375 1.134375 1.61875 2.26875 1.9375 3.4375 C2.62924531 6.78775099 2.62924531 6.78775099 4 8 C5.134375 8 6.26875 8 7.4375 8 C11 8 11 8 13 9 C12.34 10.32 11.68 11.64 11 13 C7.34186183 12.71860476 4.68103694 12.43656214 1.5625 10.4375 C-0.73566228 6.85236684 -0.28061483 4.20922245 0 0 Z " fill="#467494" transform="translate(76,41)"/>
<path d="M0 0 C0.66 0.66 1.32 1.32 2 2 C1.625 5.125 1.625 5.125 1 8 C-0.98 8 -2.96 8 -5 8 C-5.3125 5.6875 -5.3125 5.6875 -5 3 C-2.5 1.1875 -2.5 1.1875 0 0 Z " fill="#F9F0F0" transform="translate(85,39)"/>
<path d="M0 0 C2.97 0 5.94 0 9 0 C9 0.99 9 1.98 9 3 C8.21625 3.2475 7.4325 3.495 6.625 3.75 C3.67682892 5.15389099 3.0975223 6.00675737 2 9 C2 7.02 2 5.04 2 3 C1.34 3 0.68 3 0 3 C0 2.01 0 1.02 0 0 Z " fill="#F4F1E8" transform="translate(136,131)"/>
<path d="M0 0 C0.33 0 0.66 0 1 0 C1 3.63 1 7.26 1 11 C1.99 11 2.98 11 4 11 C4 12.32 4 13.64 4 15 C3.01 15 2.02 15 1 15 C1 18.96 1 22.92 1 27 C0.67 27 0.34 27 0 27 C0 18.09 0 9.18 0 0 Z " fill="#FAF2E5" transform="translate(172,79)"/>
<path d="M0 0 C0.99 0 1.98 0 3 0 C3 1.65 3 3.3 3 5 C2.01 5.33 1.02 5.66 0 6 C-0.33 6.99 -0.66 7.98 -1 9 C-2.65 8.67 -4.3 8.34 -6 8 C-5.38125 7.4225 -4.7625 6.845 -4.125 6.25 C-2.18652947 4.19750179 -1.09985751 2.56633418 0 0 Z " fill="#FCFBFB" transform="translate(69,8)"/>
<path d="M0 0 C0.99 0 1.98 0 3 0 C3.66 0.99 4.32 1.98 5 3 C7.56282742 3.72965366 7.56282742 3.72965366 10 4 C8.515 6.475 8.515 6.475 7 9 C5.0625 8.1875 5.0625 8.1875 3 7 C2.67 6.01 2.34 5.02 2 4 C1.34 3.67 0.68 3.34 0 3 C0 2.01 0 1.02 0 0 Z " fill="#EFEFEF" transform="translate(19,181)"/>
<path d="M0 0 C0 1.32 0 2.64 0 4 C-4.455 4.495 -4.455 4.495 -9 5 C-9 3.68 -9 2.36 -9 1 C-5.92677456 0.08941469 -3.19902639 -0.08886184 0 0 Z " fill="#F3D233" transform="translate(134,138)"/>
<path d="M0 0 C0.99 0.33 1.98 0.66 3 1 C2.44687265 5.02992782 1.8441938 9.02022924 1 13 C-1.60334924 10.28817788 -1.99456691 9.10866187 -2.1875 5.25 C-2.125625 4.1775 -2.06375 3.105 -2 2 C-1.34 2 -0.68 2 0 2 C0 1.34 0 0.68 0 0 Z " fill="#D7EAF1" transform="translate(34,71)"/>
<path d="M0 0 C0.99 0.33 1.98 0.66 3 1 C2.40046138 4.35741626 1.38106734 6.53389454 -1 9 C-3.6875 9.75 -3.6875 9.75 -6 10 C-6 9.01 -6 8.02 -6 7 C-4.34997172 5.64613064 -2.6825613 4.31321858 -1 3 C-0.67 2.01 -0.34 1.02 0 0 Z " fill="#EFEFEF" transform="translate(28,8)"/>
<path d="M0 0 C0 4.06447787 -0.97918272 6.47986667 -3 10 C-6.6875 10.9375 -6.6875 10.9375 -10 11 C-9.34 10.67 -8.68 10.34 -8 10 C-7.731875 9.4225 -7.46375 8.845 -7.1875 8.25 C-5.61652171 5.27340956 -3.42853089 3.30399084 -1 1 C-0.67 0.67 -0.34 0.34 0 0 Z " fill="#FCF5CE" transform="translate(170,116)"/>
<path d="M0 0 C0.33 0 0.66 0 1 0 C1.8125 2.6875 1.8125 2.6875 2 6 C-0.0625 8.9375 -0.0625 8.9375 -3 11 C-6.3125 10.8125 -6.3125 10.8125 -9 10 C-8.2575 9.46375 -7.515 8.9275 -6.75 8.375 C-3.82649095 5.85015128 -2.06298806 3.24183838 0 0 Z " fill="#D1E5EE" transform="translate(134,83)"/>
<path d="M0 0 C1 3 1 3 1 5 C0.01 5.66 -0.98 6.32 -2 7 C-2.33 7.99 -2.66 8.98 -3 10 C-3.99 10 -4.98 10 -6 10 C-6.33 8.35 -6.66 6.7 -7 5 C-6.21625 4.54625 -5.4325 4.0925 -4.625 3.625 C-1.96301969 2.11571258 -1.96301969 2.11571258 0 0 Z " fill="#EEF1F2" transform="translate(175,62)"/>
<path d="M0 0 C2.43475999 2.43475999 3.27774593 3.60540585 4 7 C2.9617114 10.15724493 1.54817226 13.06359064 0 16 C-1.18224668 12.45325997 -0.89329634 10.02477005 -0.5625 6.3125 C-0.46066406 5.13300781 -0.35882813 3.95351562 -0.25390625 2.73828125 C-0.17011719 1.83464844 -0.08632813 0.93101563 0 0 Z " fill="#3777B1" transform="translate(37,83)"/>
<path d="M0 0 C0.78375 0.04125 1.5675 0.0825 2.375 0.125 C2.705 1.115 3.035 2.105 3.375 3.125 C1.395 3.785 -0.585 4.445 -2.625 5.125 C-2.955 7.435 -3.285 9.745 -3.625 12.125 C-3.955 12.125 -4.285 12.125 -4.625 12.125 C-4.67895478 10.50036158 -4.71777195 8.87521459 -4.75 7.25 C-4.77320312 6.34507812 -4.79640625 5.44015625 -4.8203125 4.5078125 C-4.53030547 0.96972669 -3.50613188 0.16695866 0 0 Z " fill="#F2D564" transform="translate(119.625,139.875)"/>
<path d="M0 0 C1.32 0 2.64 0 4 0 C3.67 3.63 3.34 7.26 3 11 C2.34 11 1.68 11 1 11 C-0.17571451 7.32589215 -0.07366746 3.83070817 0 0 Z " fill="#376997" transform="translate(130,72)"/>
<path d="M0 0 C0.66 0 1.32 0 2 0 C1.625 2.4375 1.625 2.4375 1 5 C0.01 5.495 0.01 5.495 -1 6 C-1.33 6.99 -1.66 7.98 -2 9 C-3.32 9 -4.64 9 -6 9 C-6 7.68 -6 6.36 -6 5 C-5.38125 4.9175 -4.7625 4.835 -4.125 4.75 C-1.81562433 4.18741541 -1.81562433 4.18741541 -0.75 1.9375 C-0.5025 1.298125 -0.255 0.65875 0 0 Z " fill="#FCFCFC" transform="translate(11,67)"/>
<path d="M0 0 C1.65 0.33 3.3 0.66 5 1 C5 1.99 5 2.98 5 4 C3.68 4 2.36 4 1 4 C0.67 5.32 0.34 6.64 0 8 C-0.99 8 -1.98 8 -3 8 C-3.33 6.68 -3.66 5.36 -4 4 C-3.01 3.67 -2.02 3.34 -1 3 C-0.67 2.01 -0.34 1.02 0 0 Z " fill="#EFEFEE" transform="translate(36,63)"/>
<path d="M0 0 C0.99 0.33 1.98 0.66 3 1 C2.34 1 1.68 1 1 1 C1 1.66 1 2.32 1 3 C1.66 3 2.32 3 3 3 C3.33 5.31 3.66 7.62 4 10 C2.68 10 1.36 10 0 10 C0 6.7 0 3.4 0 0 Z " fill="#3478B0" transform="translate(92,40)"/>
<path d="M0 0 C2.64 0.66 5.28 1.32 8 2 C8 2.99 8 3.98 8 5 C5.69 5 3.38 5 1 5 C0.67 3.35 0.34 1.7 0 0 Z " fill="#FBCE2C" transform="translate(112,156)"/>
<path d="M0 0 C0.99 0.33 1.98 0.66 3 1 C2 3 2 3 0.4375 4.5 C-1.23063512 5.89439669 -1.23063512 5.89439669 -1 8 C-3 9.33333333 -5 10.66666667 -7 12 C-5.63855967 6.80177328 -3.53269829 3.90456127 0 0 Z " fill="#3578B2" transform="translate(45,69)"/>
<path d="M0 0 C2.25 0.25 2.25 0.25 4 1 C3.360625 1.598125 2.72125 2.19625 2.0625 2.8125 C-0.20310389 4.90810337 -0.20310389 4.90810337 -1 8 C-2.32 7.67 -3.64 7.34 -5 7 C-3.86873442 3.60620325 -2.77333918 2.21867135 0 0 Z " fill="#EFEFEF" transform="translate(173,0)"/>
<path d="M0 0 C-0.33 0.99 -0.66 1.98 -1 3 C-2.65 3 -4.3 3 -6 3 C-6 3.66 -6 4.32 -6 5 C-8.97 4.67 -11.94 4.34 -15 4 C-15 3.67 -15 3.34 -15 3 C-13.0636296 2.49564306 -11.12585854 1.99666126 -9.1875 1.5 C-8.10855469 1.2215625 -7.02960938 0.943125 -5.91796875 0.65625 C-3 0 -3 0 0 0 Z " fill="#F9EEBB" transform="translate(129,161)"/>
<path d="M0 0 C0.33 0 0.66 0 1 0 C0.125 7.625 0.125 7.625 -1 11 C-1.66 11 -2.32 11 -3 11 C-3.33 11.99 -3.66 12.98 -4 14 C-4.66 14 -5.32 14 -6 14 C-5.67 12.35 -5.34 10.7 -5 9 C-4.01 9 -3.02 9 -2 9 C-1.34 6.03 -0.68 3.06 0 0 Z " fill="#FDF0C1" transform="translate(139,80)"/>
<path d="M0 0 C0.66 0.66 1.32 1.32 2 2 C1.34 3.32 0.68 4.64 0 6 C-1.65 6 -3.3 6 -5 6 C-5 4.35 -5 2.7 -5 1 C-2.625 0.375 -2.625 0.375 0 0 Z " fill="#FAF9FA" transform="translate(91,16)"/>
<path d="M0 0 C-0.33 1.98 -0.66 3.96 -1 6 C-1.66 6 -2.32 6 -3 6 C-3 6.66 -3 7.32 -3 8 C-3.99 8 -4.98 8 -6 8 C-6 4 -6 4 -4.125 1.75 C-2 0 -2 0 0 0 Z " fill="#EFF0F4" transform="translate(66,54)"/>
<path d="M0 0 C0.33 0 0.66 0 1 0 C1 4.95 1 9.9 1 15 C3.64 15.66 6.28 16.32 9 17 C9 17.33 9 17.66 9 18 C5.625 18.125 5.625 18.125 2 18 C0 16 0 16 -0.1953125 12.3046875 C-0.182009 10.82799892 -0.15814835 9.35137642 -0.125 7.875 C-0.11146484 6.74384766 -0.11146484 6.74384766 -0.09765625 5.58984375 C-0.0740687 3.72642746 -0.03819719 1.86317407 0 0 Z " fill="#3F75A1" transform="translate(70,39)"/>
<path d="M0 0 C3.87132028 0.57352893 6.08172796 2.48704352 9 5 C7.88625 4.979375 6.7725 4.95875 5.625 4.9375 C2.16784079 4.73619282 2.16784079 4.73619282 0 6 C-1 3 -1 3 0 0 Z " fill="#3B729B" transform="translate(77,33)"/>
<path d="M0 0 C0.99 0.33 1.98 0.66 3 1 C2 3 1 5 0 7 C-1.98 7 -3.96 7 -6 7 C-6 6.34 -6 5.68 -6 5 C-4.02 4.34 -2.04 3.68 0 3 C0 2.01 0 1.02 0 0 Z " fill="#F0F0F0" transform="translate(15,185)"/>
<path d="M0 0 C2.875 0.25 2.875 0.25 6 1 C7.4375 2.875 7.4375 2.875 8 5 C7.67 5.99 7.34 6.98 7 8 C3.75700849 5.61042731 1.49097658 3.7952131 0 0 Z " fill="#FCF3C0" transform="translate(158,62)"/>
<path d="M0 0 C0.33 0.99 0.66 1.98 1 3 C1.66 3 2.32 3 3 3 C1.25 7.875 1.25 7.875 -1 9 C-1.66 8.34 -2.32 7.68 -3 7 C-2.01 4.69 -1.02 2.38 0 0 Z " fill="#ECF6F9" transform="translate(38,64)"/>
<path d="M0 0 C0.99 0.33 1.98 0.66 3 1 C2.67 1.99 2.34 2.98 2 4 C1.01 4 0.02 4 -1 4 C-1 4.66 -1 5.32 -1 6 C-2.65 6.33 -4.3 6.66 -6 7 C-5.67 6.01 -5.34 5.02 -5 4 C-4.01 4 -3.02 4 -2 4 C-2 3.01 -2 2.02 -2 1 C-1.34 0.67 -0.68 0.34 0 0 Z " fill="#EEEEEE" transform="translate(192,18)"/>
<path d="M0 0 C0.99 0 1.98 0 3 0 C2.67 1.65 2.34 3.3 2 5 C1.01 4.67 0.02 4.34 -1 4 C-0.67 2.68 -0.34 1.36 0 0 Z M-2 4 C-1.67 4.99 -1.34 5.98 -1 7 C-1.99 7.33 -2.98 7.66 -4 8 C-4 7.01 -4 6.02 -4 5 C-3.34 4.67 -2.68 4.34 -2 4 Z " fill="#EFF0ED" transform="translate(64,162)"/>
<path d="M0 0 C0.99 0 1.98 0 3 0 C3 0.99 3 1.98 3 3 C4.32 3 5.64 3 7 3 C7.33 4.32 7.66 5.64 8 7 C7.01 7.33 6.02 7.66 5 8 C2.20127563 5.47211993 0.54226981 3.79588866 0 0 Z " fill="#EDEDED" transform="translate(41,158)"/>
<path d="M0 0 C1.32 0 2.64 0 4 0 C4.33 0.99 4.66 1.98 5 3 C4.071875 3.1546875 4.071875 3.1546875 3.125 3.3125 C0.63473516 3.87525373 0.63473516 3.87525373 -1 7 C-1.99 6.67 -2.98 6.34 -4 6 C-3 3 -3 3 0 1 C0 0.67 0 0.34 0 0 Z " fill="#F0EFEE" transform="translate(59,132)"/>
<path d="M0 0 C1.32 0 2.64 0 4 0 C4 0.66 4 1.32 4 2 C6.97 2.495 6.97 2.495 10 3 C9.67 3.99 9.34 4.98 9 6 C6.69 5.34 4.38 4.68 2 4 C2 3.01 2 2.02 2 1 C1.34 0.67 0.68 0.34 0 0 Z " fill="#D8E8F2" transform="translate(118,26)"/>
<path d="M0 0 C0.99 0.99 1.98 1.98 3 3 C-1.625 7 -1.625 7 -5 7 C-3.75023244 3.34683329 -3.32901247 2.21934164 0 0 Z " fill="#E4ECEE" transform="translate(37,120)"/>
<path d="M0 0 C0.99 0 1.98 0 3 0 C4.25664978 2.90600261 5 4.79604584 5 8 C4.34 8 3.68 8 3 8 C3 7.01 3 6.02 3 5 C2.01 5 1.02 5 0 5 C-0.5625 3.0625 -0.5625 3.0625 -1 1 C-0.67 0.67 -0.34 0.34 0 0 Z " fill="#EFEFEF" transform="translate(24,112)"/>
<path d="M0 0 C0.66 0.33 1.32 0.66 2 1 C1.625 3.4375 1.625 3.4375 1 6 C0.01 6.495 0.01 6.495 -1 7 C-1.99 8.485 -1.99 8.485 -3 10 C-3.66 8.68 -4.32 7.36 -5 6 C-3.35 4.02 -1.7 2.04 0 0 Z " fill="#D7EBF0" transform="translate(71,97)"/>
<path d="M0 0 C5.75 -0.125 5.75 -0.125 8 1 C7.67 2.65 7.34 4.3 7 6 C5.83054208 5.19152271 4.66449539 4.37810888 3.5 3.5625 C2.8503125 3.11003906 2.200625 2.65757813 1.53125 2.19140625 C1.0259375 1.79824219 0.520625 1.40507813 0 1 C0 0.67 0 0.34 0 0 Z " fill="#D3E7F3" transform="translate(127,32)"/>
<path d="M0 0 C0.91007812 0.10183594 1.82015625 0.20367188 2.7578125 0.30859375 C3.45648438 0.39238281 4.15515625 0.47617187 4.875 0.5625 C4.875 0.8925 4.875 1.2225 4.875 1.5625 C3.25181021 1.92487263 1.6263642 2.27715157 0 2.625 C-0.90492187 2.82222656 -1.80984375 3.01945312 -2.7421875 3.22265625 C-5.125 3.5625 -5.125 3.5625 -7.125 2.5625 C-7.125 1.9025 -7.125 1.2425 -7.125 0.5625 C-4.50184968 -0.74907516 -2.89466564 -0.33399988 0 0 Z " fill="#E1F2FB" transform="translate(87.125,26.4375)"/>
<path d="M0 0 C0.33 0 0.66 0 1 0 C1.602537 6.98942918 1.602537 6.98942918 -0.11328125 9.8671875 C-1.33745588 11.30861002 -2.66278229 12.66278229 -4 14 C-4.33 13.34 -4.66 12.68 -5 12 C-4.2578125 10.1953125 -4.2578125 10.1953125 -3.125 8.125 C-1.6560009 5.42327438 -0.6354956 3.01522382 0 0 Z " fill="#F8E2A7" transform="translate(170,108)"/>
<path d="M0 0 C0.66 0.33 1.32 0.66 2 1 C2.40729228 3.32156597 2.74438677 5.6568787 3 8 C2.01 8.495 2.01 8.495 1 9 C0.67 8.01 0.34 7.02 0 6 C-0.99 5.67 -1.98 5.34 -3 5 C-3 3.68 -3 2.36 -3 1 C-2.01 0.67 -1.02 0.34 0 0 Z " fill="#EFEFEF" transform="translate(8,12)"/>
<path d="M0 0 C0.66 0.33 1.32 0.66 2 1 C2 3.31 2 5.62 2 8 C0.68 7.67 -0.64 7.34 -2 7 C-1.34 4.69 -0.68 2.38 0 0 Z " fill="#46779A" transform="translate(90,40)"/>
<path d="M0 0 C0.99 0 1.98 0 3 0 C3 1.65 3 3.3 3 5 C1.35 5.33 -0.3 5.66 -2 6 C-2.33 5.34 -2.66 4.68 -3 4 C-1.6875 2 -1.6875 2 0 0 Z " fill="#FBFAFB" transform="translate(61,17)"/>
<path d="M0 0 C0.66 0 1.32 0 2 0 C1.34 1.32 0.68 2.64 0 4 C0 2.68 0 1.36 0 0 Z M0 4 C0 5.65 0 7.3 0 9 C-1.32 9 -2.64 9 -4 9 C-4 7.68 -4 6.36 -4 5 C-1 4 -1 4 0 4 Z " fill="#EEEEEE" transform="translate(154,8)"/>
<path d="M0 0 C0.99 0 1.98 0 3 0 C2.375 1.875 2.375 1.875 1 4 C-2.125 5.25 -2.125 5.25 -5 6 C-5 5.01 -5 4.02 -5 3 C-3.68 3 -2.36 3 -1 3 C-0.67 2.01 -0.34 1.02 0 0 Z " fill="#EFF2EB" transform="translate(105,168)"/>
<path d="M0 0 C1.32 0 2.64 0 4 0 C4 1.65 4 3.3 4 5 C2.68 5.33 1.36 5.66 0 6 C0 4.02 0 2.04 0 0 Z " fill="#F8D037" transform="translate(129,144)"/>
<path d="M0 0 C4.29 0.66 8.58 1.32 13 2 C13 2.33 13 2.66 13 3 C8.38 3 3.76 3 -1 3 C-0.67 2.01 -0.34 1.02 0 0 Z " fill="#FAEDCF" transform="translate(141,59)"/>
<path d="M0 0 C1.32 0.33 2.64 0.66 4 1 C4 2.32 4 3.64 4 5 C2.68 5 1.36 5 0 5 C0 3.35 0 1.7 0 0 Z " fill="#F0F0F0" transform="translate(0,162)"/>
<path d="M0 0 C1.98 0.99 3.96 1.98 6 3 C5.401875 3.12375 4.80375 3.2475 4.1875 3.375 C1.73768652 3.95475985 1.73768652 3.95475985 -1 6 C-1.625 4.125 -1.625 4.125 -2 2 C-1.34 1.34 -0.68 0.68 0 0 Z " fill="#CFE4EB" transform="translate(42,126)"/>
<path d="M0 0 C0.66 0 1.32 0 2 0 C2 1.32 2 2.64 2 4 C1.01 4.495 1.01 4.495 0 5 C-0.65213292 7.02463255 -0.65213292 7.02463255 -1 9 C-1.99 9 -2.98 9 -4 9 C-3.39812271 5.62948719 -2.11127036 3.66203654 0 1 C0 0.67 0 0.34 0 0 Z " fill="#FCC932" transform="translate(164,112)"/>
<path d="M0 0 C0.66 0 1.32 0 2 0 C2.144375 0.886875 2.28875 1.77375 2.4375 2.6875 C2.91019978 5.47117646 3.43070185 8.23483757 4 11 C3.34 11 2.68 11 2 11 C0.57741188 7.17679443 -0.24042276 4.08718695 0 0 Z " fill="#487392" transform="translate(35,109)"/>
<path d="M0 0 C0.99 0.33 1.98 0.66 3 1 C2.67 2.32 2.34 3.64 2 5 C0.68 5 -0.64 5 -2 5 C-2 3.68 -2 2.36 -2 1 C-1.34 0.67 -0.68 0.34 0 0 Z " fill="#F0F0F0" transform="translate(2,80)"/>
<path d="M0 0 C0.66 0.66 1.32 1.32 2 2 C1.625 5.125 1.625 5.125 1 8 C-3 3.25 -3 3.25 -3 1 C-2.01 0.67 -1.02 0.34 0 0 Z " fill="#F3F9FC" transform="translate(85,39)"/>
<path d="M0 0 C1.32 0 2.64 0 4 0 C4 1.65 4 3.3 4 5 C2.68 5 1.36 5 0 5 C0 3.35 0 1.7 0 0 Z " fill="#EFEFEF" transform="translate(200,144)"/>
<path d="M0 0 C0.598125 0.226875 1.19625 0.45375 1.8125 0.6875 C0 3.1875 0 3.1875 -2.1875 5.6875 C-3.1775 5.6875 -4.1675 5.6875 -5.1875 5.6875 C-5.1875 2.6875 -5.1875 2.6875 -3.9375 0.9375 C-2.1875 -0.3125 -2.1875 -0.3125 0 0 Z " fill="#EEEEEE" transform="translate(192.1875,128.3125)"/>
<path d="M0 0 C1.9375 0.3125 1.9375 0.3125 4 1 C4.33 1.99 4.66 2.98 5 4 C3.35 4.33 1.7 4.66 0 5 C0 3.35 0 1.7 0 0 Z " fill="#FCFCFC" transform="translate(0,121)"/>
<path d="M0 0 C-0.375 1.9375 -0.375 1.9375 -1 4 C-1.99 4.495 -1.99 4.495 -3 5 C-4.13350534 7.01669827 -4.13350534 7.01669827 -5 9 C-5.33 9 -5.66 9 -6 9 C-6.25 6.75 -6.25 6.75 -6 4 C-2.75675676 0 -2.75675676 0 0 0 Z " fill="#EDF1E9" transform="translate(180,95)"/>
<path d="M0 0 C0.99 0 1.98 0 3 0 C2.67 1.65 2.34 3.3 2 5 C1.01 5 0.02 5 -1 5 C-1.33 4.01 -1.66 3.02 -2 2 C-1.34 2 -0.68 2 0 2 C0 1.34 0 0.68 0 0 Z " fill="#3B6B85" transform="translate(130,83)"/>
<path d="M0 0 C1.66666667 0 3.33333333 0 5 0 C4.38722388 2.96175123 3.74627478 4.38058783 2 7 C0 4 0 4 0 0 Z " fill="#EFEFEF" transform="translate(9,80)"/>
<path d="M0 0 C1.32 0 2.64 0 4 0 C4 1.65 4 3.3 4 5 C2.68 5 1.36 5 0 5 C0 3.35 0 1.7 0 0 Z " fill="#EFEFEF" transform="translate(200,17)"/>
<path d="M0 0 C0.99 0 1.98 0 3 0 C3 1.65 3 3.3 3 5 C1.68 5 0.36 5 -1 5 C-0.67 3.35 -0.34 1.7 0 0 Z " fill="#EEEEEE" transform="translate(201,180)"/>
<path d="M0 0 C0.75 1.75 0.75 1.75 1 4 C-0.9375 6.25 -0.9375 6.25 -3 8 C-3.66 7.67 -4.32 7.34 -5 7 C-3.47793991 4.37098712 -2.15634036 2.15634036 0 0 Z " fill="#EDC754" transform="translate(133,152)"/>
<path d="M0 0 C0.66 0 1.32 0 2 0 C0.70700306 2.88437779 -0.65941363 4.87219421 -3 7 C-3.99 6.67 -4.98 6.34 -6 6 C-5.34 6 -4.68 6 -4 6 C-3.34 4.68 -2.68 3.36 -2 2 C-1.34 2 -0.68 2 0 2 C0 1.34 0 0.68 0 0 Z " fill="#EACC64" transform="translate(163,120)"/>
<path d="M0 0 C1.32 0 2.64 0 4 0 C4.33 1.32 4.66 2.64 5 4 C4.01 4.33 3.02 4.66 2 5 C1.34 4.67 0.68 4.34 0 4 C0 2.68 0 1.36 0 0 Z " fill="#FCFCFC" transform="translate(0,85)"/>
<path d="M0 0 C0.99 0 1.98 0 3 0 C3 1.65 3 3.3 3 5 C1.68 5 0.36 5 -1 5 C-0.67 3.35 -0.34 1.7 0 0 Z " fill="#F0F0F0" transform="translate(201,80)"/>
<path d="M0 0 C-7.5 5 -7.5 5 -10 5 C-7.62417533 -0.26075462 -5.61350876 -0.1220328 0 0 Z " fill="#D6ECF6" transform="translate(51,63)"/>
<path d="M0 0 C0 0.99 0 1.98 0 3 C-1.875 4.0625 -1.875 4.0625 -4 5 C-4.66 4.67 -5.32 4.34 -6 4 C-6 3.01 -6 2.02 -6 1 C-3.92446352 0.4465236 -2.15634036 0 0 0 Z " fill="#F0F0F0" transform="translate(6,53)"/>
<path d="M0 0 C1.32 0.33 2.64 0.66 4 1 C4 2.32 4 3.64 4 5 C2.68 5 1.36 5 0 5 C0 3.35 0 1.7 0 0 Z " fill="#EEEEEE" transform="translate(164,35)"/>
<path d="M0 0 C1.65 0 3.3 0 5 0 C5 1.32 5 2.64 5 4 C3.35 4 1.7 4 0 4 C0 2.68 0 1.36 0 0 Z " fill="#EFF0EA" transform="translate(86,22)"/>
<path d="M0 0 C0.33 0.66 0.66 1.32 1 2 C0.0625 4.625 0.0625 4.625 -1 7 C-2.32 6.67 -3.64 6.34 -5 6 C-4.34 5.01 -3.68 4.02 -3 3 C-2.34 3 -1.68 3 -1 3 C-0.67 2.01 -0.34 1.02 0 0 Z " fill="#F9E5A2" transform="translate(135,153)"/>
<path d="M0 0 C1.66611905 -0.042721 3.33382885 -0.04063832 5 0 C6 1 6 1 6.0625 3.5625 C6.041875 4.366875 6.02125 5.17125 6 6 C5.34 5.67 4.68 5.34 4 5 C4 4.01 4 3.02 4 2 C2.68 2 1.36 2 0 2 C0 1.34 0 0.68 0 0 Z " fill="#F8F5E9" transform="translate(120,145)"/>
<path d="M0 0 C1.32 0 2.64 0 4 0 C3.67 1.65 3.34 3.3 3 5 C2.01 4.67 1.02 4.34 0 4 C0 2.68 0 1.36 0 0 Z " fill="#EFEFEF" transform="translate(5,76)"/>
<path d="M0 0 C0.66 0 1.32 0 2 0 C1.67 2.31 1.34 4.62 1 7 C-0.32 6.67 -1.64 6.34 -3 6 C-2 4 -1 2 0 0 Z " fill="#5885AF" transform="translate(72,34)"/>
<path d="M0 0 C1.32 0 2.64 0 4 0 C3.67 1.65 3.34 3.3 3 5 C2.01 4.67 1.02 4.34 0 4 C0 2.68 0 1.36 0 0 Z " fill="#FCFCFC" transform="translate(41,8)"/>
<path d="M0 0 C0.99 0.33 1.98 0.66 3 1 C1.71937515 2.7074998 0.38232443 4.37373596 -1 6 C-1.66 6 -2.32 6 -3 6 C-2.42655063 3.13275314 -2.1385485 2.1385485 0 0 Z " fill="#EFEFEF" transform="translate(187,186)"/>
<path d="M0 0 C1.32 0 2.64 0 4 0 C3.67 1.32 3.34 2.64 3 4 C1.35 3.67 -0.3 3.34 -2 3 C-1.34 2.01 -0.68 1.02 0 0 Z " fill="#EEEEEE" transform="translate(96,185)"/>
<path d="M0 0 C2.1385485 2.1385485 2.42655063 3.13275314 3 6 C1.35 5.67 -0.3 5.34 -2 5 C-1.125 1.125 -1.125 1.125 0 0 Z " fill="#EEEEEE" transform="translate(39,180)"/>
<path d="M0 0 C1.65 0 3.3 0 5 0 C5.33 0.99 5.66 1.98 6 3 C4.02 3 2.04 3 0 3 C0 2.01 0 1.02 0 0 Z " fill="#F6FCF3" transform="translate(136,131)"/>
<path d="M0 0 C0.33 0 0.66 0 1 0 C1 2.64 1 5.28 1 8 C0.01 7.67 -0.98 7.34 -2 7 C-1.34 4.69 -0.68 2.38 0 0 Z " fill="#E6F6F1" transform="translate(67,104)"/>
<path d="M0 0 C1.32 0 2.64 0 4 0 C4 1.65 4 3.3 4 5 C2.68 4.67 1.36 4.34 0 4 C0 2.68 0 1.36 0 0 Z " fill="#EEEEEE" transform="translate(5,85)"/>
<path d="M0 0 C1.32 0 2.64 0 4 0 C4 1.32 4 2.64 4 4 C2.68 4 1.36 4 0 4 C-0.33 3.01 -0.66 2.02 -1 1 C-0.67 0.67 -0.34 0.34 0 0 Z " fill="#EFEFEF" transform="translate(200,27)"/>
<path d="M0 0 C1.32 0 2.64 0 4 0 C3.67 1.65 3.34 3.3 3 5 C2.01 4.67 1.02 4.34 0 4 C0 2.68 0 1.36 0 0 Z " fill="#FDFDFD" transform="translate(150,8)"/>
</svg>
