<?xml version="1.0" encoding="UTF-8"?>
<svg version="1.1" xmlns="http://www.w3.org/2000/svg" width="250" height="200">
<path d="M0 0 C82.5 0 165 0 250 0 C250 66 250 132 250 200 C167.5 200 85 200 0 200 C0 134 0 68 0 0 Z " fill="#FEFEFE" transform="translate(0,0)"/>
<path d="M0 0 C8.25 0 16.5 0 25 0 C29.33066507 8.48456831 33.39502956 16.99634064 37.15625 25.74609375 C38.47736358 28.81637908 39.83720383 31.86658623 41.21875 34.91015625 C41.58814697 35.72709961 41.95754395 36.54404297 42.33813477 37.38574219 C43.05834953 38.97555671 43.78264973 40.56352824 44.51147461 42.14941406 C47 47.66575847 47 47.66575847 47 51 C47.99 51 48.98 51 50 51 C50.495 50.01 50.495 50.01 51 49 C52.97888961 48.27306096 54.97954558 47.60183749 57 47 C56.67 47.99 56.34 48.98 56 50 C58.71618672 49.64182153 59.8303398 49.17683958 61.75390625 47.171875 C62.35074219 46.37265625 62.94757813 45.5734375 63.5625 44.75 C66.70990819 40.64671228 69.94500589 36.67120959 73.3125 32.75 C78.63267615 26.51533171 83.69318027 20.09545759 88.72753906 13.62939453 C90.65773796 11.15776226 92.60775898 8.70224731 94.5625 6.25 C95.18253906 5.47140625 95.80257812 4.6928125 96.44140625 3.890625 C98 2 98 2 100 0 C98.84128837 6.13668994 97.10991293 11.58588042 94.56640625 17.27734375 C91.07055353 25.34476268 87.81314527 33.48711721 84.65234375 41.69140625 C84.18752594 42.8976767 83.72270813 44.10394714 83.24380493 45.34677124 C82.04761909 48.45669053 80.85336406 51.56733459 79.66033936 54.6784668 C78.45718726 57.81440355 77.25099853 60.94917149 76.04492188 64.08398438 C74.64377648 67.72624317 73.24282823 71.36857587 71.84310913 75.01138306 C68.25391882 84.35077813 64.63816188 93.67958231 61 103 C58.38824077 101.69412038 58.20165403 100.6372799 57.1875 97.9375 C55.48280981 92.67152636 56.60998884 89.86854125 59 85 C58.01 85.33 57.02 85.66 56 86 C55.01 85.67 54.02 85.34 53 85 C53 85.66 53 86.32 53 87 C49.62501715 85.87500572 49.45511309 85.56407526 47.828125 82.625 C47.41933105 81.90070801 47.01053711 81.17641602 46.58935547 80.43017578 C46.14736816 79.62821777 45.70538086 78.82625977 45.25 78 C44.25985172 76.24624295 43.26755499 74.49369765 42.2734375 72.7421875 C41.74331055 71.80600586 41.21318359 70.86982422 40.66699219 69.90527344 C37.81353292 64.9321971 34.84025106 60.0319518 31.875 55.125 C27.71214028 48.22103405 23.577112 41.30319369 19.5078125 34.34375 C19.13123505 33.69977264 18.75465759 33.05579529 18.3666687 32.39230347 C16.54008779 29.26642792 14.71704756 26.13853614 12.89794922 23.00830078 C9.16824748 16.60645415 5.33270854 10.30699628 1.25 4.12255859 C0 2 0 2 0 0 Z " fill="#242122" transform="translate(68,50)"/>
<path d="M0 0 C1.27362637 3.8208791 0.48390177 4.78659645 -1.13256836 8.40307617 C-3.88595123 14.72644741 -6.40615823 21.11321821 -8.87890625 27.55078125 C-9.32833084 28.71679871 -9.77775543 29.88281616 -10.24079895 31.08416748 C-11.19362498 33.55682351 -12.14589036 36.02968557 -13.09710693 38.50296021 C-14.5737309 42.34234761 -16.0525223 46.18089772 -17.53173828 50.01928711 C-19.00001055 53.82951409 -20.46819843 57.63977328 -21.93560791 61.45033264 C-25.73848612 71.32503493 -29.55213549 81.19552014 -33.375 91.0625 C-33.86662566 92.33178408 -34.35824383 93.60107106 -34.84985352 94.87036133 C-35.89962561 97.58034827 -36.94963287 100.29024365 -38 103 C-40.61175923 101.69412038 -40.79834597 100.6372799 -41.8125 97.9375 C-43.51719019 92.67152636 -42.39001116 89.86854125 -40 85 C-41.485 85.495 -41.485 85.495 -43 86 C-43.66 85.67 -44.32 85.34 -45 85 C-43.125 79.125 -43.125 79.125 -42 78 C-42.34694789 71.44489945 -44.28320868 66.39459368 -47.0625 60.5 C-47.43955078 59.67757812 -47.81660156 58.85515625 -48.20507812 58.0078125 C-49.1270486 56.00048438 -50.05872543 53.99832944 -51 52 C-50.01 51.505 -50.01 51.505 -49 51 C-48.67 50.34 -48.34 49.68 -48 49 C-46.02111039 48.27306096 -44.02045442 47.60183749 -42 47 C-42.33 47.99 -42.66 48.98 -43 50 C-40.28381328 49.64182153 -39.1696602 49.17683958 -37.24609375 47.171875 C-36.64925781 46.37265625 -36.05242187 45.5734375 -35.4375 44.75 C-32.29009181 40.64671228 -29.05499411 36.67120959 -25.6875 32.75 C-20.36773067 26.51580845 -15.30963131 20.09582834 -10.27685547 13.62939453 C-7.70933021 10.35297702 -5.08335125 7.12315134 -2.4609375 3.890625 C-0.95021561 2.06128277 -0.95021561 2.06128277 0 0 Z " fill="#EDECED" transform="translate(167,50)"/>
<path d="M0 0 C1.32830615 3.98491845 0.23204404 5.40048548 -1.4375 9.1875 C-1.91058594 10.27417969 -2.38367188 11.36085938 -2.87109375 12.48046875 C-3.24363281 13.31191406 -3.61617187 14.14335938 -4 15 C-4.66 14.67 -5.32 14.34 -6 14 C-6.35602295 14.66717041 -6.7120459 15.33434082 -7.07885742 16.02172852 C-13.6310872 28.28476147 -20.22417713 40.51844357 -27.0625 52.625 C-27.58545654 53.55256104 -28.10841309 54.48012207 -28.6472168 55.43579102 C-31.6400736 60.70914964 -34.74887702 65.88171832 -38 71 C-40.28363378 68.71636622 -40.7152849 67.25204532 -41.625 64.1875 C-41.88539062 63.33542969 -42.14578125 62.48335937 -42.4140625 61.60546875 C-43.0471708 58.79024718 -43.42558126 56.86615954 -43 54 C-41.49336239 51.67776133 -40.01354189 49.67066935 -38.25 47.5625 C-37.75628906 46.95341797 -37.26257813 46.34433594 -36.75390625 45.71679688 C-32.75864868 40.82084522 -28.63161892 36.0351395 -24.4921875 31.26098633 C-19.54506032 25.53446233 -14.8981085 19.59110892 -10.26074219 13.61328125 C-7.70224973 10.33936216 -5.07859149 7.11728421 -2.4609375 3.890625 C-0.95021561 2.06128277 -0.95021561 2.06128277 0 0 Z " fill="#221F20" transform="translate(167,50)"/>
<path d="M0 0 C1.38850131 4.16550394 -0.22686507 6.82934589 -1.8046875 10.71484375 C-2.11548248 11.50218903 -2.42627747 12.2895343 -2.74649048 13.10073853 C-3.78092311 15.71641117 -4.82810533 18.32679313 -5.875 20.9375 C-6.59549174 22.75404369 -7.31487655 24.57102677 -8.03320312 26.38842773 C-9.16446926 29.25053853 -10.2963357 32.11239252 -11.43145752 34.97297668 C-15.47114596 45.15835252 -19.41952129 55.37851262 -23.35943604 65.60281372 C-24.49366572 68.54606298 -25.6291867 71.4888108 -26.76513672 74.43139648 C-28.51094557 78.95393515 -30.25578763 83.47684539 -32 88 C-34.59545238 86.70227381 -34.81271204 85.67052875 -35.84667969 82.99536133 C-37.30136766 78.32590507 -36.74877996 75.73601136 -34.67388916 71.3946991 C-34.27103699 70.62894058 -33.86818481 69.86318207 -33.453125 69.07421875 C-33.04850037 68.24654495 -32.64387573 67.41887115 -32.22698975 66.56611633 C-30.92877445 63.92520784 -29.5912246 61.30678434 -28.25 58.6875 C-27.39432707 56.97210111 -26.54143793 55.25531066 -25.69140625 53.53710938 C-24.41527332 50.95799751 -23.13729209 48.38006913 -21.84790039 45.80755615 C-18.39973338 38.90747908 -15.18838751 31.91756937 -12.07427979 24.86100769 C-8.64647425 17.10594672 -4.8617887 9.54625037 -1 2 C-0.67 1.34 -0.34 0.68 0 0 Z " fill="#262425" transform="translate(161,65)"/>
<path d="M0 0 C1.32830615 3.98491845 0.23204404 5.40048548 -1.4375 9.1875 C-1.91058594 10.27417969 -2.38367188 11.36085938 -2.87109375 12.48046875 C-3.24363281 13.31191406 -3.61617187 14.14335938 -4 15 C-4.66 14.67 -5.32 14.34 -6 14 C-9.96 21.26 -13.92 28.52 -18 36 C-18.66 36 -19.32 36 -20 36 C-20 35.01 -20 34.02 -20 33 C-20.99 32.67 -21.98 32.34 -23 32 C-22.39976138 28.68563891 -21.2972302 26.82636216 -19.12109375 24.27734375 C-18.2386499 23.22921509 -18.2386499 23.22921509 -17.33837891 22.15991211 C-16.71108887 21.42651611 -16.08379883 20.69312012 -15.4375 19.9375 C-9.99853959 13.46964071 -4.82773107 6.94173753 0 0 Z " fill="#201E1F" transform="translate(167,50)"/>
<path d="M0 0 C0.33 0.66 0.66 1.32 1 2 C-0.06716438 4.60862403 -1.19877952 7.09859995 -2.4375 9.625 C-2.80077393 10.38119629 -3.16404785 11.13739258 -3.53833008 11.91650391 C-6.35969312 17.76340357 -9.26628862 23.56809464 -12.19116211 29.36376953 C-14.94777079 34.84115993 -17.52710367 40.38842755 -20 46 C-20.33 45.34 -20.66 44.68 -21 44 C-21.33 44.66 -21.66 45.32 -22 46 C-22.66 46 -23.32 46 -24 46 C-24.99 48.475 -24.99 48.475 -26 51 C-26.66 50.67 -27.32 50.34 -28 50 C-18.80677446 33.25168479 -9.55646419 16.54490387 0 0 Z " fill="#EDECED" transform="translate(161,63)"/>
<path d="M0 0 C1.33097865 3.99293596 -0.02444764 6.35355207 -1.52734375 10.07421875 C-1.79511124 10.7580513 -2.06287872 11.44188385 -2.33876038 12.1464386 C-3.19625079 14.33036217 -4.06667017 16.50886567 -4.9375 18.6875 C-5.52104094 20.16697932 -6.1037339 21.64679341 -6.68554688 23.12695312 C-8.11388616 26.75526028 -9.55384215 30.37876008 -11 34 C-12.32 33.67 -13.64 33.34 -15 33 C-13.37839441 27.61208465 -11.05721873 22.68019972 -8.625 17.625 C-8.04492188 16.40683594 -8.04492188 16.40683594 -7.453125 15.1640625 C-5.02529437 10.08028292 -2.53334033 5.03197737 0 0 Z " fill="#2E2D2D" transform="translate(161,65)"/>
<path d="M0 0 C1.32830615 3.98491845 0.23204404 5.40048548 -1.4375 9.1875 C-1.91058594 10.27417969 -2.38367188 11.36085938 -2.87109375 12.48046875 C-3.24363281 13.31191406 -3.61617187 14.14335938 -4 15 C-4.66 14.67 -5.32 14.34 -6 14 C-6.99 15.98 -7.98 17.96 -9 20 C-9.66 20 -10.32 20 -11 20 C-11.33 20.66 -11.66 21.32 -12 22 C-12.66 22 -13.32 22 -14 22 C-14.33 21.01 -14.66 20.02 -15 19 C-13.15365011 16.57592128 -11.29954215 14.36552222 -9.25 12.125 C-5.76093375 8.25278862 -2.4943322 4.61978429 0 0 Z " fill="#312F30" transform="translate(167,50)"/>
<path d="M0 0 C0.33 0.66 0.66 1.32 1 2 C0.67 2.66 0.34 3.32 0 4 C1.32 3.67 2.64 3.34 4 3 C3.67 3.99 3.34 4.98 3 6 C3 9.10551666 3.5393715 10.35261084 5 13 C4.01 14.32 3.02 15.64 2 17 C1.67 16.01 1.34 15.02 1 14 C0.34 13.67 -0.32 13.34 -1 13 C-0.34 12.67 0.32 12.34 1 12 C0.67 11.01 0.34 10.02 0 9 C-0.5775 9.350625 -1.155 9.70125 -1.75 10.0625 C-4 11 -4 11 -8 10 C-5.36 6.7 -2.72 3.4 0 0 Z " fill="#2A2728" transform="translate(134,91)"/>
<path d="M0 0 C2.64505618 1.62116347 3.83236473 2.55297262 4.9375 5.5 C5 8 5 8 3.5625 9.8125 C3.046875 10.204375 2.53125 10.59625 2 11 C1.01 10.67 0.02 10.34 -1 10 C-1 8.68 -1 7.36 -1 6 C-1.99 5.67 -2.98 5.34 -4 5 C-2.68 3.35 -1.36 1.7 0 0 Z " fill="#2A2627" transform="translate(143,80)"/>
<path d="M0 0 C1 2 1 2 0.42675781 3.72412109 C0.10545898 4.40039551 -0.21583984 5.07666992 -0.546875 5.7734375 C-0.8975 6.5159375 -1.248125 7.2584375 -1.609375 8.0234375 C-1.98578125 8.79945312 -2.3621875 9.57546875 -2.75 10.375 C-3.1109375 11.14328125 -3.471875 11.9115625 -3.84375 12.703125 C-5.61252572 16.40730024 -7.33168332 19.841929 -10 23 C-10.66 22.34 -11.32 21.68 -12 21 C-8.04 14.07 -4.08 7.14 0 0 Z " fill="#D5D4D5" transform="translate(161,63)"/>
<path d="M0 0 C0.99 0 1.98 0 3 0 C4 3 4 3 2.5625 6.1875 C1.7890625 7.5796875 1.7890625 7.5796875 1 9 C0.67 8.34 0.34 7.68 0 7 C-0.33 7.66 -0.66 8.32 -1 9 C-1.66 9 -2.32 9 -3 9 C-3.66 10.65 -4.32 12.3 -5 14 C-5.66 13.67 -6.32 13.34 -7 13 C-3.535 6.565 -3.535 6.565 0 0 Z " fill="#E3E1E2" transform="translate(140,100)"/>
<path d="M0 0 C1.32830615 3.98491845 0.23204404 5.40048548 -1.4375 9.1875 C-1.91058594 10.27417969 -2.38367188 11.36085938 -2.87109375 12.48046875 C-3.42990234 13.72763672 -3.42990234 13.72763672 -4 15 C-4.66 14.01 -5.32 13.02 -6 12 C-5.67 11.34 -5.34 10.68 -5 10 C-5.66 9.67 -6.32 9.34 -7 9 C-6.57847656 8.51789062 -6.15695313 8.03578125 -5.72265625 7.5390625 C-5.17480469 6.90742187 -4.62695312 6.27578125 -4.0625 5.625 C-3.51722656 4.99851562 -2.97195312 4.37203125 -2.41015625 3.7265625 C-0.93041376 2.04367666 -0.93041376 2.04367666 0 0 Z " fill="#696969" transform="translate(167,50)"/>
<path d="M0 0 C1.5625 1.25 1.5625 1.25 3 3 C2.69728039 4.34061543 2.36162029 5.67405895 2 7 C2.85790183 9.21771064 2.85790183 9.21771064 4 11 C3.01 12.485 3.01 12.485 2 14 C-2.23632385 7.10284464 -2.23632385 7.10284464 -1.25 2.5 C-0.8375 1.675 -0.425 0.85 0 0 Z " fill="#2B2B2B" transform="translate(126,139)"/>
<path d="M0 0 C1 2 1 2 0.25 5.5 C-1 9 -1 9 -4 11 C-5.32 10.67 -6.64 10.34 -8 10 C-5.36 6.7 -2.72 3.4 0 0 Z " fill="#2F2D2E" transform="translate(134,91)"/>
<path d="M0 0 C2.32883474 3.4932521 2 4.92922578 2 9 C1.67 9.66 1.34 10.32 1 11 C-0.32 11 -1.64 11 -3 11 C-2.32829194 7.1936543 -1.27253436 3.64793184 0 0 Z " fill="#E4E3E4" transform="translate(132,142)"/>
<path d="M0 0 C1.76462683 3.08809695 2 4.23312136 2 8 C1.01 8.495 1.01 8.495 0 9 C-1.32 6.36 -2.64 3.72 -4 1 C-2.68 0.67 -1.36 0.34 0 0 Z " fill="#2B292A" transform="translate(93,51)"/>
<path d="M0 0 C1.890625 0.21484375 1.890625 0.21484375 4 1 C5.046875 3.06640625 5.046875 3.06640625 5.75 5.5625 C5.99234375 6.38878906 6.2346875 7.21507813 6.484375 8.06640625 C6.65453125 8.70449219 6.8246875 9.34257813 7 10 C5.68 10 4.36 10 3 10 C2.51171875 7.98177083 2.0234375 5.96354167 1.53515625 3.9453125 C1.05153008 1.9414343 1.05153008 1.9414343 0 0 Z " fill="#302E2F" transform="translate(113,101)"/>
<path d="M0 0 C2 2 2 2 2 6 C0.5 7.75 0.5 7.75 -1 9 C-1.99 6.69 -2.98 4.38 -4 2 C-2.68 1.34 -1.36 0.68 0 0 Z " fill="#1E1C1D" transform="translate(139,94)"/>
<path d="M0 0 C0.66 0 1.32 0 2 0 C3.1004671 3.98919325 3.1004671 7.01080675 2 11 C-0.14208427 7.7868736 -0.59687808 5.78934603 -1 2 C-0.67 1.34 -0.34 0.68 0 0 Z " fill="#292728" transform="translate(125,105)"/>
<path d="M0 0 C1.04449911 3.13349732 0.93423645 3.98968256 0 7 C-1.32 7 -2.64 7 -4 7 C-4.33 7.66 -4.66 8.32 -5 9 C-5 4.61031544 -2.87194899 3.23094261 0 0 Z " fill="#292728" transform="translate(150,72)"/>
<path d="M0 0 C0.66 0.33 1.32 0.66 2 1 C2.59355614 3.64860427 2.74209269 6.29197322 3 9 C2.01 8.67 1.02 8.34 0 8 C-1.22393475 5.04215769 -0.96516243 3.00272755 0 0 Z " fill="#F3F1F2" transform="translate(124,112)"/>
<path d="M0 0 C0.66 0.33 1.32 0.66 2 1 C2.40729228 3.32156597 2.74438677 5.6568787 3 8 C0.525 7.01 0.525 7.01 -2 6 C-1.34 4.02 -0.68 2.04 0 0 Z " fill="#2F2D2E" transform="translate(140,109)"/>
<path d="M0 0 C0.66 0 1.32 0 2 0 C1.5020163 3.73487777 1.12508244 5.81237635 -1 9 C-1.66 8.67 -2.32 8.34 -3 8 C-2.37240135 5.07120629 -1.41377341 2.63904371 0 0 Z " fill="#F7F5F6" transform="translate(138,107)"/>
<path d="M0 0 C2.375 0.1875 2.375 0.1875 5 1 C6.3125 3.5625 6.3125 3.5625 7 6 C5.68 6 4.36 6 3 6 C2.01 4.02 1.02 2.04 0 0 Z " fill="#2D2B2C" transform="translate(96,98)"/>
<path d="M0 0 C0.66 0.66 1.32 1.32 2 2 C1.01 3.98 0.02 5.96 -1 8 C-1.66 8 -2.32 8 -3 8 C-4 5 -4 5 -3.1875 2.875 C-2 1 -2 1 0 0 Z " fill="#2A2527" transform="translate(143,91)"/>
<path d="M0 0 C1.32 0.33 2.64 0.66 4 1 C3.67 2.98 3.34 4.96 3 7 C2.01 7.33 1.02 7.66 0 8 C0 5.36 0 2.72 0 0 Z " fill="#1F1D1E" transform="translate(138,115)"/>
<path d="M0 0 C0.66 0 1.32 0 2 0 C1.25 4.75 1.25 4.75 -1 7 C-1.99 7.33 -2.98 7.66 -4 8 C-2.87548273 5.0280615 -1.77706209 2.66559313 0 0 Z " fill="#E4E2E3" transform="translate(149,85)"/>
<path d="M0 0 C2.25245881 2.68841859 3.88213958 4.64641875 5 8 C4.01 8.495 4.01 8.495 3 9 C0 5.25 0 5.25 0 3 C-0.66 2.67 -1.32 2.34 -2 2 C-1.34 1.34 -0.68 0.68 0 0 Z " fill="#E4E2E3" transform="translate(69,53)"/>
<path d="M0 0 C0.99 0 1.98 0 3 0 C3 3.3 3 6.6 3 10 C0 7 0 7 -0.1875 3.3125 C-0.125625 2.219375 -0.06375 1.12625 0 0 Z " fill="#1A1A1A" transform="translate(116,125)"/>
<path d="M0 0 C0.66 0 1.32 0 2 0 C1.34 1.98 0.68 3.96 0 6 C-0.99 6 -1.98 6 -3 6 C-2.42655063 3.13275314 -2.1385485 2.1385485 0 0 Z " fill="#272626" transform="translate(160,60)"/>
<path d="M0 0 C0.99 0.33 1.98 0.66 3 1 C3.6875 3.0625 3.6875 3.0625 4 5 C3.01 5.33 2.02 5.66 1 6 C1 5.34 1 4.68 1 4 C0.34 4 -0.32 4 -1 4 C-0.67 2.68 -0.34 1.36 0 0 Z " fill="#F3F3F3" transform="translate(65,49)"/>
<path d="M0 0 C1 3 1 3 0 6 C-0.66 6 -1.32 6 -2 6 C-2 5.34 -2 4.68 -2 4 C-2.66 4 -3.32 4 -4 4 C-4 3.34 -4 2.68 -4 2 C-2.68 1.34 -1.36 0.68 0 0 Z " fill="#211D1E" transform="translate(136,129)"/>
<path d="M0 0 C1.42944945 2.35438733 2.08661261 3.48032433 1.625 6.25 C1.41875 6.8275 1.2125 7.405 1 8 C1.66 8 2.32 8 3 8 C2.67 8.66 2.34 9.32 2 10 C1.01 9.34 0.02 8.68 -1 8 C-0.67 5.36 -0.34 2.72 0 0 Z " fill="#323031" transform="translate(137,115)"/>
<path d="M0 0 C2.0625 2.3125 2.0625 2.3125 4 5 C3.67 5.99 3.34 6.98 3 8 C0.52557871 5.84832931 -0.56238367 4.28212246 -1 1 C-0.67 0.67 -0.34 0.34 0 0 Z " fill="#DEDEDE" transform="translate(107,117)"/>
</svg>
